NotoSerifEthiopic-CondensedLight.ufo
<glyph name="hyphen" format="2">
  <advance width="258"/>
  <unicode hex="002D"/>
  <outline>
    <contour>
      <point x="22" y="259" type="line"/>
      <point x="237" y="259" type="line"/>
      <point x="237" y="287" type="line"/>
      <point x="22" y="287" type="line"/>
    </contour>
  </outline>
</glyph>
<glyph name="dieresiscomb" format="2">
  <unicode hex="0308"/>
  <anchor x="2" y="536" name="_top"/>
  <anchor x="2" y="737" name="top"/>
  <outline>
    <contour>
      <point x="72" y="661" type="curve" smooth="yes"/>
      <point x="88" y="661"/>
      <point x="95" y="669"/>
      <point x="95" y="698" type="curve" smooth="yes"/>
      <point x="95" y="728"/>
      <point x="88" y="737"/>
      <point x="72" y="737" type="curve" smooth="yes"/>
      <point x="57" y="737"/>
      <point x="49" y="728"/>
      <point x="49" y="698" type="curve" smooth="yes"/>
      <point x="49" y="669"/>
      <point x="57" y="661"/>
    </contour>
    <contour>
      <point x="-69" y="661" type="curve" smooth="yes"/>
      <point x="-53" y="661"/>
      <point x="-46" y="669"/>
      <point x="-46" y="698" type="curve" smooth="yes"/>
      <point x="-46" y="728"/>
      <point x="-53" y="737"/>
      <point x="-69" y="737" type="curve" smooth="yes"/>
      <point x="-85" y="737"/>
      <point x="-91" y="728"/>
      <point x="-91" y="698" type="curve" smooth="yes"/>
      <point x="-91" y="669"/>
      <point x="-85" y="661"/>
    </contour>
  </outline>
</glyph>
<glyph name="ha-ethiopic" format="2">
  <advance width="476"/>
  <unicode hex="1200"/>
  <note>
uni1200
</note>
  <anchor x="224" y="716" name="top"/>
  <outline>
    <contour>
      <point x="223" y="-12" type="curve" smooth="yes"/>
      <point x="338" y="-12"/>
      <point x="397" y="104"/>
      <point x="397" y="271" type="curve" smooth="yes"/>
      <point x="397" y="628" type="line" smooth="yes"/>
      <point x="397" y="670"/>
      <point x="391" y="700"/>
      <point x="383" y="716" type="curve"/>
      <point x="330" y="712" type="line"/>
      <point x="330" y="692" type="line"/>
      <point x="353" y="692"/>
      <point x="369" y="682"/>
      <point x="369" y="626" type="curve" smooth="yes"/>
      <point x="369" y="277" type="line" smooth="yes"/>
      <point x="369" y="101"/>
      <point x="316" y="12"/>
      <point x="224" y="12" type="curve" smooth="yes"/>
      <point x="152" y="12"/>
      <point x="117" y="66"/>
      <point x="117" y="182" type="curve" smooth="yes"/>
      <point x="117" y="306"/>
      <point x="119" y="476"/>
      <point x="119" y="628" type="curve" smooth="yes"/>
      <point x="119" y="676"/>
      <point x="114" y="700"/>
      <point x="105" y="716" type="curve"/>
      <point x="52" y="712" type="line"/>
      <point x="52" y="692" type="line"/>
      <point x="75" y="692"/>
      <point x="91" y="683"/>
      <point x="91" y="626" type="curve" smooth="yes"/>
      <point x="91" y="490"/>
      <point x="89" y="271"/>
      <point x="89" y="180" type="curve" smooth="yes"/>
      <point x="89" y="44"/>
      <point x="132" y="-12"/>
    </contour>
  </outline>
</glyph>
<glyph name="hi-ethiopic" format="2">
  <advance width="390"/>
  <unicode hex="1202"/>
  <note>
uni1202
</note>
  <anchor x="203" y="716" name="top"/>
  <outline>
    <contour>
      <point x="180" y="0" type="curve"/>
      <point x="227" y="0" type="line"/>
      <point x="227" y="25" type="line"/>
      <point x="210" y="25"/>
      <point x="201" y="34"/>
      <point x="201" y="55" type="curve" smooth="yes"/>
      <point x="201" y="68"/>
      <point x="204" y="87"/>
      <point x="212" y="111" type="curve" smooth="yes"/>
      <point x="341" y="512" type="line" smooth="yes"/>
      <point x="362" y="577"/>
      <point x="370" y="621"/>
      <point x="370" y="652" type="curve" smooth="yes"/>
      <point x="370" y="685"/>
      <point x="361" y="703"/>
      <point x="351" y="716" type="curve"/>
      <point x="303" y="712" type="line"/>
      <point x="303" y="692" type="line"/>
      <point x="328" y="692"/>
      <point x="341" y="674"/>
      <point x="341" y="637" type="curve" smooth="yes"/>
      <point x="341" y="609"/>
      <point x="333" y="570"/>
      <point x="317" y="521" type="curve" smooth="yes"/>
      <point x="277" y="399" type="line"/>
      <point x="253" y="389"/>
      <point x="230" y="379"/>
      <point x="192" y="379" type="curve" smooth="yes"/>
      <point x="129" y="379"/>
      <point x="102" y="414"/>
      <point x="102" y="491" type="curve" smooth="yes"/>
      <point x="102" y="527"/>
      <point x="106" y="591"/>
      <point x="106" y="635" type="curve" smooth="yes"/>
      <point x="106" y="670"/>
      <point x="101" y="699"/>
      <point x="89" y="716" type="curve"/>
      <point x="36" y="712" type="line"/>
      <point x="36" y="692" type="line"/>
      <point x="65" y="692"/>
      <point x="78" y="678"/>
      <point x="78" y="630" type="curve" smooth="yes"/>
      <point x="78" y="597"/>
      <point x="74" y="515"/>
      <point x="74" y="486" type="curve" smooth="yes"/>
      <point x="74" y="403"/>
      <point x="107" y="356"/>
      <point x="186" y="356" type="curve" smooth="yes"/>
      <point x="225" y="356"/>
      <point x="248" y="365"/>
      <point x="268" y="373" type="curve"/>
      <point x="183" y="114" type="line" smooth="yes"/>
      <point x="173" y="83"/>
      <point x="169" y="59"/>
      <point x="169" y="41" type="curve" smooth="yes"/>
      <point x="169" y="21"/>
      <point x="174" y="8"/>
    </contour>
    <component base="rightdoubleflag" xOffset="195" yOffset="1"/>
  </outline>
</glyph>
<glyph name="haa-ethiopic" format="2">
  <advance width="410"/>
  <unicode hex="1203"/>
  <note>
uni1203
</note>
  <anchor x="203" y="716" name="top"/>
  <outline>
    <contour>
      <point x="180" y="-3" type="curve"/>
      <point x="227" y="2" type="line"/>
      <point x="227" y="22" type="line"/>
      <point x="210" y="22"/>
      <point x="201" y="32"/>
      <point x="201" y="55" type="curve" smooth="yes"/>
      <point x="201" y="68"/>
      <point x="205" y="87"/>
      <point x="212" y="110" type="curve" smooth="yes"/>
      <point x="341" y="512" type="line" smooth="yes"/>
      <point x="362" y="576"/>
      <point x="370" y="620"/>
      <point x="370" y="651" type="curve" smooth="yes"/>
      <point x="370" y="684"/>
      <point x="362" y="702"/>
      <point x="351" y="716" type="curve"/>
      <point x="303" y="712" type="line"/>
      <point x="303" y="692" type="line"/>
      <point x="327" y="692"/>
      <point x="341" y="674"/>
      <point x="341" y="637" type="curve" smooth="yes"/>
      <point x="341" y="609"/>
      <point x="333" y="570"/>
      <point x="317" y="521" type="curve" smooth="yes"/>
      <point x="277" y="399" type="line"/>
      <point x="253" y="389"/>
      <point x="230" y="379"/>
      <point x="192" y="379" type="curve" smooth="yes"/>
      <point x="129" y="379"/>
      <point x="102" y="414"/>
      <point x="102" y="491" type="curve" smooth="yes"/>
      <point x="102" y="527"/>
      <point x="106" y="591"/>
      <point x="106" y="635" type="curve" smooth="yes"/>
      <point x="106" y="670"/>
      <point x="101" y="699"/>
      <point x="89" y="716" type="curve"/>
      <point x="36" y="712" type="line"/>
      <point x="36" y="692" type="line"/>
      <point x="65" y="692"/>
      <point x="78" y="678"/>
      <point x="78" y="630" type="curve" smooth="yes"/>
      <point x="78" y="597"/>
      <point x="74" y="515"/>
      <point x="74" y="486" type="curve" smooth="yes"/>
      <point x="74" y="403"/>
      <point x="107" y="356"/>
      <point x="186" y="356" type="curve" smooth="yes"/>
      <point x="225" y="356"/>
      <point x="248" y="365"/>
      <point x="268" y="373" type="curve"/>
      <point x="183" y="114" type="line" smooth="yes"/>
      <point x="173" y="82"/>
      <point x="169" y="57"/>
      <point x="169" y="38" type="curve" smooth="yes"/>
      <point x="169" y="18"/>
      <point x="174" y="5"/>
    </contour>
  </outline>
</glyph>
<glyph name="hee-ethiopic" format="2">
  <advance width="440"/>
  <unicode hex="1204"/>
  <note>
uni1204
</note>
  <anchor x="228" y="716" name="top"/>
  <outline>
    <contour>
      <point x="214" y="0" type="curve"/>
      <point x="305" y="0" type="line" smooth="yes"/>
      <point x="380" y="0"/>
      <point x="420" y="52"/>
      <point x="420" y="122" type="curve" smooth="yes"/>
      <point x="420" y="185"/>
      <point x="389" y="230"/>
      <point x="316" y="230" type="curve" smooth="yes"/>
      <point x="251" y="230" type="line"/>
      <point x="341" y="512" type="line" smooth="yes"/>
      <point x="362" y="577"/>
      <point x="370" y="621"/>
      <point x="370" y="652" type="curve" smooth="yes"/>
      <point x="370" y="685"/>
      <point x="361" y="703"/>
      <point x="351" y="716" type="curve"/>
      <point x="303" y="712" type="line"/>
      <point x="303" y="692" type="line"/>
      <point x="328" y="692"/>
      <point x="341" y="674"/>
      <point x="341" y="637" type="curve" smooth="yes"/>
      <point x="341" y="609"/>
      <point x="333" y="570"/>
      <point x="317" y="521" type="curve" smooth="yes"/>
      <point x="277" y="396" type="line"/>
      <point x="257" y="387"/>
      <point x="231" y="379"/>
      <point x="198" y="379" type="curve" smooth="yes"/>
      <point x="131" y="379"/>
      <point x="102" y="414"/>
      <point x="102" y="491" type="curve" smooth="yes"/>
      <point x="102" y="527"/>
      <point x="106" y="591"/>
      <point x="106" y="635" type="curve" smooth="yes"/>
      <point x="106" y="670"/>
      <point x="101" y="699"/>
      <point x="89" y="716" type="curve"/>
      <point x="36" y="712" type="line"/>
      <point x="36" y="692" type="line"/>
      <point x="65" y="692"/>
      <point x="78" y="678"/>
      <point x="78" y="630" type="curve" smooth="yes"/>
      <point x="78" y="597"/>
      <point x="74" y="515"/>
      <point x="74" y="486" type="curve" smooth="yes"/>
      <point x="74" y="400"/>
      <point x="113" y="356"/>
      <point x="192" y="356" type="curve" smooth="yes"/>
      <point x="226" y="356"/>
      <point x="253" y="364"/>
      <point x="269" y="370" type="curve"/>
      <point x="190" y="129" type="line" smooth="yes"/>
      <point x="182" y="105"/>
      <point x="178" y="83"/>
      <point x="178" y="66" type="curve" smooth="yes"/>
      <point x="178" y="30"/>
      <point x="194" y="10"/>
    </contour>
    <contour>
      <point x="243" y="22" type="line" smooth="yes"/>
      <point x="224" y="22"/>
      <point x="207" y="35"/>
      <point x="207" y="69" type="curve" smooth="yes"/>
      <point x="207" y="85"/>
      <point x="211" y="106"/>
      <point x="219" y="132" type="curve" smooth="yes"/>
      <point x="243" y="207" type="line"/>
      <point x="311" y="207" type="line" smooth="yes"/>
      <point x="370" y="207"/>
      <point x="393" y="172"/>
      <point x="393" y="122" type="curve" smooth="yes"/>
      <point x="393" y="68"/>
      <point x="366" y="22"/>
      <point x="300" y="22" type="curve" smooth="yes"/>
    </contour>
  </outline>
</glyph>
<glyph name="he-ethiopic" format="2">
  <advance width="522"/>
  <unicode hex="1205"/>
  <note>
uni1205
</note>
  <anchor x="264" y="716" name="top"/>
  <outline>
    <contour>
      <point x="269" y="-12" type="curve" smooth="yes"/>
      <point x="384" y="-12"/>
      <point x="443" y="110"/>
      <point x="443" y="297" type="curve" smooth="yes"/>
      <point x="443" y="628" type="line" smooth="yes"/>
      <point x="443" y="670"/>
      <point x="438" y="700"/>
      <point x="429" y="716" type="curve"/>
      <point x="376" y="712" type="line"/>
      <point x="376" y="692" type="line"/>
      <point x="399" y="692"/>
      <point x="415" y="682"/>
      <point x="415" y="626" type="curve" smooth="yes"/>
      <point x="415" y="303" type="line" smooth="yes"/>
      <point x="415" y="107"/>
      <point x="362" y="12"/>
      <point x="271" y="12" type="curve" smooth="yes"/>
      <point x="198" y="12"/>
      <point x="163" y="72"/>
      <point x="163" y="208" type="curve" smooth="yes"/>
      <point x="163" y="271"/>
      <point x="166" y="381"/>
      <point x="166" y="456" type="curve" smooth="yes"/>
      <point x="166" y="493"/>
      <point x="148" y="516"/>
      <point x="114" y="516" type="curve" smooth="yes"/>
      <point x="95" y="516" type="line"/>
      <point x="95" y="663" type="line" smooth="yes"/>
      <point x="95" y="691"/>
      <point x="89" y="707"/>
      <point x="77" y="716" type="curve"/>
      <point x="32" y="712" type="line"/>
      <point x="32" y="692" type="line"/>
      <point x="56" y="692"/>
      <point x="67" y="683"/>
      <point x="67" y="654" type="curve" smooth="yes"/>
      <point x="67" y="491" type="line"/>
      <point x="104" y="491" type="line" smooth="yes"/>
      <point x="127" y="491"/>
      <point x="138" y="476"/>
      <point x="138" y="451" type="curve" smooth="yes"/>
      <point x="138" y="381"/>
      <point x="135" y="271"/>
      <point x="135" y="206" type="curve" smooth="yes"/>
      <point x="135" y="50"/>
      <point x="178" y="-12"/>
    </contour>
  </outline>
</glyph>
<glyph name="ho-ethiopic" format="2">
  <advance width="608"/>
  <unicode hex="1206"/>
  <note>
uni1206
</note>
  <anchor x="325" y="717" name="top"/>
  <outline>
    <contour>
      <point x="223" y="-12" type="curve" smooth="yes"/>
      <point x="338" y="-12"/>
      <point x="397" y="101"/>
      <point x="397" y="268" type="curve" smooth="yes"/>
      <point x="397" y="525" type="line"/>
      <point x="413" y="503"/>
      <point x="438" y="487"/>
      <point x="472" y="487" type="curve" smooth="yes"/>
      <point x="483" y="487" type="line" smooth="yes"/>
      <point x="557" y="487"/>
      <point x="598" y="539"/>
      <point x="598" y="609" type="curve" smooth="yes"/>
      <point x="598" y="672"/>
      <point x="566" y="717"/>
      <point x="494" y="717" type="curve" smooth="yes"/>
      <point x="369" y="717" type="line"/>
      <point x="369" y="274" type="line" smooth="yes"/>
      <point x="369" y="98"/>
      <point x="316" y="12"/>
      <point x="224" y="12" type="curve" smooth="yes"/>
      <point x="152" y="12"/>
      <point x="117" y="63"/>
      <point x="117" y="179" type="curve" smooth="yes"/>
      <point x="117" y="303"/>
      <point x="119" y="476"/>
      <point x="119" y="628" type="curve" smooth="yes"/>
      <point x="119" y="676"/>
      <point x="114" y="700"/>
      <point x="105" y="716" type="curve"/>
      <point x="52" y="712" type="line"/>
      <point x="52" y="692" type="line"/>
      <point x="75" y="692"/>
      <point x="91" y="683"/>
      <point x="91" y="626" type="curve" smooth="yes"/>
      <point x="91" y="490"/>
      <point x="89" y="268"/>
      <point x="89" y="177" type="curve" smooth="yes"/>
      <point x="89" y="41"/>
      <point x="132" y="-12"/>
    </contour>
    <contour>
      <point x="479" y="509" type="curve" smooth="yes"/>
      <point x="418" y="509"/>
      <point x="397" y="555"/>
      <point x="397" y="593" type="curve" smooth="yes"/>
      <point x="397" y="694" type="line"/>
      <point x="488" y="694" type="line" smooth="yes"/>
      <point x="548" y="694"/>
      <point x="570" y="659"/>
      <point x="570" y="609" type="curve" smooth="yes"/>
      <point x="570" y="555"/>
      <point x="544" y="509"/>
    </contour>
  </outline>
</glyph>
<glyph name="la-ethiopic" format="2">
  <advance width="499"/>
  <unicode hex="1208"/>
  <note>
uni1208
</note>
  <anchor x="269" y="714" name="top"/>
  <outline>
    <contour>
      <point x="107" y="-3" type="curve"/>
      <point x="149" y="0" type="line"/>
      <point x="149" y="20" type="line"/>
      <point x="116" y="20"/>
      <point x="93" y="60"/>
      <point x="93" y="148" type="curve" smooth="yes"/>
      <point x="93" y="280"/>
      <point x="153" y="424"/>
      <point x="252" y="511" type="curve"/>
      <point x="385" y="85" type="line" smooth="yes"/>
      <point x="403" y="26"/>
      <point x="418" y="3"/>
      <point x="434" y="-3" type="curve"/>
      <point x="474" y="0" type="line"/>
      <point x="474" y="20" type="line"/>
      <point x="446" y="20"/>
      <point x="430" y="39"/>
      <point x="409" y="106" type="curve" smooth="yes"/>
      <point x="217" y="714" type="line"/>
      <point x="188" y="714" type="line"/>
      <point x="243" y="537" type="line"/>
      <point x="136" y="442"/>
      <point x="64" y="294"/>
      <point x="64" y="142" type="curve" smooth="yes"/>
      <point x="64" y="53"/>
      <point x="85" y="17"/>
    </contour>
  </outline>
</glyph>
<glyph name="li-ethiopic" format="2">
  <advance width="634"/>
  <unicode hex="120A"/>
  <note>
uni120A
</note>
  <anchor x="339" y="714" name="top"/>
  <outline>
    <contour>
      <point x="107" y="-3" type="curve"/>
      <point x="149" y="0" type="line"/>
      <point x="149" y="20" type="line"/>
      <point x="116" y="20"/>
      <point x="93" y="60"/>
      <point x="93" y="148" type="curve" smooth="yes"/>
      <point x="93" y="280"/>
      <point x="153" y="424"/>
      <point x="252" y="511" type="curve"/>
      <point x="385" y="85" type="line" smooth="yes"/>
      <point x="403" y="26"/>
      <point x="418" y="6"/>
      <point x="434" y="0" type="curve"/>
      <point x="508" y="0" type="line"/>
      <point x="508" y="25" type="line"/>
      <point x="478" y="25" type="line" smooth="yes"/>
      <point x="441" y="25"/>
      <point x="433" y="30"/>
      <point x="409" y="106" type="curve" smooth="yes"/>
      <point x="217" y="714" type="line"/>
      <point x="188" y="714" type="line"/>
      <point x="243" y="537" type="line"/>
      <point x="136" y="442"/>
      <point x="64" y="294"/>
      <point x="64" y="142" type="curve" smooth="yes"/>
      <point x="64" y="53"/>
      <point x="85" y="17"/>
    </contour>
    <component base="rightdoubleflag" xOffset="441"/>
  </outline>
</glyph>
<glyph name="laa-ethiopic" format="2">
  <advance width="481"/>
  <unicode hex="120B"/>
  <note>
uni120B
</note>
  <anchor x="251" y="714" name="top"/>
  <outline>
    <contour>
      <point x="416" y="-3" type="curve"/>
      <point x="456" y="0" type="line"/>
      <point x="456" y="20" type="line"/>
      <point x="428" y="20"/>
      <point x="413" y="40"/>
      <point x="392" y="107" type="curve" smooth="yes"/>
      <point x="200" y="714" type="line"/>
      <point x="170" y="714" type="line"/>
      <point x="225" y="537" type="line"/>
      <point x="115" y="475"/>
      <point x="46" y="396"/>
      <point x="46" y="281" type="curve" smooth="yes"/>
      <point x="46" y="216"/>
      <point x="68" y="182"/>
      <point x="89" y="164" type="curve"/>
      <point x="131" y="167" type="line"/>
      <point x="131" y="187" type="line"/>
      <point x="98" y="187"/>
      <point x="75" y="221"/>
      <point x="75" y="287" type="curve" smooth="yes"/>
      <point x="75" y="382"/>
      <point x="138" y="461"/>
      <point x="235" y="511" type="curve"/>
      <point x="367" y="86" type="line" smooth="yes"/>
      <point x="385" y="27"/>
      <point x="400" y="3"/>
    </contour>
  </outline>
</glyph>
<glyph name="lee-ethiopic" format="2">
  <advance width="591"/>
  <unicode hex="120C"/>
  <note>
uni120C
</note>
  <anchor x="317" y="714" name="top"/>
  <outline>
    <contour>
      <point x="107" y="-2" type="curve"/>
      <point x="149" y="1" type="line"/>
      <point x="149" y="21" type="line"/>
      <point x="113" y="21"/>
      <point x="93" y="60"/>
      <point x="93" y="148" type="curve" smooth="yes"/>
      <point x="93" y="280"/>
      <point x="153" y="424"/>
      <point x="252" y="511" type="curve"/>
      <point x="386" y="85" type="line" smooth="yes"/>
      <point x="405" y="24"/>
      <point x="426" y="0"/>
      <point x="459" y="0" type="curve"/>
      <point x="478" y="0" type="line" smooth="yes"/>
      <point x="539" y="0"/>
      <point x="571" y="56"/>
      <point x="571" y="123" type="curve" smooth="yes"/>
      <point x="571" y="189"/>
      <point x="533" y="230"/>
      <point x="471" y="230" type="curve" smooth="yes"/>
      <point x="371" y="230" type="line"/>
      <point x="217" y="714" type="line"/>
      <point x="188" y="714" type="line"/>
      <point x="243" y="537" type="line"/>
      <point x="136" y="442"/>
      <point x="64" y="294"/>
      <point x="64" y="142" type="curve" smooth="yes"/>
      <point x="64" y="53"/>
      <point x="85" y="18"/>
    </contour>
    <contour>
      <point x="479" y="24" type="curve" smooth="yes"/>
      <point x="446" y="24"/>
      <point x="429" y="41"/>
      <point x="409" y="106" type="curve" smooth="yes"/>
      <point x="378" y="207" type="line"/>
      <point x="465" y="207" type="line" smooth="yes"/>
      <point x="514" y="207"/>
      <point x="543" y="176"/>
      <point x="543" y="123" type="curve" smooth="yes"/>
      <point x="543" y="66"/>
      <point x="522" y="24"/>
    </contour>
  </outline>
</glyph>
<glyph name="le-ethiopic" format="2">
  <advance width="501"/>
  <unicode hex="120D"/>
  <note>
uni120D
</note>
  <anchor x="270" y="714" name="top"/>
  <outline>
    <contour>
      <point x="435" y="-3" type="curve"/>
      <point x="476" y="0" type="line"/>
      <point x="476" y="20" type="line"/>
      <point x="447" y="20"/>
      <point x="432" y="40"/>
      <point x="411" y="107" type="curve" smooth="yes"/>
      <point x="219" y="714" type="line"/>
      <point x="189" y="714" type="line"/>
      <point x="244" y="537" type="line"/>
      <point x="136" y="442"/>
      <point x="64" y="294"/>
      <point x="64" y="131" type="curve" smooth="yes"/>
      <point x="64" y="40"/>
      <point x="103" y="7"/>
      <point x="138" y="0" type="curve"/>
      <point x="163" y="0" type="line" smooth="yes"/>
      <point x="225" y="0"/>
      <point x="265" y="56"/>
      <point x="265" y="123" type="curve" smooth="yes"/>
      <point x="265" y="189"/>
      <point x="227" y="230"/>
      <point x="164" y="230" type="curve" smooth="yes"/>
      <point x="100" y="230" type="line"/>
      <point x="121" y="340"/>
      <point x="176" y="443"/>
      <point x="254" y="511" type="curve"/>
      <point x="386" y="86" type="line" smooth="yes"/>
      <point x="404" y="27"/>
      <point x="419" y="3"/>
    </contour>
    <contour>
      <point x="160" y="22" type="curve" smooth="yes"/>
      <point x="139" y="22"/>
      <point x="92" y="30"/>
      <point x="92" y="133" type="curve" smooth="yes"/>
      <point x="92" y="160"/>
      <point x="93" y="184"/>
      <point x="96" y="207" type="curve"/>
      <point x="159" y="207" type="line" smooth="yes"/>
      <point x="208" y="207"/>
      <point x="237" y="176"/>
      <point x="237" y="123" type="curve" smooth="yes"/>
      <point x="237" y="66"/>
      <point x="210" y="22"/>
    </contour>
  </outline>
</glyph>
<glyph name="lwa-ethiopic" format="2">
  <advance width="578"/>
  <unicode hex="120F"/>
  <note>
uni120F
</note>
  <anchor x="302" y="714" name="top"/>
  <outline>
    <contour>
      <point x="388" y="22" type="line"/>
      <point x="420" y="22" type="line"/>
      <point x="201" y="714" type="line"/>
      <point x="170" y="714" type="line"/>
      <point x="225" y="537" type="line"/>
      <point x="115" y="475"/>
      <point x="46" y="396"/>
      <point x="46" y="281" type="curve" smooth="yes"/>
      <point x="46" y="216"/>
      <point x="68" y="182"/>
      <point x="89" y="164" type="curve"/>
      <point x="131" y="167" type="line"/>
      <point x="131" y="187" type="line"/>
      <point x="98" y="187"/>
      <point x="75" y="221"/>
      <point x="75" y="287" type="curve" smooth="yes"/>
      <point x="75" y="382"/>
      <point x="138" y="461"/>
      <point x="235" y="511" type="curve"/>
    </contour>
    <component base="footright" xOffset="133"/>
  </outline>
</glyph>
<glyph name="hha-ethiopic" format="2">
  <advance width="612"/>
  <unicode hex="1210"/>
  <note>
uni1210
</note>
  <anchor x="316" y="716" name="top"/>
  <outline>
    <contour>
      <point x="89" y="-4" type="curve"/>
      <point x="139" y="2" type="line"/>
      <point x="139" y="22" type="line"/>
      <point x="107" y="23"/>
      <point x="91" y="43"/>
      <point x="91" y="126" type="curve" smooth="yes"/>
      <point x="91" y="294"/>
      <point x="172" y="396"/>
      <point x="312" y="396" type="curve" smooth="yes"/>
      <point x="453" y="396"/>
      <point x="500" y="320"/>
      <point x="500" y="214" type="curve" smooth="yes"/>
      <point x="500" y="174"/>
      <point x="498" y="121"/>
      <point x="498" y="74" type="curve" smooth="yes"/>
      <point x="498" y="32"/>
      <point x="505" y="10"/>
      <point x="520" y="-4" type="curve"/>
      <point x="569" y="2" type="line"/>
      <point x="569" y="22" type="line"/>
      <point x="537" y="22"/>
      <point x="526" y="38"/>
      <point x="526" y="86" type="curve" smooth="yes"/>
      <point x="526" y="117"/>
      <point x="528" y="179"/>
      <point x="528" y="218" type="curve" smooth="yes"/>
      <point x="528" y="334"/>
      <point x="469" y="420"/>
      <point x="316" y="420" type="curve" smooth="yes"/>
      <point x="158" y="420"/>
      <point x="63" y="304"/>
      <point x="63" y="120" type="curve" smooth="yes"/>
      <point x="63" y="46"/>
      <point x="77" y="12"/>
    </contour>
    <component base="stem1" xOffset="192"/>
  </outline>
</glyph>
<glyph name="hhi-ethiopic" format="2">
  <advance width="727"/>
  <unicode hex="1212"/>
  <note>
uni1212
</note>
  <anchor x="385" y="716" name="top"/>
  <outline>
    <contour>
      <point x="89" y="-4" type="curve"/>
      <point x="139" y="2" type="line"/>
      <point x="139" y="22" type="line"/>
      <point x="107" y="23"/>
      <point x="91" y="43"/>
      <point x="91" y="126" type="curve" smooth="yes"/>
      <point x="91" y="294"/>
      <point x="172" y="396"/>
      <point x="312" y="396" type="curve" smooth="yes"/>
      <point x="453" y="396"/>
      <point x="500" y="320"/>
      <point x="500" y="214" type="curve" smooth="yes"/>
      <point x="500" y="174"/>
      <point x="498" y="121"/>
      <point x="498" y="74" type="curve" smooth="yes"/>
      <point x="498" y="32"/>
      <point x="505" y="14"/>
      <point x="517" y="0" type="curve"/>
      <point x="569" y="0" type="line"/>
      <point x="569" y="25" type="line"/>
      <point x="537" y="25"/>
      <point x="526" y="38"/>
      <point x="526" y="86" type="curve" smooth="yes"/>
      <point x="526" y="117"/>
      <point x="528" y="179"/>
      <point x="528" y="218" type="curve" smooth="yes"/>
      <point x="528" y="334"/>
      <point x="469" y="420"/>
      <point x="316" y="420" type="curve" smooth="yes"/>
      <point x="158" y="420"/>
      <point x="63" y="304"/>
      <point x="63" y="120" type="curve" smooth="yes"/>
      <point x="63" y="46"/>
      <point x="77" y="12"/>
    </contour>
    <component base="stem1" xOffset="192"/>
    <component base="rightdoubleflag" xOffset="534"/>
  </outline>
</glyph>
<glyph name="hhaa-ethiopic" format="2">
  <advance width="589"/>
  <unicode hex="1213"/>
  <note>
uni1213
</note>
  <anchor x="299" y="716" name="top"/>
  <outline>
    <contour>
      <point x="497" y="-4" type="curve"/>
      <point x="546" y="2" type="line"/>
      <point x="546" y="22" type="line"/>
      <point x="514" y="22"/>
      <point x="503" y="38"/>
      <point x="503" y="86" type="curve" smooth="yes"/>
      <point x="503" y="117"/>
      <point x="505" y="179"/>
      <point x="505" y="218" type="curve" smooth="yes"/>
      <point x="505" y="333"/>
      <point x="448" y="419"/>
      <point x="297" y="420" type="curve"/>
      <point x="297" y="649" type="line" smooth="yes"/>
      <point x="297" y="687"/>
      <point x="291" y="707"/>
      <point x="279" y="716" type="curve"/>
      <point x="234" y="712" type="line"/>
      <point x="234" y="692" type="line"/>
      <point x="258" y="692"/>
      <point x="269" y="682"/>
      <point x="269" y="640" type="curve" smooth="yes"/>
      <point x="269" y="419" type="line"/>
      <point x="130" y="412"/>
      <point x="52" y="325"/>
      <point x="52" y="223" type="curve" smooth="yes"/>
      <point x="52" y="190"/>
      <point x="60" y="168"/>
      <point x="68" y="152" type="curve"/>
      <point x="125" y="158" type="line"/>
      <point x="125" y="178" type="line"/>
      <point x="91" y="179"/>
      <point x="80" y="194"/>
      <point x="80" y="231" type="curve" smooth="yes"/>
      <point x="80" y="315"/>
      <point x="146" y="388"/>
      <point x="269" y="396" type="curve"/>
      <point x="269" y="220" type="line" smooth="yes"/>
      <point x="269" y="182"/>
      <point x="275" y="163"/>
      <point x="288" y="153" type="curve"/>
      <point x="332" y="158" type="line"/>
      <point x="332" y="178" type="line"/>
      <point x="308" y="178"/>
      <point x="297" y="187"/>
      <point x="297" y="231" type="curve" smooth="yes"/>
      <point x="297" y="396" type="line"/>
      <point x="432" y="395"/>
      <point x="478" y="319"/>
      <point x="478" y="214" type="curve" smooth="yes"/>
      <point x="478" y="174"/>
      <point x="475" y="121"/>
      <point x="475" y="74" type="curve" smooth="yes"/>
      <point x="475" y="32"/>
      <point x="482" y="10"/>
    </contour>
  </outline>
</glyph>
<glyph name="hhee-ethiopic" format="2">
  <advance width="747"/>
  <unicode hex="1214"/>
  <note>
uni1214
</note>
  <anchor x="395" y="716" name="top"/>
  <outline>
    <contour>
      <point x="89" y="-4" type="curve"/>
      <point x="139" y="2" type="line"/>
      <point x="139" y="22" type="line"/>
      <point x="107" y="23"/>
      <point x="91" y="43"/>
      <point x="91" y="126" type="curve" smooth="yes"/>
      <point x="91" y="294"/>
      <point x="172" y="396"/>
      <point x="309" y="396" type="curve" smooth="yes"/>
      <point x="453" y="396"/>
      <point x="500" y="320"/>
      <point x="500" y="214" type="curve" smooth="yes"/>
      <point x="500" y="107" type="line" smooth="yes"/>
      <point x="500" y="40"/>
      <point x="531" y="0"/>
      <point x="598" y="0" type="curve" smooth="yes"/>
      <point x="612" y="0" type="line" smooth="yes"/>
      <point x="686" y="0"/>
      <point x="727" y="52"/>
      <point x="727" y="122" type="curve" smooth="yes"/>
      <point x="727" y="185"/>
      <point x="696" y="230"/>
      <point x="623" y="230" type="curve" smooth="yes"/>
      <point x="527" y="230" type="line"/>
      <point x="523" y="340"/>
      <point x="463" y="420"/>
      <point x="310" y="420" type="curve" smooth="yes"/>
      <point x="158" y="420"/>
      <point x="63" y="304"/>
      <point x="63" y="120" type="curve" smooth="yes"/>
      <point x="63" y="46"/>
      <point x="77" y="12"/>
    </contour>
    <contour>
      <point x="608" y="22" type="curve" smooth="yes"/>
      <point x="548" y="22"/>
      <point x="527" y="60"/>
      <point x="527" y="106" type="curve" smooth="yes"/>
      <point x="527" y="207" type="line"/>
      <point x="618" y="207" type="line" smooth="yes"/>
      <point x="677" y="207"/>
      <point x="700" y="172"/>
      <point x="700" y="122" type="curve" smooth="yes"/>
      <point x="700" y="68"/>
      <point x="674" y="22"/>
    </contour>
    <component base="stem1" xOffset="189"/>
  </outline>
</glyph>
<glyph name="hhe-ethiopic" format="2">
  <advance width="612"/>
  <unicode hex="1215"/>
  <note>
uni1215
</note>
  <anchor x="316" y="774" name="top"/>
  <outline>
    <contour>
      <point x="89" y="-4" type="curve"/>
      <point x="139" y="2" type="line"/>
      <point x="139" y="22" type="line"/>
      <point x="107" y="23"/>
      <point x="91" y="43"/>
      <point x="91" y="126" type="curve" smooth="yes"/>
      <point x="91" y="285"/>
      <point x="164" y="385"/>
      <point x="291" y="395" type="curve"/>
      <point x="291" y="64" type="line" smooth="yes"/>
      <point x="291" y="26"/>
      <point x="297" y="7"/>
      <point x="310" y="-3" type="curve"/>
      <point x="354" y="2" type="line"/>
      <point x="354" y="22" type="line"/>
      <point x="330" y="22"/>
      <point x="319" y="31"/>
      <point x="319" y="75" type="curve" smooth="yes"/>
      <point x="319" y="396" type="line"/>
      <point x="455" y="393"/>
      <point x="500" y="318"/>
      <point x="500" y="214" type="curve" smooth="yes"/>
      <point x="500" y="174"/>
      <point x="498" y="121"/>
      <point x="498" y="74" type="curve" smooth="yes"/>
      <point x="498" y="32"/>
      <point x="505" y="10"/>
      <point x="520" y="-4" type="curve"/>
      <point x="569" y="2" type="line"/>
      <point x="569" y="22" type="line"/>
      <point x="537" y="22"/>
      <point x="526" y="38"/>
      <point x="526" y="86" type="curve" smooth="yes"/>
      <point x="526" y="117"/>
      <point x="528" y="179"/>
      <point x="528" y="218" type="curve" smooth="yes"/>
      <point x="528" y="333"/>
      <point x="470" y="419"/>
      <point x="319" y="420" type="curve"/>
      <point x="319" y="649" type="line" smooth="yes"/>
      <point x="319" y="687"/>
      <point x="313" y="708"/>
      <point x="301" y="717" type="curve"/>
      <point x="143" y="717" type="line"/>
      <point x="144" y="722"/>
      <point x="144" y="728"/>
      <point x="144" y="732" type="curve" smooth="yes"/>
      <point x="144" y="756"/>
      <point x="130" y="774"/>
      <point x="109" y="774" type="curve" smooth="yes"/>
      <point x="102" y="774"/>
      <point x="98" y="773"/>
      <point x="94" y="771" type="curve"/>
      <point x="103" y="761"/>
      <point x="107" y="743"/>
      <point x="107" y="727" type="curve" smooth="yes"/>
      <point x="107" y="711"/>
      <point x="104" y="701"/>
      <point x="101" y="692" type="curve"/>
      <point x="256" y="692" type="line" smooth="yes"/>
      <point x="283" y="692"/>
      <point x="291" y="682"/>
      <point x="291" y="640" type="curve" smooth="yes"/>
      <point x="291" y="419" type="line"/>
      <point x="148" y="407"/>
      <point x="63" y="294"/>
      <point x="63" y="120" type="curve" smooth="yes"/>
      <point x="63" y="46"/>
      <point x="77" y="12"/>
    </contour>
  </outline>
</glyph>
<glyph name="hho-ethiopic" format="2">
  <advance width="603"/>
  <unicode hex="1216"/>
  <note>
uni1216
</note>
  <anchor x="315" y="716" name="top"/>
  <outline>
    <contour>
      <point x="89" y="-4" type="curve"/>
      <point x="139" y="2" type="line"/>
      <point x="139" y="22" type="line"/>
      <point x="107" y="23"/>
      <point x="91" y="48"/>
      <point x="91" y="133" type="curve" smooth="yes"/>
      <point x="91" y="305"/>
      <point x="175" y="396"/>
      <point x="317" y="396" type="curve" smooth="yes"/>
      <point x="464" y="396"/>
      <point x="502" y="308"/>
      <point x="502" y="247" type="curve" smooth="yes"/>
      <point x="502" y="237"/>
      <point x="502" y="222"/>
      <point x="502" y="211" type="curve" smooth="yes"/>
      <point x="502" y="179"/>
      <point x="507" y="169"/>
      <point x="515" y="156" type="curve"/>
      <point x="568" y="162" type="line"/>
      <point x="568" y="182" type="line"/>
      <point x="541" y="182"/>
      <point x="530" y="191"/>
      <point x="530" y="217" type="curve" smooth="yes"/>
      <point x="530" y="229"/>
      <point x="530" y="241"/>
      <point x="530" y="251" type="curve" smooth="yes"/>
      <point x="530" y="322"/>
      <point x="479" y="420"/>
      <point x="322" y="420" type="curve" smooth="yes"/>
      <point x="162" y="420"/>
      <point x="63" y="318"/>
      <point x="63" y="130" type="curve" smooth="yes"/>
      <point x="63" y="47"/>
      <point x="77" y="12"/>
    </contour>
    <contour>
      <point x="310" y="153" type="curve"/>
      <point x="354" y="158" type="line"/>
      <point x="354" y="178" type="line"/>
      <point x="330" y="178"/>
      <point x="319" y="187"/>
      <point x="319" y="231" type="curve" smooth="yes"/>
      <point x="319" y="649" type="line" smooth="yes"/>
      <point x="319" y="687"/>
      <point x="313" y="707"/>
      <point x="301" y="716" type="curve"/>
      <point x="256" y="712" type="line"/>
      <point x="256" y="692" type="line"/>
      <point x="280" y="692"/>
      <point x="291" y="682"/>
      <point x="291" y="640" type="curve" smooth="yes"/>
      <point x="291" y="220" type="line" smooth="yes"/>
      <point x="291" y="182"/>
      <point x="297" y="163"/>
    </contour>
  </outline>
</glyph>
<glyph name="hhwa-ethiopic" format="2">
  <advance width="698"/>
  <unicode hex="1217"/>
  <note>
uni1217
</note>
  <anchor x="365" y="716" name="top"/>
  <outline>
    <contour>
      <point x="497" y="3" type="curve"/>
      <point x="546" y="5" type="line"/>
      <point x="546" y="25" type="line"/>
      <point x="514" y="25"/>
      <point x="503" y="41"/>
      <point x="503" y="86" type="curve" smooth="yes"/>
      <point x="503" y="117"/>
      <point x="505" y="179"/>
      <point x="505" y="218" type="curve" smooth="yes"/>
      <point x="505" y="333"/>
      <point x="448" y="419"/>
      <point x="297" y="420" type="curve"/>
      <point x="297" y="649" type="line" smooth="yes"/>
      <point x="297" y="687"/>
      <point x="291" y="707"/>
      <point x="279" y="716" type="curve"/>
      <point x="234" y="712" type="line"/>
      <point x="234" y="692" type="line"/>
      <point x="258" y="692"/>
      <point x="269" y="682"/>
      <point x="269" y="640" type="curve" smooth="yes"/>
      <point x="269" y="419" type="line"/>
      <point x="130" y="412"/>
      <point x="52" y="325"/>
      <point x="52" y="223" type="curve" smooth="yes"/>
      <point x="52" y="190"/>
      <point x="60" y="168"/>
      <point x="68" y="152" type="curve"/>
      <point x="125" y="158" type="line"/>
      <point x="125" y="178" type="line"/>
      <point x="91" y="179"/>
      <point x="80" y="194"/>
      <point x="80" y="231" type="curve" smooth="yes"/>
      <point x="80" y="315"/>
      <point x="146" y="388"/>
      <point x="269" y="396" type="curve"/>
      <point x="269" y="220" type="line" smooth="yes"/>
      <point x="269" y="182"/>
      <point x="275" y="163"/>
      <point x="288" y="153" type="curve"/>
      <point x="332" y="158" type="line"/>
      <point x="332" y="178" type="line"/>
      <point x="308" y="178"/>
      <point x="297" y="187"/>
      <point x="297" y="231" type="curve" smooth="yes"/>
      <point x="297" y="396" type="line"/>
      <point x="432" y="395"/>
      <point x="478" y="319"/>
      <point x="478" y="214" type="curve" smooth="yes"/>
      <point x="478" y="174"/>
      <point x="475" y="121"/>
      <point x="475" y="74" type="curve" smooth="yes"/>
      <point x="475" y="32"/>
      <point x="482" y="17"/>
    </contour>
    <component base="footright" xOffset="253"/>
  </outline>
</glyph>
<glyph name="ma-ethiopic" format="2">
  <advance width="688"/>
  <unicode hex="1218"/>
  <note>
uni1218
</note>
  <anchor x="344" y="714" name="top"/>
  <outline>
    <contour>
      <point x="188" y="170" type="curve" smooth="yes"/>
      <point x="244" y="170"/>
      <point x="273" y="189"/>
      <point x="305" y="221" type="curve"/>
      <point x="305" y="689" type="line"/>
      <point x="405" y="689" type="line"/>
      <point x="405" y="213" type="line"/>
      <point x="465" y="213" type="line" smooth="yes"/>
      <point x="585" y="213"/>
      <point x="641" y="319"/>
      <point x="641" y="471" type="curve" smooth="yes"/>
      <point x="641" y="617"/>
      <point x="585" y="714"/>
      <point x="469" y="714" type="curve" smooth="yes"/>
      <point x="264" y="714" type="line" smooth="yes"/>
      <point x="149" y="714"/>
      <point x="47" y="639"/>
      <point x="47" y="404" type="curve" smooth="yes"/>
      <point x="47" y="255"/>
      <point x="102" y="170"/>
    </contour>
    <contour>
      <point x="193" y="195" type="curve" smooth="yes"/>
      <point x="118" y="195"/>
      <point x="74" y="272"/>
      <point x="74" y="405" type="curve" smooth="yes"/>
      <point x="74" y="623"/>
      <point x="162" y="689"/>
      <point x="264" y="689" type="curve" smooth="yes"/>
      <point x="277" y="689" type="line"/>
      <point x="277" y="230" type="line"/>
      <point x="256" y="210"/>
      <point x="236" y="195"/>
    </contour>
    <contour>
      <point x="432" y="238" type="line"/>
      <point x="432" y="689" type="line"/>
      <point x="465" y="689" type="line" smooth="yes"/>
      <point x="571" y="689"/>
      <point x="613" y="592"/>
      <point x="613" y="471" type="curve" smooth="yes"/>
      <point x="613" y="338"/>
      <point x="573" y="238"/>
      <point x="461" y="238" type="curve" smooth="yes"/>
    </contour>
  </outline>
</glyph>
<glyph name="maa-ethiopic" format="2">
  <advance width="709"/>
  <unicode hex="121B"/>
  <note>
uni121B
</note>
  <anchor x="348" y="714" name="top"/>
  <outline>
    <contour>
      <point x="502" y="-3" type="curve"/>
      <point x="548" y="2" type="line"/>
      <point x="548" y="22" type="line"/>
      <point x="531" y="22"/>
      <point x="522" y="32"/>
      <point x="522" y="55" type="curve" smooth="yes"/>
      <point x="522" y="68"/>
      <point x="524" y="87"/>
      <point x="532" y="111" type="curve" smooth="yes"/>
      <point x="625" y="400" type="line" smooth="yes"/>
      <point x="651" y="482"/>
      <point x="669" y="536"/>
      <point x="669" y="591" type="curve" smooth="yes"/>
      <point x="669" y="676"/>
      <point x="623" y="714"/>
      <point x="542" y="714" type="curve" smooth="yes"/>
      <point x="223" y="714" type="line" smooth="yes"/>
      <point x="104" y="714"/>
      <point x="28" y="632"/>
      <point x="28" y="486" type="curve" smooth="yes"/>
      <point x="28" y="365"/>
      <point x="83" y="298"/>
      <point x="170" y="298" type="curve" smooth="yes"/>
      <point x="228" y="298"/>
      <point x="265" y="321"/>
      <point x="298" y="354" type="curve"/>
      <point x="298" y="689" type="line"/>
      <point x="434" y="689" type="line"/>
      <point x="423" y="634"/>
      <point x="414" y="580"/>
      <point x="414" y="516" type="curve" smooth="yes"/>
      <point x="414" y="431"/>
      <point x="451" y="383"/>
      <point x="537" y="383" type="curve" smooth="yes"/>
      <point x="593" y="383" type="line"/>
      <point x="506" y="114" type="line" smooth="yes"/>
      <point x="496" y="82"/>
      <point x="492" y="56"/>
      <point x="492" y="37" type="curve" smooth="yes"/>
      <point x="492" y="18"/>
      <point x="496" y="4"/>
    </contour>
    <contour>
      <point x="173" y="323" type="curve" smooth="yes"/>
      <point x="104" y="323"/>
      <point x="54" y="376"/>
      <point x="54" y="486" type="curve" smooth="yes"/>
      <point x="54" y="615"/>
      <point x="114" y="689"/>
      <point x="224" y="689" type="curve" smooth="yes"/>
      <point x="271" y="689" type="line"/>
      <point x="271" y="362" type="line"/>
      <point x="247" y="338"/>
      <point x="220" y="323"/>
    </contour>
    <contour>
      <point x="548" y="408" type="line" smooth="yes"/>
      <point x="480" y="408"/>
      <point x="440" y="431"/>
      <point x="440" y="519" type="curve" smooth="yes"/>
      <point x="440" y="581"/>
      <point x="448" y="633"/>
      <point x="460" y="689" type="curve"/>
      <point x="538" y="689" type="line" smooth="yes"/>
      <point x="603" y="689"/>
      <point x="643" y="661"/>
      <point x="643" y="588" type="curve" smooth="yes"/>
      <point x="643" y="541"/>
      <point x="628" y="489"/>
      <point x="610" y="435" type="curve" smooth="yes"/>
      <point x="601" y="408" type="line"/>
    </contour>
  </outline>
</glyph>
<glyph name="mee-ethiopic" format="2">
  <advance width="761"/>
  <unicode hex="121C"/>
  <note>
uni121C
</note>
  <anchor x="384" y="714" name="top"/>
  <outline>
    <contour>
      <point x="535" y="0" type="curve"/>
      <point x="625" y="0" type="line" smooth="yes"/>
      <point x="700" y="0"/>
      <point x="741" y="52"/>
      <point x="741" y="122" type="curve" smooth="yes"/>
      <point x="741" y="185"/>
      <point x="709" y="230"/>
      <point x="637" y="230" type="curve" smooth="yes"/>
      <point x="571" y="230" type="line"/>
      <point x="625" y="400" type="line" smooth="yes"/>
      <point x="651" y="482"/>
      <point x="669" y="536"/>
      <point x="669" y="591" type="curve" smooth="yes"/>
      <point x="669" y="676"/>
      <point x="623" y="714"/>
      <point x="542" y="714" type="curve" smooth="yes"/>
      <point x="223" y="714" type="line" smooth="yes"/>
      <point x="104" y="714"/>
      <point x="28" y="632"/>
      <point x="28" y="486" type="curve" smooth="yes"/>
      <point x="28" y="365"/>
      <point x="83" y="298"/>
      <point x="170" y="298" type="curve" smooth="yes"/>
      <point x="228" y="298"/>
      <point x="265" y="321"/>
      <point x="298" y="354" type="curve"/>
      <point x="298" y="689" type="line"/>
      <point x="434" y="689" type="line"/>
      <point x="423" y="634"/>
      <point x="414" y="580"/>
      <point x="414" y="516" type="curve" smooth="yes"/>
      <point x="414" y="431"/>
      <point x="451" y="383"/>
      <point x="537" y="383" type="curve" smooth="yes"/>
      <point x="593" y="383" type="line"/>
      <point x="511" y="129" type="line" smooth="yes"/>
      <point x="503" y="104"/>
      <point x="500" y="83"/>
      <point x="500" y="66" type="curve" smooth="yes"/>
      <point x="500" y="30"/>
      <point x="515" y="10"/>
    </contour>
    <contour>
      <point x="173" y="323" type="curve" smooth="yes"/>
      <point x="104" y="323"/>
      <point x="54" y="376"/>
      <point x="54" y="486" type="curve" smooth="yes"/>
      <point x="54" y="615"/>
      <point x="114" y="689"/>
      <point x="224" y="689" type="curve" smooth="yes"/>
      <point x="271" y="689" type="line"/>
      <point x="271" y="362" type="line"/>
      <point x="247" y="338"/>
      <point x="220" y="323"/>
    </contour>
    <contour>
      <point x="563" y="22" type="line" smooth="yes"/>
      <point x="544" y="22"/>
      <point x="528" y="35"/>
      <point x="528" y="69" type="curve" smooth="yes"/>
      <point x="528" y="85"/>
      <point x="531" y="106"/>
      <point x="539" y="132" type="curve" smooth="yes"/>
      <point x="563" y="207" type="line"/>
      <point x="631" y="207" type="line" smooth="yes"/>
      <point x="690" y="207"/>
      <point x="713" y="172"/>
      <point x="713" y="122" type="curve" smooth="yes"/>
      <point x="713" y="68"/>
      <point x="686" y="22"/>
      <point x="621" y="22" type="curve" smooth="yes"/>
    </contour>
    <contour>
      <point x="548" y="408" type="line" smooth="yes"/>
      <point x="480" y="408"/>
      <point x="440" y="431"/>
      <point x="440" y="519" type="curve" smooth="yes"/>
      <point x="440" y="581"/>
      <point x="448" y="633"/>
      <point x="460" y="689" type="curve"/>
      <point x="538" y="689" type="line" smooth="yes"/>
      <point x="603" y="689"/>
      <point x="643" y="661"/>
      <point x="643" y="588" type="curve" smooth="yes"/>
      <point x="643" y="541"/>
      <point x="628" y="489"/>
      <point x="610" y="435" type="curve" smooth="yes"/>
      <point x="601" y="408" type="line"/>
    </contour>
  </outline>
</glyph>
<glyph name="me-ethiopic" format="2">
  <advance width="684"/>
  <unicode hex="121D"/>
  <note>
uni121D
</note>
  <anchor x="344" y="714" name="top"/>
  <outline>
    <contour>
      <point x="168" y="298" type="curve" smooth="yes"/>
      <point x="227" y="298"/>
      <point x="264" y="323"/>
      <point x="300" y="360" type="curve"/>
      <point x="300" y="689" type="line"/>
      <point x="422" y="689" type="line"/>
      <point x="422" y="394" type="line"/>
      <point x="500" y="394" type="line" smooth="yes"/>
      <point x="618" y="394"/>
      <point x="660" y="467"/>
      <point x="660" y="558" type="curve" smooth="yes"/>
      <point x="660" y="654"/>
      <point x="623" y="714"/>
      <point x="511" y="714" type="curve" smooth="yes"/>
      <point x="224" y="714" type="line" smooth="yes"/>
      <point x="105" y="714"/>
      <point x="28" y="632"/>
      <point x="28" y="486" type="curve" smooth="yes"/>
      <point x="28" y="365"/>
      <point x="81" y="298"/>
    </contour>
    <contour>
      <point x="185" y="-3" type="curve"/>
      <point x="232" y="2" type="line"/>
      <point x="232" y="22" type="line"/>
      <point x="215" y="22"/>
      <point x="205" y="32"/>
      <point x="205" y="55" type="curve" smooth="yes"/>
      <point x="205" y="68"/>
      <point x="208" y="87"/>
      <point x="216" y="110" type="curve" smooth="yes"/>
      <point x="299" y="360" type="line"/>
      <point x="268" y="353" type="line"/>
      <point x="189" y="114" type="line" smooth="yes"/>
      <point x="179" y="83"/>
      <point x="175" y="57"/>
      <point x="175" y="38" type="curve" smooth="yes"/>
      <point x="175" y="18"/>
      <point x="179" y="5"/>
    </contour>
    <contour>
      <point x="172" y="323" type="curve" smooth="yes"/>
      <point x="99" y="323"/>
      <point x="56" y="376"/>
      <point x="56" y="486" type="curve" smooth="yes"/>
      <point x="56" y="615"/>
      <point x="115" y="689"/>
      <point x="225" y="689" type="curve" smooth="yes"/>
      <point x="272" y="689" type="line"/>
      <point x="272" y="365" type="line"/>
      <point x="246" y="343"/>
      <point x="219" y="323"/>
    </contour>
    <contour>
      <point x="450" y="419" type="line"/>
      <point x="450" y="689" type="line"/>
      <point x="507" y="689" type="line" smooth="yes"/>
      <point x="606" y="689"/>
      <point x="633" y="639"/>
      <point x="633" y="558" type="curve" smooth="yes"/>
      <point x="633" y="481"/>
      <point x="604" y="419"/>
      <point x="496" y="419" type="curve" smooth="yes"/>
    </contour>
  </outline>
</glyph>
<glyph name="mo-ethiopic" format="2">
  <advance width="684"/>
  <unicode hex="121E"/>
  <note>
uni121E
</note>
  <anchor x="344" y="714" name="top"/>
  <outline>
    <contour>
      <point x="168" y="298" type="curve" smooth="yes"/>
      <point x="227" y="298"/>
      <point x="264" y="323"/>
      <point x="300" y="360" type="curve"/>
      <point x="300" y="689" type="line"/>
      <point x="422" y="689" type="line"/>
      <point x="422" y="394" type="line"/>
      <point x="486" y="394" type="line" smooth="yes"/>
      <point x="614" y="394"/>
      <point x="660" y="467"/>
      <point x="660" y="558" type="curve" smooth="yes"/>
      <point x="660" y="654"/>
      <point x="619" y="714"/>
      <point x="497" y="714" type="curve" smooth="yes"/>
      <point x="224" y="714" type="line" smooth="yes"/>
      <point x="105" y="714"/>
      <point x="28" y="632"/>
      <point x="28" y="486" type="curve" smooth="yes"/>
      <point x="28" y="365"/>
      <point x="81" y="298"/>
    </contour>
    <contour>
      <point x="291" y="-3" type="curve"/>
      <point x="335" y="2" type="line"/>
      <point x="335" y="22" type="line"/>
      <point x="311" y="22"/>
      <point x="300" y="31"/>
      <point x="300" y="75" type="curve" smooth="yes"/>
      <point x="300" y="458" type="line"/>
      <point x="272" y="449" type="line"/>
      <point x="272" y="64" type="line" smooth="yes"/>
      <point x="272" y="26"/>
      <point x="278" y="7"/>
    </contour>
    <contour>
      <point x="172" y="323" type="curve" smooth="yes"/>
      <point x="99" y="323"/>
      <point x="56" y="376"/>
      <point x="56" y="486" type="curve" smooth="yes"/>
      <point x="56" y="615"/>
      <point x="115" y="689"/>
      <point x="225" y="689" type="curve" smooth="yes"/>
      <point x="272" y="689" type="line"/>
      <point x="272" y="365" type="line"/>
      <point x="246" y="343"/>
      <point x="219" y="323"/>
    </contour>
    <contour>
      <point x="450" y="419" type="line"/>
      <point x="450" y="689" type="line"/>
      <point x="493" y="689" type="line" smooth="yes"/>
      <point x="602" y="689"/>
      <point x="633" y="639"/>
      <point x="633" y="558" type="curve" smooth="yes"/>
      <point x="633" y="481"/>
      <point x="600" y="419"/>
      <point x="482" y="419" type="curve" smooth="yes"/>
    </contour>
  </outline>
</glyph>
<glyph name="sza-ethiopic" format="2">
  <advance width="689"/>
  <unicode hex="1220"/>
  <note>
uni1220
</note>
  <anchor x="331" y="716" name="top"/>
  <outline>
    <contour>
      <point x="220" y="-12" type="curve" smooth="yes"/>
      <point x="302" y="-12"/>
      <point x="348" y="38"/>
      <point x="357" y="139" type="curve"/>
      <point x="372" y="114"/>
      <point x="405" y="91"/>
      <point x="464" y="91" type="curve" smooth="yes"/>
      <point x="553" y="91"/>
      <point x="610" y="164"/>
      <point x="610" y="269" type="curve" smooth="yes"/>
      <point x="610" y="628" type="line" smooth="yes"/>
      <point x="610" y="670"/>
      <point x="604" y="700"/>
      <point x="595" y="716" type="curve"/>
      <point x="543" y="712" type="line"/>
      <point x="543" y="692" type="line"/>
      <point x="566" y="692"/>
      <point x="582" y="682"/>
      <point x="582" y="626" type="curve" smooth="yes"/>
      <point x="582" y="279" type="line" smooth="yes"/>
      <point x="582" y="183"/>
      <point x="538" y="116"/>
      <point x="465" y="116" type="curve" smooth="yes"/>
      <point x="398" y="116"/>
      <point x="365" y="152"/>
      <point x="365" y="205" type="curve" smooth="yes"/>
      <point x="365" y="628" type="line" smooth="yes"/>
      <point x="365" y="670"/>
      <point x="359" y="700"/>
      <point x="350" y="716" type="curve"/>
      <point x="298" y="712" type="line"/>
      <point x="298" y="692" type="line"/>
      <point x="321" y="692"/>
      <point x="337" y="682"/>
      <point x="337" y="626" type="curve" smooth="yes"/>
      <point x="337" y="210" type="line" smooth="yes"/>
      <point x="337" y="64"/>
      <point x="300" y="13"/>
      <point x="222" y="13" type="curve" smooth="yes"/>
      <point x="151" y="13"/>
      <point x="116" y="59"/>
      <point x="116" y="175" type="curve" smooth="yes"/>
      <point x="116" y="261"/>
      <point x="118" y="476"/>
      <point x="118" y="628" type="curve" smooth="yes"/>
      <point x="118" y="676"/>
      <point x="113" y="700"/>
      <point x="104" y="716" type="curve"/>
      <point x="52" y="712" type="line"/>
      <point x="52" y="692" type="line"/>
      <point x="75" y="692"/>
      <point x="90" y="683"/>
      <point x="90" y="626" type="curve" smooth="yes"/>
      <point x="90" y="490"/>
      <point x="88" y="227"/>
      <point x="88" y="168" type="curve" smooth="yes"/>
      <point x="88" y="32"/>
      <point x="138" y="-12"/>
    </contour>
  </outline>
</glyph>
<glyph name="szi-ethiopic" format="2">
  <advance width="633"/>
  <unicode hex="1222"/>
  <note>
uni1222
</note>
  <anchor x="332" y="716" name="top"/>
  <outline>
    <contour>
      <point x="427" y="0" type="curve"/>
      <point x="474" y="0" type="line"/>
      <point x="474" y="25" type="line"/>
      <point x="457" y="25"/>
      <point x="448" y="34"/>
      <point x="448" y="54" type="curve" smooth="yes"/>
      <point x="448" y="68"/>
      <point x="452" y="86"/>
      <point x="459" y="110" type="curve" smooth="yes"/>
      <point x="571" y="481" type="line" smooth="yes"/>
      <point x="582" y="517"/>
      <point x="587" y="555"/>
      <point x="587" y="580" type="curve" smooth="yes"/>
      <point x="587" y="628" type="line" smooth="yes"/>
      <point x="587" y="670"/>
      <point x="581" y="700"/>
      <point x="573" y="716" type="curve"/>
      <point x="521" y="712" type="line"/>
      <point x="521" y="692" type="line"/>
      <point x="543" y="692"/>
      <point x="559" y="682"/>
      <point x="559" y="626" type="curve" smooth="yes"/>
      <point x="559" y="586" type="line" smooth="yes"/>
      <point x="559" y="520"/>
      <point x="538" y="425"/>
      <point x="456" y="425" type="curve" smooth="yes"/>
      <point x="388" y="425"/>
      <point x="354" y="485"/>
      <point x="354" y="581" type="curve" smooth="yes"/>
      <point x="354" y="628" type="line" smooth="yes"/>
      <point x="354" y="670"/>
      <point x="348" y="700"/>
      <point x="340" y="716" type="curve"/>
      <point x="288" y="712" type="line"/>
      <point x="288" y="692" type="line"/>
      <point x="310" y="692"/>
      <point x="326" y="682"/>
      <point x="326" y="626" type="curve" smooth="yes"/>
      <point x="326" y="548" type="line" smooth="yes"/>
      <point x="326" y="403"/>
      <point x="293" y="316"/>
      <point x="212" y="316" type="curve" smooth="yes"/>
      <point x="149" y="316"/>
      <point x="118" y="371"/>
      <point x="118" y="501" type="curve" smooth="yes"/>
      <point x="118" y="543"/>
      <point x="118" y="586"/>
      <point x="118" y="628" type="curve" smooth="yes"/>
      <point x="118" y="676"/>
      <point x="113" y="700"/>
      <point x="104" y="716" type="curve"/>
      <point x="52" y="712" type="line"/>
      <point x="52" y="692" type="line"/>
      <point x="75" y="692"/>
      <point x="90" y="683"/>
      <point x="90" y="626" type="curve" smooth="yes"/>
      <point x="90" y="584"/>
      <point x="90" y="541"/>
      <point x="90" y="499" type="curve" smooth="yes"/>
      <point x="90" y="354"/>
      <point x="129" y="292"/>
      <point x="210" y="292" type="curve" smooth="yes"/>
      <point x="296" y="292"/>
      <point x="336" y="369"/>
      <point x="347" y="486" type="curve"/>
      <point x="364" y="428"/>
      <point x="399" y="401"/>
      <point x="455" y="401" type="curve" smooth="yes"/>
      <point x="483" y="401"/>
      <point x="504" y="410"/>
      <point x="523" y="425" type="curve"/>
      <point x="432" y="115" type="line" smooth="yes"/>
      <point x="423" y="83"/>
      <point x="417" y="57"/>
      <point x="417" y="38" type="curve" smooth="yes"/>
      <point x="417" y="20"/>
      <point x="421" y="7"/>
    </contour>
    <component base="rightdoubleflag" xOffset="440"/>
  </outline>
</glyph>
<glyph name="szaa-ethiopic" format="2">
  <advance width="627"/>
  <unicode hex="1223"/>
  <note>
uni1223
</note>
  <anchor x="319" y="716" name="top"/>
  <outline>
    <contour>
      <point x="442" y="-3" type="curve"/>
      <point x="489" y="2" type="line"/>
      <point x="489" y="22" type="line"/>
      <point x="472" y="22"/>
      <point x="463" y="32"/>
      <point x="463" y="53" type="curve" smooth="yes"/>
      <point x="463" y="67"/>
      <point x="467" y="86"/>
      <point x="474" y="110" type="curve" smooth="yes"/>
      <point x="583" y="485" type="line"/>
      <point x="545" y="450" type="line"/>
      <point x="448" y="114" type="line" smooth="yes"/>
      <point x="438" y="79"/>
      <point x="433" y="52"/>
      <point x="433" y="32" type="curve" smooth="yes"/>
      <point x="433" y="16"/>
      <point x="436" y="4"/>
    </contour>
    <component base="shorttoploops"/>
  </outline>
</glyph>
<glyph name="szee-ethiopic" format="2">
  <advance width="682"/>
  <unicode hex="1224"/>
  <note>
uni1224
</note>
  <anchor x="357" y="716" name="top"/>
  <outline>
    <contour>
      <point x="457" y="0" type="curve"/>
      <point x="547" y="0" type="line" smooth="yes"/>
      <point x="621" y="0"/>
      <point x="662" y="52"/>
      <point x="662" y="122" type="curve" smooth="yes"/>
      <point x="662" y="185"/>
      <point x="631" y="230"/>
      <point x="558" y="230" type="curve" smooth="yes"/>
      <point x="492" y="230" type="line"/>
      <point x="577" y="489" type="line"/>
      <point x="533" y="449" type="line"/>
      <point x="432" y="129" type="line" smooth="yes"/>
      <point x="424" y="104"/>
      <point x="421" y="83"/>
      <point x="421" y="66" type="curve" smooth="yes"/>
      <point x="421" y="30"/>
      <point x="436" y="10"/>
    </contour>
    <contour>
      <point x="485" y="22" type="line" smooth="yes"/>
      <point x="466" y="22"/>
      <point x="449" y="35"/>
      <point x="449" y="69" type="curve" smooth="yes"/>
      <point x="449" y="85"/>
      <point x="452" y="106"/>
      <point x="460" y="132" type="curve" smooth="yes"/>
      <point x="484" y="207" type="line"/>
      <point x="553" y="207" type="line" smooth="yes"/>
      <point x="612" y="207"/>
      <point x="635" y="172"/>
      <point x="635" y="122" type="curve" smooth="yes"/>
      <point x="635" y="68"/>
      <point x="608" y="22"/>
      <point x="542" y="22" type="curve" smooth="yes"/>
    </contour>
    <component base="shorttoploops"/>
  </outline>
</glyph>
<glyph name="sze-ethiopic" format="2">
  <advance width="692"/>
  <unicode hex="1225"/>
  <note>
uni1225
</note>
  <anchor x="332" y="716" name="top"/>
  <outline>
    <contour>
      <point x="41" y="-3" type="curve"/>
      <point x="88" y="2" type="line"/>
      <point x="88" y="22" type="line"/>
      <point x="72" y="22"/>
      <point x="63" y="32"/>
      <point x="63" y="52" type="curve" smooth="yes"/>
      <point x="63" y="66"/>
      <point x="67" y="85"/>
      <point x="75" y="110" type="curve" smooth="yes"/>
      <point x="169" y="396" type="line"/>
      <point x="155" y="437" type="line"/>
      <point x="48" y="114" type="line" smooth="yes"/>
      <point x="36" y="78"/>
      <point x="32" y="52"/>
      <point x="32" y="32" type="curve" smooth="yes"/>
      <point x="32" y="16"/>
      <point x="35" y="4"/>
    </contour>
    <component base="shorttoploops" xOffset="46"/>
  </outline>
</glyph>
<glyph name="szo-ethiopic" format="2">
  <advance width="646"/>
  <unicode hex="1226"/>
  <note>
uni1226
</note>
  <anchor x="319" y="716" name="top"/>
  <outline>
    <contour>
      <point x="220" y="-3" type="curve"/>
      <point x="267" y="2" type="line"/>
      <point x="267" y="22" type="line"/>
      <point x="250" y="22"/>
      <point x="240" y="32"/>
      <point x="240" y="54" type="curve" smooth="yes"/>
      <point x="240" y="68"/>
      <point x="244" y="88"/>
      <point x="251" y="111" type="curve" smooth="yes"/>
      <point x="359" y="464" type="line"/>
      <point x="345" y="464" type="line"/>
      <point x="293" y="347" type="line"/>
      <point x="225" y="114" type="line" smooth="yes"/>
      <point x="215" y="81"/>
      <point x="210" y="56"/>
      <point x="210" y="35" type="curve" smooth="yes"/>
      <point x="210" y="17"/>
      <point x="214" y="4"/>
    </contour>
    <component base="shorttoploops"/>
  </outline>
</glyph>
<glyph name="szwa-ethiopic" format="2">
  <advance width="657"/>
  <unicode hex="1227"/>
  <note>
uni1227
</note>
  <anchor x="344" y="716" name="top"/>
  <outline>
    <contour>
      <point x="437" y="5" type="curve"/>
      <point x="484" y="5" type="line"/>
      <point x="484" y="25" type="line"/>
      <point x="467" y="25"/>
      <point x="458" y="34"/>
      <point x="458" y="55" type="curve" smooth="yes"/>
      <point x="458" y="68"/>
      <point x="462" y="86"/>
      <point x="469" y="110" type="curve" smooth="yes"/>
      <point x="575" y="473" type="line" smooth="yes"/>
      <point x="582" y="498"/>
      <point x="587" y="523"/>
      <point x="587" y="540" type="curve" smooth="yes"/>
      <point x="587" y="628" type="line" smooth="yes"/>
      <point x="587" y="670"/>
      <point x="581" y="700"/>
      <point x="573" y="716" type="curve"/>
      <point x="521" y="712" type="line"/>
      <point x="521" y="692" type="line"/>
      <point x="543" y="692"/>
      <point x="559" y="682"/>
      <point x="559" y="626" type="curve" smooth="yes"/>
      <point x="559" y="549" type="line" smooth="yes"/>
      <point x="559" y="492"/>
      <point x="538" y="410"/>
      <point x="456" y="410" type="curve" smooth="yes"/>
      <point x="388" y="410"/>
      <point x="354" y="461"/>
      <point x="354" y="544" type="curve" smooth="yes"/>
      <point x="354" y="628" type="line" smooth="yes"/>
      <point x="354" y="670"/>
      <point x="348" y="700"/>
      <point x="340" y="716" type="curve"/>
      <point x="288" y="712" type="line"/>
      <point x="288" y="692" type="line"/>
      <point x="310" y="692"/>
      <point x="326" y="682"/>
      <point x="326" y="626" type="curve" smooth="yes"/>
      <point x="326" y="516" type="line" smooth="yes"/>
      <point x="326" y="391"/>
      <point x="293" y="317"/>
      <point x="212" y="317" type="curve" smooth="yes"/>
      <point x="149" y="317"/>
      <point x="118" y="364"/>
      <point x="118" y="476" type="curve" smooth="yes"/>
      <point x="118" y="527"/>
      <point x="118" y="577"/>
      <point x="118" y="628" type="curve" smooth="yes"/>
      <point x="118" y="676"/>
      <point x="113" y="700"/>
      <point x="104" y="716" type="curve"/>
      <point x="52" y="712" type="line"/>
      <point x="52" y="692" type="line"/>
      <point x="75" y="692"/>
      <point x="90" y="683"/>
      <point x="90" y="626" type="curve" smooth="yes"/>
      <point x="90" y="574"/>
      <point x="90" y="522"/>
      <point x="90" y="470" type="curve" smooth="yes"/>
      <point x="90" y="345"/>
      <point x="129" y="292"/>
      <point x="210" y="292" type="curve" smooth="yes"/>
      <point x="296" y="292"/>
      <point x="336" y="358"/>
      <point x="347" y="459" type="curve"/>
      <point x="364" y="409"/>
      <point x="399" y="386"/>
      <point x="455" y="386" type="curve" smooth="yes"/>
      <point x="486" y="386"/>
      <point x="509" y="395"/>
      <point x="528" y="408" type="curve"/>
      <point x="443" y="114" type="line" smooth="yes"/>
      <point x="433" y="80"/>
      <point x="428" y="55"/>
      <point x="428" y="37" type="curve" smooth="yes"/>
      <point x="428" y="21"/>
      <point x="431" y="12"/>
    </contour>
    <component base="footright" xOffset="212"/>
  </outline>
</glyph>
<glyph name="ru-ethiopic" format="2">
  <advance width="495"/>
  <unicode hex="1229"/>
  <note>
uni1229
</note>
  <anchor x="248" y="716" name="top"/>
  <outline>
    <contour>
      <point x="191" y="203" type="curve" smooth="yes"/>
      <point x="331" y="203" type="line"/>
      <point x="331" y="228" type="line"/>
      <point x="186" y="228" type="line" smooth="yes"/>
      <point x="111" y="228"/>
      <point x="48" y="264"/>
      <point x="48" y="343" type="curve" smooth="yes"/>
      <point x="48" y="424"/>
      <point x="96" y="457"/>
      <point x="174" y="509" type="curve" smooth="yes"/>
      <point x="250" y="559"/>
      <point x="294" y="584"/>
      <point x="294" y="653" type="curve" smooth="yes"/>
      <point x="294" y="686"/>
      <point x="285" y="703"/>
      <point x="274" y="716" type="curve"/>
      <point x="215" y="714" type="line"/>
      <point x="215" y="694" type="line"/>
      <point x="244" y="694"/>
      <point x="266" y="680"/>
      <point x="266" y="649" type="curve" smooth="yes"/>
      <point x="266" y="604"/>
      <point x="229" y="576"/>
      <point x="159" y="530" type="curve" smooth="yes"/>
      <point x="80" y="478"/>
      <point x="22" y="436"/>
      <point x="22" y="342" type="curve" smooth="yes"/>
      <point x="22" y="248"/>
      <point x="86" y="203"/>
    </contour>
    <contour>
      <point x="266" y="-3" type="curve"/>
      <point x="319" y="2" type="line"/>
      <point x="319" y="21" type="line"/>
      <point x="295" y="21"/>
      <point x="279" y="31"/>
      <point x="279" y="87" type="curve" smooth="yes"/>
      <point x="279" y="214" type="line"/>
      <point x="251" y="214" type="line"/>
      <point x="251" y="85" type="line" smooth="yes"/>
      <point x="251" y="43"/>
      <point x="257" y="13"/>
    </contour>
    <component base="rightsingleflag" xOffset="282" yOffset="-159"/>
  </outline>
</glyph>
<glyph name="ri-ethiopic" format="2">
  <advance width="426"/>
  <unicode hex="122A"/>
  <note>
uni122A
</note>
  <anchor x="221" y="716" name="top"/>
  <outline>
    <contour>
      <point x="215" y="0" type="curve" smooth="yes"/>
      <point x="343" y="0"/>
      <point x="395" y="87"/>
      <point x="395" y="181" type="curve" smooth="yes"/>
      <point x="395" y="216"/>
      <point x="389" y="240"/>
      <point x="382" y="254" type="curve"/>
      <point x="333" y="250" type="line"/>
      <point x="333" y="230" type="line"/>
      <point x="360" y="230"/>
      <point x="368" y="214"/>
      <point x="368" y="176" type="curve" smooth="yes"/>
      <point x="368" y="88"/>
      <point x="321" y="25"/>
      <point x="217" y="25" type="curve" smooth="yes"/>
      <point x="128" y="25"/>
      <point x="73" y="72"/>
      <point x="73" y="186" type="curve" smooth="yes"/>
      <point x="73" y="299"/>
      <point x="125" y="355"/>
      <point x="204" y="433" type="curve" smooth="yes"/>
      <point x="280" y="508"/>
      <point x="328" y="566"/>
      <point x="328" y="643" type="curve" smooth="yes"/>
      <point x="328" y="684"/>
      <point x="319" y="703"/>
      <point x="309" y="716" type="curve"/>
      <point x="261" y="712" type="line"/>
      <point x="261" y="692" type="line"/>
      <point x="288" y="692"/>
      <point x="300" y="679"/>
      <point x="300" y="637" type="curve" smooth="yes"/>
      <point x="300" y="572"/>
      <point x="261" y="526"/>
      <point x="182" y="447" type="curve" smooth="yes"/>
      <point x="96" y="361"/>
      <point x="47" y="302"/>
      <point x="47" y="187" type="curve" smooth="yes"/>
      <point x="47" y="55"/>
      <point x="114" y="0"/>
    </contour>
  </outline>
</glyph>
<glyph name="raa-ethiopic" format="2">
  <advance width="502"/>
  <unicode hex="122B"/>
  <note>
uni122B
</note>
  <anchor x="264" y="716" name="top"/>
  <outline>
    <contour>
      <point x="233" y="0" type="curve" smooth="yes"/>
      <point x="274" y="0" type="line"/>
      <point x="274" y="26" type="line" smooth="yes"/>
      <point x="274" y="181"/>
      <point x="319" y="261"/>
      <point x="411" y="261" type="curve" smooth="yes"/>
      <point x="433" y="261" type="line"/>
      <point x="432" y="256"/>
      <point x="432" y="250"/>
      <point x="432" y="246" type="curve" smooth="yes"/>
      <point x="432" y="222"/>
      <point x="446" y="204"/>
      <point x="467" y="204" type="curve" smooth="yes"/>
      <point x="474" y="204"/>
      <point x="478" y="205"/>
      <point x="482" y="207" type="curve"/>
      <point x="473" y="217"/>
      <point x="469" y="235"/>
      <point x="469" y="251" type="curve" smooth="yes"/>
      <point x="469" y="267"/>
      <point x="472" y="277"/>
      <point x="475" y="286" type="curve"/>
      <point x="411" y="286" type="line" smooth="yes"/>
      <point x="306" y="286"/>
      <point x="248" y="196"/>
      <point x="248" y="25" type="curve"/>
      <point x="233" y="25" type="line" smooth="yes"/>
      <point x="142" y="25"/>
      <point x="73" y="70"/>
      <point x="73" y="186" type="curve" smooth="yes"/>
      <point x="73" y="299"/>
      <point x="125" y="355"/>
      <point x="204" y="433" type="curve" smooth="yes"/>
      <point x="280" y="508"/>
      <point x="328" y="566"/>
      <point x="328" y="643" type="curve" smooth="yes"/>
      <point x="328" y="684"/>
      <point x="319" y="703"/>
      <point x="309" y="716" type="curve"/>
      <point x="261" y="712" type="line"/>
      <point x="261" y="692" type="line"/>
      <point x="288" y="692"/>
      <point x="300" y="679"/>
      <point x="300" y="637" type="curve" smooth="yes"/>
      <point x="300" y="572"/>
      <point x="261" y="525"/>
      <point x="182" y="446" type="curve" smooth="yes"/>
      <point x="96" y="360"/>
      <point x="47" y="302"/>
      <point x="47" y="187" type="curve" smooth="yes"/>
      <point x="47" y="55"/>
      <point x="127" y="0"/>
    </contour>
  </outline>
</glyph>
<glyph name="ree-ethiopic" format="2">
	<advance width="485"/>
	<unicode hex="122C"/>
	<anchor x="256" y="716" name="top"/>
	<note>
		uni122C
	</note>
	<outline>
		<contour>
			<point x="246" y="0" type="line"/>
			<point x="347" y="0" type="line"/>
			<point x="347" y="7" type="line"/>
			<point x="313" y="25" type="line"/>
			<point x="246" y="25" type="line"/>
		</contour>
		<component base="nose"/>
		<component base="ballbig" xOffset="221" yOffset="-171"/>
	</outline>
</glyph>
<glyph name="re-ethiopic" format="2">
  <advance width="420"/>
  <unicode hex="122D"/>
  <note>
uni122D
</note>
  <anchor x="241" y="714" name="top"/>
  <outline>
    <contour>
      <point x="401" y="-34" type="curve" smooth="yes"/>
      <point x="407" y="-34"/>
      <point x="411" y="-33"/>
      <point x="415" y="-31" type="curve"/>
      <point x="407" y="-21"/>
      <point x="403" y="-4"/>
      <point x="403" y="12" type="curve" smooth="yes"/>
      <point x="403" y="28"/>
      <point x="407" y="45"/>
      <point x="415" y="55" type="curve"/>
      <point x="411" y="57"/>
      <point x="407" y="58"/>
      <point x="401" y="58" type="curve" smooth="yes"/>
      <point x="382" y="58"/>
      <point x="370" y="44"/>
      <point x="367" y="25" type="curve"/>
      <point x="255" y="25" type="line" smooth="yes"/>
      <point x="139" y="25"/>
      <point x="89" y="82"/>
      <point x="89" y="221" type="curve" smooth="yes"/>
      <point x="89" y="312" type="line" smooth="yes"/>
      <point x="89" y="597"/>
      <point x="173" y="689"/>
      <point x="302" y="689" type="curve" smooth="yes"/>
      <point x="370" y="689" type="line"/>
      <point x="369" y="684"/>
      <point x="369" y="678"/>
      <point x="369" y="674" type="curve" smooth="yes"/>
      <point x="369" y="650"/>
      <point x="383" y="632"/>
      <point x="404" y="632" type="curve" smooth="yes"/>
      <point x="411" y="632"/>
      <point x="415" y="633"/>
      <point x="419" y="635" type="curve"/>
      <point x="410" y="645"/>
      <point x="406" y="663"/>
      <point x="406" y="679" type="curve" smooth="yes"/>
      <point x="406" y="695"/>
      <point x="409" y="705"/>
      <point x="412" y="714" type="curve"/>
      <point x="311" y="714" type="line" smooth="yes"/>
      <point x="149" y="714"/>
      <point x="63" y="605"/>
      <point x="63" y="316" type="curve" smooth="yes"/>
      <point x="63" y="217" type="line" smooth="yes"/>
      <point x="63" y="62"/>
      <point x="124" y="0"/>
      <point x="251" y="0" type="curve" smooth="yes"/>
      <point x="367" y="0" type="line"/>
      <point x="370" y="-20"/>
      <point x="382" y="-34"/>
    </contour>
  </outline>
</glyph>
<glyph name="ro-ethiopic" format="2">
  <advance width="482"/>
  <unicode hex="122E"/>
  <note>
uni122E
</note>
  <anchor x="262" y="714" name="top"/>
  <outline>
    <contour>
      <point x="405" y="-34" type="curve" smooth="yes"/>
      <point x="411" y="-34"/>
      <point x="415" y="-33"/>
      <point x="419" y="-31" type="curve"/>
      <point x="411" y="-21"/>
      <point x="407" y="-4"/>
      <point x="407" y="12" type="curve" smooth="yes"/>
      <point x="407" y="28"/>
      <point x="411" y="45"/>
      <point x="419" y="55" type="curve"/>
      <point x="415" y="57"/>
      <point x="411" y="58"/>
      <point x="405" y="58" type="curve" smooth="yes"/>
      <point x="386" y="58"/>
      <point x="374" y="44"/>
      <point x="371" y="25" type="curve"/>
      <point x="255" y="25" type="line" smooth="yes"/>
      <point x="139" y="25"/>
      <point x="89" y="82"/>
      <point x="89" y="221" type="curve" smooth="yes"/>
      <point x="89" y="312" type="line" smooth="yes"/>
      <point x="89" y="597"/>
      <point x="173" y="689"/>
      <point x="302" y="689" type="curve" smooth="yes"/>
      <point x="327" y="689" type="line"/>
      <point x="377" y="714" type="line"/>
      <point x="311" y="714" type="line" smooth="yes"/>
      <point x="149" y="714"/>
      <point x="63" y="605"/>
      <point x="63" y="316" type="curve" smooth="yes"/>
      <point x="63" y="217" type="line" smooth="yes"/>
      <point x="63" y="62"/>
      <point x="124" y="0"/>
      <point x="251" y="0" type="curve" smooth="yes"/>
      <point x="371" y="0" type="line"/>
      <point x="374" y="-20"/>
      <point x="386" y="-34"/>
    </contour>
    <component base="ballsmall" xOffset="247" yOffset="308"/>
  </outline>
</glyph>
<glyph name="rwa-ethiopic" format="2">
  <advance width="512"/>
  <unicode hex="122F"/>
  <note>
uni122F
</note>
  <anchor x="269" y="771" name="top"/>
  <outline>
    <contour>
      <point x="233" y="0" type="curve" smooth="yes"/>
      <point x="274" y="0" type="line"/>
      <point x="274" y="26" type="line" smooth="yes"/>
      <point x="274" y="181"/>
      <point x="319" y="261"/>
      <point x="411" y="261" type="curve" smooth="yes"/>
      <point x="433" y="261" type="line"/>
      <point x="432" y="256"/>
      <point x="432" y="250"/>
      <point x="432" y="246" type="curve" smooth="yes"/>
      <point x="432" y="222"/>
      <point x="446" y="204"/>
      <point x="467" y="204" type="curve" smooth="yes"/>
      <point x="474" y="204"/>
      <point x="478" y="205"/>
      <point x="482" y="207" type="curve"/>
      <point x="473" y="217"/>
      <point x="469" y="235"/>
      <point x="469" y="251" type="curve" smooth="yes"/>
      <point x="469" y="267"/>
      <point x="472" y="277"/>
      <point x="475" y="286" type="curve"/>
      <point x="411" y="286" type="line" smooth="yes"/>
      <point x="306" y="286"/>
      <point x="248" y="196"/>
      <point x="248" y="25" type="curve"/>
      <point x="233" y="25" type="line" smooth="yes"/>
      <point x="142" y="25"/>
      <point x="73" y="70"/>
      <point x="73" y="186" type="curve" smooth="yes"/>
      <point x="73" y="299"/>
      <point x="125" y="355"/>
      <point x="204" y="433" type="curve" smooth="yes"/>
      <point x="280" y="508"/>
      <point x="328" y="563"/>
      <point x="328" y="640" type="curve" smooth="yes"/>
      <point x="328" y="681"/>
      <point x="319" y="696"/>
      <point x="309" y="709" type="curve"/>
      <point x="261" y="709" type="line"/>
      <point x="261" y="689" type="line"/>
      <point x="288" y="689"/>
      <point x="300" y="676"/>
      <point x="300" y="634" type="curve" smooth="yes"/>
      <point x="300" y="569"/>
      <point x="261" y="525"/>
      <point x="182" y="446" type="curve" smooth="yes"/>
      <point x="96" y="360"/>
      <point x="47" y="302"/>
      <point x="47" y="187" type="curve" smooth="yes"/>
      <point x="47" y="55"/>
      <point x="127" y="0"/>
    </contour>
    <contour>
      <point x="477" y="771" type="curve" smooth="yes"/>
      <point x="457" y="771"/>
      <point x="444" y="753"/>
      <point x="444" y="729" type="curve" smooth="yes"/>
      <point x="444" y="725"/>
      <point x="444" y="719"/>
      <point x="445" y="714" type="curve"/>
      <point x="133" y="714" type="line"/>
      <point x="134" y="719"/>
      <point x="134" y="725"/>
      <point x="134" y="729" type="curve" smooth="yes"/>
      <point x="134" y="753"/>
      <point x="122" y="771"/>
      <point x="102" y="771" type="curve" smooth="yes"/>
      <point x="95" y="771"/>
      <point x="91" y="770"/>
      <point x="87" y="768" type="curve"/>
      <point x="95" y="758"/>
      <point x="99" y="740"/>
      <point x="99" y="724" type="curve" smooth="yes"/>
      <point x="99" y="708"/>
      <point x="96" y="698"/>
      <point x="94" y="689" type="curve"/>
      <point x="485" y="689" type="line"/>
      <point x="482" y="698"/>
      <point x="480" y="708"/>
      <point x="480" y="724" type="curve" smooth="yes"/>
      <point x="480" y="740"/>
      <point x="484" y="758"/>
      <point x="492" y="768" type="curve"/>
      <point x="488" y="770"/>
      <point x="483" y="771"/>
    </contour>
  </outline>
</glyph>
<glyph name="sa-ethiopic" format="2">
	<advance width="481"/>
	<unicode hex="1230"/>
	<anchor x="250" y="762" name="top"/>
	<note>
		uni1230
	</note>
	<outline>
		<contour>
			<point x="237" y="588" type="line"/>
			<point x="265" y="588" type="line"/>
			<point x="265" y="674" type="line" smooth="yes"/>
			<point x="265" y="716"/>
			<point x="259" y="746"/>
			<point x="251" y="762" type="curve"/>
			<point x="198" y="758" type="line"/>
			<point x="198" y="738" type="line"/>
			<point x="221" y="738"/>
			<point x="237" y="728"/>
			<point x="237" y="672" type="curve" smooth="yes"/>
		</contour>
		<component base="shortnarch" xOffset="-1"/>
	</outline>
</glyph>
<glyph name="si-ethiopic" format="2">
  <advance width="578"/>
  <unicode hex="1232"/>
  <note>
uni1232
</note>
  <anchor x="318" y="762" name="top"/>
  <outline>
    <contour>
      <point x="92" y="-3" type="curve"/>
      <point x="145" y="2" type="line"/>
      <point x="145" y="21" type="line"/>
      <point x="122" y="21"/>
      <point x="106" y="31"/>
      <point x="106" y="87" type="curve" smooth="yes"/>
      <point x="106" y="298" type="line" smooth="yes"/>
      <point x="106" y="483"/>
      <point x="160" y="578"/>
      <point x="251" y="578" type="curve" smooth="yes"/>
      <point x="323" y="578"/>
      <point x="358" y="518"/>
      <point x="358" y="393" type="curve" smooth="yes"/>
      <point x="358" y="309"/>
      <point x="356" y="177"/>
      <point x="356" y="85" type="curve" smooth="yes"/>
      <point x="356" y="37"/>
      <point x="361" y="16"/>
      <point x="370" y="0" type="curve"/>
      <point x="423" y="0" type="line"/>
      <point x="423" y="25" type="line"/>
      <point x="400" y="25"/>
      <point x="384" y="33"/>
      <point x="384" y="87" type="curve" smooth="yes"/>
      <point x="384" y="163"/>
      <point x="386" y="324"/>
      <point x="386" y="395" type="curve" smooth="yes"/>
      <point x="386" y="540"/>
      <point x="343" y="602"/>
      <point x="252" y="602" type="curve" smooth="yes"/>
      <point x="137" y="602"/>
      <point x="78" y="480"/>
      <point x="78" y="304" type="curve" smooth="yes"/>
      <point x="78" y="85" type="line" smooth="yes"/>
      <point x="78" y="43"/>
      <point x="84" y="13"/>
    </contour>
    <contour>
      <point x="237" y="588" type="line"/>
      <point x="265" y="588" type="line"/>
      <point x="265" y="674" type="line" smooth="yes"/>
      <point x="265" y="716"/>
      <point x="259" y="746"/>
      <point x="251" y="762" type="curve"/>
      <point x="198" y="758" type="line"/>
      <point x="198" y="738" type="line"/>
      <point x="221" y="738"/>
      <point x="237" y="728"/>
      <point x="237" y="672" type="curve" smooth="yes"/>
    </contour>
    <component base="rightdoubleflag" xOffset="385"/>
  </outline>
</glyph>
<glyph name="saa-ethiopic" format="2">
  <advance width="458"/>
  <unicode hex="1233"/>
  <note>
uni1233
</note>
  <anchor x="227" y="762" name="top"/>
  <outline>
    <contour>
      <point x="215" y="591" type="line"/>
      <point x="243" y="591" type="line"/>
      <point x="243" y="695" type="line" smooth="yes"/>
      <point x="243" y="733"/>
      <point x="237" y="753"/>
      <point x="225" y="762" type="curve"/>
      <point x="180" y="758" type="line"/>
      <point x="180" y="738" type="line"/>
      <point x="204" y="738"/>
      <point x="215" y="728"/>
      <point x="215" y="686" type="curve" smooth="yes"/>
    </contour>
    <component base="baashort"/>
  </outline>
</glyph>
<glyph name="see-ethiopic" format="2">
  <advance width="605"/>
  <unicode hex="1234"/>
  <note>
uni1234
</note>
  <anchor x="331" y="762" name="top"/>
  <outline>
    <contour>
      <point x="92" y="-3" type="curve"/>
      <point x="145" y="2" type="line"/>
      <point x="145" y="21" type="line"/>
      <point x="122" y="21"/>
      <point x="106" y="31"/>
      <point x="106" y="87" type="curve" smooth="yes"/>
      <point x="106" y="298" type="line" smooth="yes"/>
      <point x="106" y="483"/>
      <point x="160" y="578"/>
      <point x="251" y="578" type="curve" smooth="yes"/>
      <point x="323" y="578"/>
      <point x="358" y="518"/>
      <point x="358" y="393" type="curve" smooth="yes"/>
      <point x="358" y="317"/>
      <point x="356" y="169"/>
      <point x="356" y="107" type="curve" smooth="yes"/>
      <point x="356" y="44"/>
      <point x="383" y="12"/>
      <point x="429" y="0" type="curve"/>
      <point x="469" y="0" type="line" smooth="yes"/>
      <point x="544" y="0"/>
      <point x="585" y="52"/>
      <point x="585" y="122" type="curve" smooth="yes"/>
      <point x="585" y="185"/>
      <point x="553" y="230"/>
      <point x="480" y="230" type="curve" smooth="yes"/>
      <point x="384" y="230" type="line"/>
      <point x="384" y="259"/>
      <point x="386" y="354"/>
      <point x="386" y="395" type="curve" smooth="yes"/>
      <point x="386" y="537"/>
      <point x="345" y="600"/>
      <point x="259" y="602" type="curve"/>
      <point x="259" y="674" type="line" smooth="yes"/>
      <point x="259" y="716"/>
      <point x="253" y="746"/>
      <point x="244" y="762" type="curve"/>
      <point x="192" y="758" type="line"/>
      <point x="192" y="738" type="line"/>
      <point x="215" y="738"/>
      <point x="231" y="728"/>
      <point x="231" y="672" type="curve" smooth="yes"/>
      <point x="231" y="601" type="line"/>
      <point x="129" y="589"/>
      <point x="78" y="471"/>
      <point x="78" y="304" type="curve" smooth="yes"/>
      <point x="78" y="85" type="line" smooth="yes"/>
      <point x="78" y="43"/>
      <point x="84" y="13"/>
    </contour>
    <contour>
      <point x="466" y="22" type="curve" smooth="yes"/>
      <point x="405" y="22"/>
      <point x="384" y="58"/>
      <point x="384" y="106" type="curve" smooth="yes"/>
      <point x="384" y="207" type="line"/>
      <point x="475" y="207" type="line" smooth="yes"/>
      <point x="534" y="207"/>
      <point x="557" y="172"/>
      <point x="557" y="122" type="curve" smooth="yes"/>
      <point x="557" y="68"/>
      <point x="531" y="22"/>
    </contour>
  </outline>
</glyph>
<glyph name="se-ethiopic" format="2">
  <advance width="481"/>
  <unicode hex="1235"/>
  <note>
uni1235
</note>
  <anchor x="250" y="762" name="top"/>
  <outline>
    <contour>
      <point x="237" y="588" type="line"/>
      <point x="264" y="588" type="line"/>
      <point x="234" y="672" type="line" smooth="yes"/>
      <point x="228" y="689"/>
      <point x="225" y="703"/>
      <point x="225" y="714" type="curve" smooth="yes"/>
      <point x="225" y="731"/>
      <point x="234" y="741"/>
      <point x="253" y="742" type="curve"/>
      <point x="253" y="762" type="line"/>
      <point x="203" y="759" type="line"/>
      <point x="198" y="751"/>
      <point x="195" y="740"/>
      <point x="195" y="726" type="curve" smooth="yes"/>
      <point x="195" y="712"/>
      <point x="198" y="695"/>
      <point x="206" y="674" type="curve" smooth="yes"/>
    </contour>
    <component base="shortnarch" xOffset="-1"/>
  </outline>
</glyph>
<glyph name="so-ethiopic" format="2">
  <advance width="449"/>
  <unicode hex="1236"/>
  <note>
uni1236
</note>
  <anchor x="251" y="762" name="top"/>
  <outline>
    <contour>
      <point x="227" y="591" type="line"/>
      <point x="255" y="591" type="line"/>
      <point x="255" y="695" type="line" smooth="yes"/>
      <point x="255" y="733"/>
      <point x="249" y="753"/>
      <point x="237" y="762" type="curve"/>
      <point x="192" y="758" type="line"/>
      <point x="192" y="738" type="line"/>
      <point x="216" y="738"/>
      <point x="227" y="728"/>
      <point x="227" y="686" type="curve" smooth="yes"/>
    </contour>
    <component base="boshort" xOffset="-1"/>
  </outline>
</glyph>
<glyph name="swa-ethiopic" format="2">
  <advance width="540"/>
  <unicode hex="1237"/>
  <note>
uni1237
</note>
  <anchor x="270" y="762" name="top"/>
  <outline>
    <contour>
      <point x="357" y="2" type="curve"/>
      <point x="410" y="2" type="line"/>
      <point x="410" y="25" type="line"/>
      <point x="387" y="25"/>
      <point x="371" y="34"/>
      <point x="371" y="88" type="curve" smooth="yes"/>
      <point x="371" y="164"/>
      <point x="373" y="344"/>
      <point x="373" y="415" type="curve" smooth="yes"/>
      <point x="373" y="553"/>
      <point x="328" y="602"/>
      <point x="239" y="602" type="curve" smooth="yes"/>
      <point x="124" y="602"/>
      <point x="65" y="500"/>
      <point x="65" y="364" type="curve" smooth="yes"/>
      <point x="65" y="326" type="line" smooth="yes"/>
      <point x="65" y="284"/>
      <point x="71" y="254"/>
      <point x="79" y="238" type="curve"/>
      <point x="132" y="242" type="line"/>
      <point x="132" y="262" type="line"/>
      <point x="109" y="262"/>
      <point x="93" y="272"/>
      <point x="93" y="328" type="curve" smooth="yes"/>
      <point x="93" y="358" type="line" smooth="yes"/>
      <point x="93" y="503"/>
      <point x="146" y="578"/>
      <point x="237" y="578" type="curve" smooth="yes"/>
      <point x="310" y="578"/>
      <point x="345" y="536"/>
      <point x="345" y="413" type="curve" smooth="yes"/>
      <point x="345" y="329"/>
      <point x="343" y="178"/>
      <point x="343" y="86" type="curve" smooth="yes"/>
      <point x="343" y="38"/>
      <point x="348" y="18"/>
    </contour>
    <contour>
      <point x="226" y="591" type="line"/>
      <point x="254" y="591" type="line"/>
      <point x="254" y="695" type="line" smooth="yes"/>
      <point x="254" y="733"/>
      <point x="248" y="753"/>
      <point x="236" y="762" type="curve"/>
      <point x="191" y="758" type="line"/>
      <point x="191" y="738" type="line"/>
      <point x="215" y="738"/>
      <point x="226" y="728"/>
      <point x="226" y="686" type="curve" smooth="yes"/>
    </contour>
    <component base="footlong"/>
  </outline>
</glyph>
<glyph name="sha-ethiopic" format="2">
	<advance width="475"/>
	<unicode hex="1238"/>
	<anchor x="240" y="794" name="top"/>
	<note>
		uni1238
	</note>
	<outline>
		<contour>
			<point x="232" y="591" type="line"/>
			<point x="259" y="591" type="line"/>
			<point x="259" y="751" type="line"/>
			<point x="232" y="751" type="line"/>
		</contour>
		<component base="shortnarch" xOffset="-4"/>
		<component base="bonemiddle" xOffset="40" yOffset="-12"/>
	</outline>
</glyph>
<glyph name="shi-ethiopic" format="2">
  <advance width="570"/>
  <unicode hex="123A"/>
  <note>
uni123A
</note>
  <anchor x="305" y="794" name="top"/>
  <outline>
    <contour>
      <point x="88" y="-3" type="curve"/>
      <point x="141" y="2" type="line"/>
      <point x="141" y="21" type="line"/>
      <point x="118" y="21"/>
      <point x="102" y="31"/>
      <point x="102" y="87" type="curve" smooth="yes"/>
      <point x="102" y="298" type="line" smooth="yes"/>
      <point x="102" y="483"/>
      <point x="156" y="578"/>
      <point x="247" y="578" type="curve" smooth="yes"/>
      <point x="319" y="578"/>
      <point x="354" y="518"/>
      <point x="354" y="393" type="curve" smooth="yes"/>
      <point x="354" y="309"/>
      <point x="352" y="177"/>
      <point x="352" y="85" type="curve" smooth="yes"/>
      <point x="352" y="37"/>
      <point x="357" y="16"/>
      <point x="366" y="0" type="curve"/>
      <point x="419" y="0" type="line"/>
      <point x="419" y="25" type="line"/>
      <point x="396" y="25"/>
      <point x="380" y="34"/>
      <point x="380" y="87" type="curve" smooth="yes"/>
      <point x="380" y="163"/>
      <point x="382" y="324"/>
      <point x="382" y="395" type="curve" smooth="yes"/>
      <point x="382" y="540"/>
      <point x="339" y="602"/>
      <point x="248" y="602" type="curve" smooth="yes"/>
      <point x="133" y="602"/>
      <point x="74" y="480"/>
      <point x="74" y="304" type="curve" smooth="yes"/>
      <point x="74" y="85" type="line" smooth="yes"/>
      <point x="74" y="43"/>
      <point x="80" y="13"/>
    </contour>
    <contour>
      <point x="536" y="-34" type="curve" smooth="yes"/>
      <point x="542" y="-34"/>
      <point x="546" y="-33"/>
      <point x="550" y="-31" type="curve"/>
      <point x="542" y="-21"/>
      <point x="538" y="-4"/>
      <point x="538" y="12" type="curve" smooth="yes"/>
      <point x="538" y="28"/>
      <point x="542" y="45"/>
      <point x="550" y="55" type="curve"/>
      <point x="546" y="57"/>
      <point x="542" y="58"/>
      <point x="536" y="58" type="curve" smooth="yes"/>
      <point x="517" y="58"/>
      <point x="505" y="44"/>
      <point x="502" y="25" type="curve"/>
      <point x="367" y="25" type="line"/>
      <point x="367" y="0" type="line"/>
      <point x="502" y="0" type="line"/>
      <point x="505" y="-20"/>
      <point x="517" y="-34"/>
    </contour>
    <contour>
      <point x="231" y="591" type="line"/>
      <point x="258" y="591" type="line"/>
      <point x="258" y="751" type="line"/>
      <point x="231" y="751" type="line"/>
    </contour>
    <component base="bonemiddle" xOffset="40" yOffset="-12"/>
  </outline>
</glyph>
<glyph name="shaa-ethiopic" format="2">
	<advance width="464"/>
	<unicode hex="123B"/>
	<anchor x="229" y="794" name="top"/>
	<note>
		uni123B
	</note>
	<outline>
		<contour>
			<point x="219" y="591" type="line"/>
			<point x="246" y="591" type="line"/>
			<point x="246" y="751" type="line"/>
			<point x="219" y="751" type="line"/>
		</contour>
		<component base="bonemiddle" xOffset="30" yOffset="-12"/>
		<component base="baashort" xOffset="8"/>
	</outline>
</glyph>
<glyph name="shee-ethiopic" format="2">
  <advance width="591"/>
  <unicode hex="123C"/>
  <note>
uni123C
</note>
  <anchor x="315" y="794" name="top"/>
  <outline>
    <contour>
      <point x="79" y="-3" type="curve"/>
      <point x="132" y="2" type="line"/>
      <point x="132" y="21" type="line"/>
      <point x="109" y="21"/>
      <point x="93" y="31"/>
      <point x="93" y="87" type="curve" smooth="yes"/>
      <point x="93" y="298" type="line" smooth="yes"/>
      <point x="93" y="483"/>
      <point x="147" y="578"/>
      <point x="238" y="578" type="curve" smooth="yes"/>
      <point x="310" y="578"/>
      <point x="345" y="518"/>
      <point x="345" y="393" type="curve" smooth="yes"/>
      <point x="345" y="345"/>
      <point x="344" y="282"/>
      <point x="344" y="219" type="curve"/>
      <point x="372" y="219" type="line"/>
      <point x="372" y="286"/>
      <point x="373" y="355"/>
      <point x="373" y="395" type="curve" smooth="yes"/>
      <point x="373" y="540"/>
      <point x="330" y="602"/>
      <point x="239" y="602" type="curve" smooth="yes"/>
      <point x="124" y="602"/>
      <point x="65" y="480"/>
      <point x="65" y="304" type="curve" smooth="yes"/>
      <point x="65" y="85" type="line" smooth="yes"/>
      <point x="65" y="43"/>
      <point x="71" y="13"/>
    </contour>
    <contour>
      <point x="226" y="591" type="line"/>
      <point x="253" y="591" type="line"/>
      <point x="253" y="751" type="line"/>
      <point x="226" y="751" type="line"/>
    </contour>
    <component base="bonemiddle" xOffset="40" yOffset="-12"/>
    <component base="baselinebowl" xOffset="306"/>
  </outline>
</glyph>
<glyph name="sho-ethiopic" format="2">
  <advance width="475"/>
  <unicode hex="123E"/>
  <note>
uni123E
</note>
  <anchor x="240" y="794" name="top"/>
  <outline>
    <contour>
      <point x="231" y="591" type="line"/>
      <point x="258" y="591" type="line"/>
      <point x="258" y="751" type="line"/>
      <point x="231" y="751" type="line"/>
    </contour>
    <component base="boshort" xOffset="-5"/>
    <component base="bonemiddle" xOffset="40" yOffset="-12"/>
  </outline>
</glyph>
<glyph name="shwa-ethiopic" format="2">
  <advance width="540"/>
  <unicode hex="123F"/>
  <note>
uni123F
</note>
  <anchor x="270" y="794" name="top"/>
  <outline>
    <contour>
      <point x="359" y="5" type="curve"/>
      <point x="412" y="5" type="line"/>
      <point x="412" y="25" type="line"/>
      <point x="389" y="25"/>
      <point x="373" y="34"/>
      <point x="373" y="88" type="curve" smooth="yes"/>
      <point x="373" y="164"/>
      <point x="375" y="344"/>
      <point x="375" y="415" type="curve" smooth="yes"/>
      <point x="375" y="553"/>
      <point x="330" y="602"/>
      <point x="241" y="602" type="curve" smooth="yes"/>
      <point x="126" y="602"/>
      <point x="67" y="500"/>
      <point x="67" y="364" type="curve" smooth="yes"/>
      <point x="67" y="326" type="line" smooth="yes"/>
      <point x="67" y="284"/>
      <point x="73" y="254"/>
      <point x="81" y="238" type="curve"/>
      <point x="134" y="242" type="line"/>
      <point x="134" y="262" type="line"/>
      <point x="111" y="262"/>
      <point x="95" y="272"/>
      <point x="95" y="328" type="curve" smooth="yes"/>
      <point x="95" y="358" type="line" smooth="yes"/>
      <point x="95" y="503"/>
      <point x="148" y="578"/>
      <point x="239" y="578" type="curve" smooth="yes"/>
      <point x="312" y="578"/>
      <point x="347" y="536"/>
      <point x="347" y="413" type="curve" smooth="yes"/>
      <point x="347" y="329"/>
      <point x="345" y="178"/>
      <point x="345" y="86" type="curve" smooth="yes"/>
      <point x="345" y="38"/>
      <point x="350" y="21"/>
    </contour>
    <contour>
      <point x="223" y="591" type="line"/>
      <point x="250" y="591" type="line"/>
      <point x="250" y="751" type="line"/>
      <point x="223" y="751" type="line"/>
    </contour>
    <component base="footlong"/>
    <component base="bonemiddle" xOffset="37" yOffset="-12"/>
  </outline>
</glyph>
<glyph name="qi-ethiopic" format="2">
  <advance width="455"/>
  <unicode hex="1242"/>
  <note>
uni1242
</note>
  <anchor x="227" y="716" name="top"/>
  <outline>
    <contour>
      <point x="230" y="0" type="curve"/>
      <point x="283" y="0" type="line"/>
      <point x="283" y="25" type="line"/>
      <point x="260" y="25"/>
      <point x="244" y="33"/>
      <point x="244" y="91" type="curve" smooth="yes"/>
      <point x="244" y="649" type="line" smooth="yes"/>
      <point x="244" y="687"/>
      <point x="238" y="707"/>
      <point x="226" y="716" type="curve"/>
      <point x="181" y="712" type="line"/>
      <point x="181" y="692" type="line"/>
      <point x="205" y="692"/>
      <point x="216" y="682"/>
      <point x="216" y="640" type="curve" smooth="yes"/>
      <point x="216" y="89" type="line" smooth="yes"/>
      <point x="216" y="41"/>
      <point x="221" y="16"/>
    </contour>
    <component base="rightdoubleflag" xOffset="241"/>
    <component base="midring" yOffset="1"/>
  </outline>
</glyph>
<glyph name="qee-ethiopic" format="2">
  <advance width="455"/>
  <unicode hex="1244"/>
  <note>
uni1244
</note>
  <anchor x="227" y="716" name="top"/>
  <outline>
    <contour>
      <point x="293" y="0" type="curve"/>
      <point x="330" y="0" type="line" smooth="yes"/>
      <point x="391" y="0"/>
      <point x="432" y="37"/>
      <point x="432" y="98" type="curve" smooth="yes"/>
      <point x="432" y="148"/>
      <point x="403" y="186"/>
      <point x="334" y="186" type="curve" smooth="yes"/>
      <point x="241" y="186" type="line"/>
      <point x="241" y="649" type="line" smooth="yes"/>
      <point x="241" y="687"/>
      <point x="235" y="707"/>
      <point x="223" y="716" type="curve"/>
      <point x="178" y="712" type="line"/>
      <point x="178" y="692" type="line"/>
      <point x="202" y="692"/>
      <point x="213" y="682"/>
      <point x="213" y="640" type="curve" smooth="yes"/>
      <point x="213" y="95" type="line" smooth="yes"/>
      <point x="213" y="42"/>
      <point x="238" y="9"/>
    </contour>
    <contour>
      <point x="320" y="22" type="curve" smooth="yes"/>
      <point x="261" y="22"/>
      <point x="241" y="50"/>
      <point x="241" y="99" type="curve" smooth="yes"/>
      <point x="241" y="162" type="line"/>
      <point x="329" y="162" type="line" smooth="yes"/>
      <point x="384" y="162"/>
      <point x="404" y="133"/>
      <point x="404" y="97" type="curve" smooth="yes"/>
      <point x="404" y="52"/>
      <point x="378" y="22"/>
    </contour>
    <component base="midringshort" yOffset="33"/>
  </outline>
</glyph>
<glyph name="qe-ethiopic" format="2">
  <advance width="455"/>
  <unicode hex="1245"/>
  <note>
uni1245
</note>
  <anchor x="227" y="771" name="top"/>
  <outline>
    <contour>
      <point x="230" y="-3" type="curve"/>
      <point x="274" y="2" type="line"/>
      <point x="274" y="22" type="line"/>
      <point x="251" y="22"/>
      <point x="240" y="31"/>
      <point x="240" y="75" type="curve" smooth="yes"/>
      <point x="240" y="654" type="line" smooth="yes"/>
      <point x="240" y="686"/>
      <point x="231" y="706"/>
      <point x="219" y="714" type="curve"/>
      <point x="90" y="714" type="line"/>
      <point x="91" y="719"/>
      <point x="91" y="725"/>
      <point x="91" y="729" type="curve" smooth="yes"/>
      <point x="91" y="753"/>
      <point x="78" y="771"/>
      <point x="58" y="771" type="curve" smooth="yes"/>
      <point x="52" y="771"/>
      <point x="47" y="770"/>
      <point x="43" y="768" type="curve"/>
      <point x="51" y="758"/>
      <point x="55" y="740"/>
      <point x="55" y="724" type="curve" smooth="yes"/>
      <point x="55" y="708"/>
      <point x="53" y="698"/>
      <point x="50" y="689" type="curve"/>
      <point x="181" y="689" type="line" smooth="yes"/>
      <point x="203" y="689"/>
      <point x="212" y="677"/>
      <point x="212" y="639" type="curve" smooth="yes"/>
      <point x="212" y="64" type="line" smooth="yes"/>
      <point x="212" y="26"/>
      <point x="218" y="7"/>
    </contour>
    <component base="midring"/>
  </outline>
</glyph>
<glyph name="qoa-ethiopic" format="2">
  <advance width="455"/>
  <unicode hex="1247"/>
  <note>
uni1247
</note>
  <anchor x="227" y="773" name="top"/>
  <outline>
    <contour>
      <point x="73" y="-34" type="curve" smooth="yes"/>
      <point x="91" y="-34"/>
      <point x="103" y="-20"/>
      <point x="106" y="0" type="curve"/>
      <point x="223" y="0" type="line"/>
      <point x="235" y="8"/>
      <point x="244" y="30"/>
      <point x="244" y="62" type="curve" smooth="yes"/>
      <point x="244" y="483" type="line" smooth="yes"/>
      <point x="244" y="530"/>
      <point x="256" y="541"/>
      <point x="270" y="554" type="curve" smooth="yes"/>
      <point x="289" y="572"/>
      <point x="332" y="599"/>
      <point x="332" y="667" type="curve" smooth="yes"/>
      <point x="332" y="727"/>
      <point x="297" y="773"/>
      <point x="234" y="773" type="curve" smooth="yes"/>
      <point x="172" y="773"/>
      <point x="133" y="728"/>
      <point x="133" y="662" type="curve" smooth="yes"/>
      <point x="133" y="594"/>
      <point x="174" y="562"/>
      <point x="234" y="552" type="curve"/>
      <point x="221" y="536"/>
      <point x="216" y="513"/>
      <point x="216" y="483" type="curve" smooth="yes"/>
      <point x="216" y="77" type="line" smooth="yes"/>
      <point x="216" y="39"/>
      <point x="208" y="25"/>
      <point x="186" y="25" type="curve" smooth="yes"/>
      <point x="106" y="25" type="line"/>
      <point x="103" y="44"/>
      <point x="91" y="58"/>
      <point x="73" y="58" type="curve" smooth="yes"/>
      <point x="66" y="58"/>
      <point x="62" y="57"/>
      <point x="58" y="55" type="curve"/>
      <point x="66" y="45"/>
      <point x="70" y="28"/>
      <point x="70" y="12" type="curve" smooth="yes"/>
      <point x="70" y="-4"/>
      <point x="66" y="-21"/>
      <point x="58" y="-31" type="curve"/>
      <point x="62" y="-33"/>
      <point x="66" y="-34"/>
    </contour>
    <contour>
      <point x="250" y="569" type="curve"/>
      <point x="197" y="576"/>
      <point x="160" y="604"/>
      <point x="160" y="664" type="curve" smooth="yes"/>
      <point x="160" y="717"/>
      <point x="190" y="749"/>
      <point x="234" y="749" type="curve" smooth="yes"/>
      <point x="279" y="749"/>
      <point x="304" y="714"/>
      <point x="304" y="667" type="curve" smooth="yes"/>
      <point x="304" y="624"/>
      <point x="283" y="594"/>
    </contour>
    <component base="midringshort" yOffset="-93"/>
  </outline>
</glyph>
<glyph name="qwaa-ethiopic" format="2">
  <advance width="462"/>
  <unicode hex="124B"/>
  <note>
uni124B
</note>
  <anchor x="231" y="716" name="top"/>
  <outline>
    <contour>
      <point x="212" y="140" type="line"/>
      <point x="240" y="140" type="line"/>
      <point x="240" y="649" type="line" smooth="yes"/>
      <point x="240" y="687"/>
      <point x="234" y="707"/>
      <point x="222" y="716" type="curve"/>
      <point x="177" y="712" type="line"/>
      <point x="177" y="692" type="line"/>
      <point x="201" y="692"/>
      <point x="212" y="682"/>
      <point x="212" y="640" type="curve" smooth="yes"/>
    </contour>
    <contour>
      <point x="119" y="129" type="line"/>
      <point x="404" y="129" type="line"/>
      <point x="404" y="154" type="line"/>
      <point x="119" y="154" type="line"/>
    </contour>
    <contour>
      <point x="395" y="-3" type="curve"/>
      <point x="439" y="2" type="line"/>
      <point x="439" y="22" type="line"/>
      <point x="415" y="22"/>
      <point x="404" y="31"/>
      <point x="404" y="75" type="curve" smooth="yes"/>
      <point x="404" y="140" type="line"/>
      <point x="376" y="140" type="line"/>
      <point x="376" y="64" type="line" smooth="yes"/>
      <point x="376" y="26"/>
      <point x="382" y="7"/>
    </contour>
    <component base="midring" yOffset="46"/>
    <component base="leftsingleflag" xOffset="4" yOffset="-233"/>
  </outline>
</glyph>
<glyph name="qwee-ethiopic" format="2">
	<advance width="455"/>
	<unicode hex="124C"/>
	<anchor x="227" y="716" name="top"/>
	<note>
		uni1244
	</note>
	<outline>
		<contour>
			<point x="72" y="-57" type="curve" smooth="yes"/>
			<point x="93" y="-57"/>
			<point x="107" y="-39"/>
			<point x="107" y="-15" type="curve" smooth="yes"/>
			<point x="107" y="-11"/>
			<point x="107" y="-5"/>
			<point x="106" y="0" type="curve"/>
			<point x="316" y="0" type="line"/>
			<point x="260" y="25" type="line"/>
			<point x="64" y="25" type="line"/>
			<point x="67" y="16"/>
			<point x="70" y="6"/>
			<point x="70" y="-10" type="curve" smooth="yes"/>
			<point x="70" y="-26"/>
			<point x="66" y="-44"/>
			<point x="57" y="-54" type="curve"/>
			<point x="61" y="-56"/>
			<point x="65" y="-57"/>
		</contour>
		<component base="qee-ethiopic"/>
	</outline>
</glyph>
<glyph name="qha-ethiopic" format="2">
	<advance width="475"/>
	<unicode hex="1250"/>
	<anchor x="237" y="794" name="top"/>
	<note>
		uni1250
	</note>
	<outline>
		<contour>
			<point x="244" y="-3" type="curve"/>
			<point x="288" y="2" type="line"/>
			<point x="288" y="22" type="line"/>
			<point x="264" y="22"/>
			<point x="253" y="31"/>
			<point x="253" y="75" type="curve" smooth="yes"/>
			<point x="253" y="750" type="line"/>
			<point x="225" y="750" type="line"/>
			<point x="225" y="64" type="line" smooth="yes"/>
			<point x="225" y="26"/>
			<point x="231" y="7"/>
		</contour>
		<component base="midring" xOffset="10" yOffset="14"/>
		<component base="bonemiddle" xOffset="39" yOffset="-12"/>
	</outline>
</glyph>
<glyph name="qhi-ethiopic" format="2">
  <advance width="475"/>
  <unicode hex="1252"/>
  <note>
uni1252
</note>
  <anchor x="237" y="794" name="top"/>
  <outline>
    <contour>
      <point x="238" y="0" type="curve"/>
      <point x="291" y="0" type="line"/>
      <point x="291" y="25" type="line"/>
      <point x="268" y="25"/>
      <point x="252" y="34"/>
      <point x="252" y="91" type="curve" smooth="yes"/>
      <point x="252" y="748" type="line"/>
      <point x="224" y="748" type="line"/>
      <point x="224" y="89" type="line" smooth="yes"/>
      <point x="224" y="41"/>
      <point x="229" y="16"/>
    </contour>
    <component base="midring" xOffset="10" yOffset="17"/>
    <component base="bonemiddle" xOffset="33" yOffset="-12"/>
    <component base="rightdoubleflag" xOffset="259" yOffset="-1"/>
  </outline>
</glyph>
<glyph name="qhaa-ethiopic" format="2">
  <advance width="497"/>
  <unicode hex="1253"/>
  <note>
uni1253
</note>
  <anchor x="242" y="794" name="top"/>
  <outline>
    <contour>
      <point x="35" y="-57" type="curve" smooth="yes"/>
      <point x="54" y="-57"/>
      <point x="66" y="-39"/>
      <point x="66" y="-15" type="curve" smooth="yes"/>
      <point x="66" y="-11"/>
      <point x="66" y="-5"/>
      <point x="66" y="0" type="curve"/>
      <point x="95" y="0" type="line" smooth="yes"/>
      <point x="225" y="0"/>
      <point x="275" y="101"/>
      <point x="275" y="250" type="curve" smooth="yes"/>
      <point x="275" y="760" type="line"/>
      <point x="247" y="760" type="line"/>
      <point x="247" y="254" type="line" smooth="yes"/>
      <point x="247" y="116"/>
      <point x="208" y="25"/>
      <point x="88" y="25" type="curve" smooth="yes"/>
      <point x="26" y="25" type="line"/>
      <point x="29" y="16"/>
      <point x="31" y="6"/>
      <point x="31" y="-10" type="curve" smooth="yes"/>
      <point x="31" y="-26"/>
      <point x="28" y="-44"/>
      <point x="20" y="-54" type="curve"/>
      <point x="24" y="-56"/>
      <point x="28" y="-57"/>
    </contour>
    <component base="midring" xOffset="32"/>
    <component base="bonemiddle" xOffset="57" yOffset="-12"/>
  </outline>
</glyph>
<glyph name="qhee-ethiopic" format="2">
  <advance width="463"/>
  <unicode hex="1254"/>
  <note>
uni1254
</note>
  <anchor x="238" y="794" name="top"/>
  <outline>
    <contour>
      <point x="304" y="0" type="curve"/>
      <point x="341" y="0" type="line" smooth="yes"/>
      <point x="402" y="0"/>
      <point x="443" y="37"/>
      <point x="443" y="98" type="curve" smooth="yes"/>
      <point x="443" y="148"/>
      <point x="415" y="186"/>
      <point x="346" y="186" type="curve" smooth="yes"/>
      <point x="252" y="186" type="line"/>
      <point x="252" y="753" type="line"/>
      <point x="224" y="753" type="line"/>
      <point x="224" y="95" type="line" smooth="yes"/>
      <point x="224" y="42"/>
      <point x="250" y="9"/>
    </contour>
    <contour>
      <point x="331" y="22" type="curve" smooth="yes"/>
      <point x="273" y="22"/>
      <point x="252" y="50"/>
      <point x="252" y="99" type="curve" smooth="yes"/>
      <point x="252" y="162" type="line"/>
      <point x="340" y="162" type="line" smooth="yes"/>
      <point x="396" y="162"/>
      <point x="416" y="133"/>
      <point x="416" y="97" type="curve" smooth="yes"/>
      <point x="416" y="52"/>
      <point x="390" y="22"/>
    </contour>
    <component base="midringshort" xOffset="10" yOffset="57"/>
    <component base="bonemiddle" xOffset="37" yOffset="-12"/>
  </outline>
</glyph>
<glyph name="qhe-ethiopic" format="2">
	<advance width="501"/>
	<unicode hex="1255"/>
	<anchor x="249" y="793" name="top"/>
	<note>
		uni1255
	</note>
	<outline>
		<contour>
			<point x="254" y="-3" type="curve"/>
			<point x="299" y="2" type="line"/>
			<point x="299" y="22" type="line"/>
			<point x="274" y="22"/>
			<point x="263" y="31"/>
			<point x="263" y="75" type="curve" smooth="yes"/>
			<point x="263" y="159"/>
			<point x="311" y="394"/>
			<point x="311" y="496" type="curve" smooth="yes"/>
			<point x="311" y="533"/>
			<point x="296" y="566"/>
			<point x="249" y="566" type="curve" smooth="yes"/>
			<point x="187" y="566" type="line"/>
			<point x="187" y="749" type="line"/>
			<point x="159" y="749" type="line"/>
			<point x="159" y="541" type="line"/>
			<point x="237" y="541" type="line" smooth="yes"/>
			<point x="270" y="541"/>
			<point x="283" y="526"/>
			<point x="283" y="491" type="curve" smooth="yes"/>
			<point x="283" y="394"/>
			<point x="235" y="161"/>
			<point x="235" y="64" type="curve" smooth="yes"/>
			<point x="235" y="26"/>
			<point x="242" y="7"/>
		</contour>
		<component base="midringshort" xOffset="46" yOffset="-130"/>
		<component base="bone" yOffset="-13"/>
	</outline>
</glyph>
<glyph name="qho-ethiopic" format="2">
  <advance width="501"/>
  <unicode hex="1256"/>
  <note>
uni1256
</note>
  <anchor x="250" y="793" name="top"/>
  <outline>
    <contour>
      <point x="262" y="-3" type="curve"/>
      <point x="306" y="2" type="line"/>
      <point x="306" y="22" type="line"/>
      <point x="283" y="22"/>
      <point x="271" y="31"/>
      <point x="271" y="75" type="curve" smooth="yes"/>
      <point x="271" y="388" type="line" smooth="yes"/>
      <point x="271" y="435"/>
      <point x="283" y="446"/>
      <point x="297" y="459" type="curve" smooth="yes"/>
      <point x="316" y="477"/>
      <point x="364" y="504"/>
      <point x="364" y="584" type="curve" smooth="yes"/>
      <point x="364" y="656"/>
      <point x="324" y="702"/>
      <point x="261" y="702" type="curve" smooth="yes"/>
      <point x="199" y="702"/>
      <point x="156" y="657"/>
      <point x="156" y="579" type="curve" smooth="yes"/>
      <point x="156" y="499"/>
      <point x="201" y="467"/>
      <point x="261" y="457" type="curve"/>
      <point x="248" y="441"/>
      <point x="243" y="418"/>
      <point x="243" y="388" type="curve" smooth="yes"/>
      <point x="243" y="64" type="line" smooth="yes"/>
      <point x="243" y="26"/>
      <point x="250" y="7"/>
    </contour>
    <contour>
      <point x="277" y="474" type="curve"/>
      <point x="224" y="481"/>
      <point x="183" y="509"/>
      <point x="183" y="581" type="curve" smooth="yes"/>
      <point x="183" y="646"/>
      <point x="217" y="678"/>
      <point x="261" y="678" type="curve" smooth="yes"/>
      <point x="307" y="678"/>
      <point x="337" y="643"/>
      <point x="337" y="584" type="curve" smooth="yes"/>
      <point x="337" y="529"/>
      <point x="310" y="499"/>
    </contour>
    <contour>
      <point x="248" y="689" type="line"/>
      <point x="274" y="689" type="line"/>
      <point x="274" y="748" type="line"/>
      <point x="248" y="748" type="line"/>
    </contour>
    <component base="bonelong" xOffset="13" yOffset="-13"/>
    <component base="midringshort" xOffset="31" yOffset="-152"/>
  </outline>
</glyph>
<glyph name="qhwa-ethiopic" format="2">
	<advance width="583"/>
	<unicode hex="1258"/>
	<anchor x="298" y="794" name="top"/>
	<note>
		uni1258
	</note>
	<outline>
		<contour>
			<point x="243" y="-3" type="curve"/>
			<point x="287" y="2" type="line"/>
			<point x="287" y="22" type="line"/>
			<point x="264" y="22"/>
			<point x="252" y="31"/>
			<point x="252" y="75" type="curve" smooth="yes"/>
			<point x="252" y="748" type="line"/>
			<point x="224" y="748" type="line"/>
			<point x="224" y="64" type="line" smooth="yes"/>
			<point x="224" y="26"/>
			<point x="231" y="7"/>
		</contour>
		<component base="rightbulbsmall" xOffset="247" yOffset="-175"/>
		<component base="midringshort" xOffset="10" yOffset="47"/>
		<component base="bonemiddle" xOffset="35" yOffset="-12"/>
	</outline>
</glyph>
<glyph name="qhwaa-ethiopic" format="2">
  <advance width="511"/>
  <unicode hex="125B"/>
  <note>
uni125B
</note>
  <anchor x="255" y="794" name="top"/>
  <outline>
    <contour>
      <point x="234" y="140" type="line"/>
      <point x="262" y="140" type="line"/>
      <point x="262" y="748" type="line"/>
      <point x="234" y="748" type="line"/>
    </contour>
    <contour>
      <point x="149" y="129" type="line"/>
      <point x="433" y="129" type="line"/>
      <point x="433" y="154" type="line"/>
      <point x="149" y="154" type="line"/>
    </contour>
    <contour>
      <point x="424" y="-3" type="curve"/>
      <point x="468" y="2" type="line"/>
      <point x="468" y="22" type="line"/>
      <point x="445" y="25"/>
      <point x="433" y="33"/>
      <point x="433" y="75" type="curve" smooth="yes"/>
      <point x="433" y="154" type="line"/>
      <point x="405" y="154" type="line"/>
      <point x="405" y="64" type="line" smooth="yes"/>
      <point x="405" y="26"/>
      <point x="412" y="7"/>
    </contour>
    <component base="midringshort" xOffset="20" yOffset="44"/>
    <component base="leftsingleflag" xOffset="23" yOffset="-233"/>
    <component base="bonemiddle" xOffset="48" yOffset="-12"/>
  </outline>
</glyph>
<glyph name="qhwee-ethiopic" format="2">
  <advance width="496"/>
  <unicode hex="125C"/>
  <note>
uni125C
</note>
  <anchor x="248" y="794" name="top"/>
  <outline>
    <contour>
      <point x="147" y="0" type="line"/>
      <point x="322" y="0" type="line"/>
      <point x="306" y="25" type="line"/>
      <point x="147" y="25" type="line"/>
    </contour>
    <component base="qhee-ethiopic" xOffset="10"/>
    <component base="leftsingleflag" xOffset="33" yOffset="-362"/>
  </outline>
</glyph>
<glyph name="ba-ethiopic" format="2">
  <advance width="476"/>
  <unicode hex="1260"/>
  <note>
uni1260
</note>
  <anchor x="251" y="726" name="top"/>
  <outline>
    <contour>
      <point x="253" y="726" type="curve" smooth="yes"/>
      <point x="138" y="726"/>
      <point x="79" y="610"/>
      <point x="79" y="443" type="curve" smooth="yes"/>
      <point x="79" y="86" type="line" smooth="yes"/>
      <point x="79" y="44"/>
      <point x="85" y="14"/>
      <point x="93" y="-2" type="curve"/>
      <point x="146" y="2" type="line"/>
      <point x="146" y="22" type="line"/>
      <point x="123" y="22"/>
      <point x="107" y="32"/>
      <point x="107" y="88" type="curve" smooth="yes"/>
      <point x="107" y="437" type="line" smooth="yes"/>
      <point x="107" y="613"/>
      <point x="160" y="702"/>
      <point x="252" y="702" type="curve" smooth="yes"/>
      <point x="324" y="702"/>
      <point x="359" y="648"/>
      <point x="359" y="532" type="curve" smooth="yes"/>
      <point x="359" y="408"/>
      <point x="357" y="238"/>
      <point x="357" y="86" type="curve" smooth="yes"/>
      <point x="357" y="38"/>
      <point x="362" y="14"/>
      <point x="371" y="-2" type="curve"/>
      <point x="424" y="2" type="line"/>
      <point x="424" y="22" type="line"/>
      <point x="401" y="22"/>
      <point x="385" y="31"/>
      <point x="385" y="88" type="curve" smooth="yes"/>
      <point x="385" y="224"/>
      <point x="387" y="443"/>
      <point x="387" y="534" type="curve" smooth="yes"/>
      <point x="387" y="670"/>
      <point x="344" y="726"/>
    </contour>
  </outline>
</glyph>
<glyph name="bu-ethiopic" format="2">
  <advance width="570"/>
  <unicode hex="1261"/>
  <note>
uni1261
</note>
  <anchor x="320" y="726" name="top"/>
  <outline>
    <contour>
      <point x="93" y="-2" type="curve"/>
      <point x="146" y="2" type="line"/>
      <point x="146" y="22" type="line"/>
      <point x="123" y="22"/>
      <point x="107" y="32"/>
      <point x="107" y="88" type="curve" smooth="yes"/>
      <point x="107" y="437" type="line" smooth="yes"/>
      <point x="107" y="613"/>
      <point x="160" y="702"/>
      <point x="252" y="702" type="curve" smooth="yes"/>
      <point x="324" y="702"/>
      <point x="359" y="648"/>
      <point x="359" y="532" type="curve" smooth="yes"/>
      <point x="359" y="408"/>
      <point x="357" y="238"/>
      <point x="357" y="86" type="curve" smooth="yes"/>
      <point x="357" y="38"/>
      <point x="362" y="14"/>
      <point x="371" y="-2" type="curve"/>
      <point x="424" y="2" type="line"/>
      <point x="424" y="22" type="line"/>
      <point x="401" y="22"/>
      <point x="385" y="31"/>
      <point x="385" y="88" type="curve" smooth="yes"/>
      <point x="385" y="224"/>
      <point x="387" y="443"/>
      <point x="387" y="534" type="curve" smooth="yes"/>
      <point x="387" y="670"/>
      <point x="344" y="726"/>
      <point x="253" y="726" type="curve" smooth="yes"/>
      <point x="138" y="726"/>
      <point x="79" y="610"/>
      <point x="79" y="443" type="curve" smooth="yes"/>
      <point x="79" y="86" type="line" smooth="yes"/>
      <point x="79" y="44"/>
      <point x="85" y="14"/>
    </contour>
    <component base="rightdoubleflag" xOffset="387" yOffset="309"/>
  </outline>
</glyph>
<glyph name="bi-ethiopic" format="2">
  <advance width="576"/>
  <unicode hex="1262"/>
  <note>
uni1262
</note>
  <anchor x="317" y="726" name="top"/>
  <outline>
    <contour>
      <point x="542" y="-34" type="curve" smooth="yes"/>
      <point x="548" y="-34"/>
      <point x="552" y="-33"/>
      <point x="556" y="-31" type="curve"/>
      <point x="548" y="-21"/>
      <point x="544" y="-4"/>
      <point x="544" y="12" type="curve" smooth="yes"/>
      <point x="544" y="28"/>
      <point x="548" y="45"/>
      <point x="556" y="55" type="curve"/>
      <point x="552" y="57"/>
      <point x="548" y="58"/>
      <point x="542" y="58" type="curve" smooth="yes"/>
      <point x="523" y="58"/>
      <point x="511" y="44"/>
      <point x="508" y="25" type="curve"/>
      <point x="424" y="25" type="line" smooth="yes"/>
      <point x="401" y="25"/>
      <point x="385" y="34"/>
      <point x="385" y="88" type="curve" smooth="yes"/>
      <point x="385" y="224"/>
      <point x="387" y="443"/>
      <point x="387" y="534" type="curve" smooth="yes"/>
      <point x="387" y="670"/>
      <point x="344" y="726"/>
      <point x="253" y="726" type="curve" smooth="yes"/>
      <point x="138" y="726"/>
      <point x="79" y="610"/>
      <point x="79" y="443" type="curve" smooth="yes"/>
      <point x="79" y="86" type="line" smooth="yes"/>
      <point x="79" y="44"/>
      <point x="85" y="14"/>
      <point x="93" y="-2" type="curve"/>
      <point x="146" y="2" type="line"/>
      <point x="146" y="22" type="line"/>
      <point x="123" y="22"/>
      <point x="107" y="32"/>
      <point x="107" y="88" type="curve" smooth="yes"/>
      <point x="107" y="437" type="line" smooth="yes"/>
      <point x="107" y="613"/>
      <point x="160" y="702"/>
      <point x="252" y="702" type="curve" smooth="yes"/>
      <point x="324" y="702"/>
      <point x="359" y="648"/>
      <point x="359" y="532" type="curve" smooth="yes"/>
      <point x="359" y="408"/>
      <point x="357" y="238"/>
      <point x="357" y="86" type="curve" smooth="yes"/>
      <point x="357" y="38"/>
      <point x="361" y="16"/>
      <point x="370" y="0" type="curve"/>
      <point x="508" y="0" type="line"/>
      <point x="511" y="-20"/>
      <point x="523" y="-34"/>
    </contour>
  </outline>
</glyph>
<glyph name="baa-ethiopic" format="2">
  <advance width="452"/>
  <unicode hex="1263"/>
  <note>
uni1263
</note>
  <anchor x="227" y="726" name="top"/>
  <outline>
    <contour>
      <point x="347" y="-2" type="curve"/>
      <point x="400" y="2" type="line"/>
      <point x="400" y="22" type="line"/>
      <point x="377" y="22"/>
      <point x="361" y="31"/>
      <point x="361" y="88" type="curve" smooth="yes"/>
      <point x="361" y="224"/>
      <point x="363" y="443"/>
      <point x="363" y="534" type="curve" smooth="yes"/>
      <point x="363" y="670"/>
      <point x="320" y="726"/>
      <point x="229" y="726" type="curve" smooth="yes"/>
      <point x="114" y="726"/>
      <point x="55" y="610"/>
      <point x="55" y="443" type="curve" smooth="yes"/>
      <point x="55" y="326" type="line" smooth="yes"/>
      <point x="55" y="284"/>
      <point x="61" y="254"/>
      <point x="69" y="238" type="curve"/>
      <point x="122" y="242" type="line"/>
      <point x="122" y="262" type="line"/>
      <point x="99" y="262"/>
      <point x="83" y="272"/>
      <point x="83" y="328" type="curve" smooth="yes"/>
      <point x="83" y="437" type="line" smooth="yes"/>
      <point x="83" y="613"/>
      <point x="136" y="702"/>
      <point x="228" y="702" type="curve" smooth="yes"/>
      <point x="300" y="702"/>
      <point x="335" y="648"/>
      <point x="335" y="532" type="curve" smooth="yes"/>
      <point x="335" y="408"/>
      <point x="333" y="238"/>
      <point x="333" y="86" type="curve" smooth="yes"/>
      <point x="333" y="38"/>
      <point x="338" y="14"/>
    </contour>
  </outline>
</glyph>
<glyph name="bee-ethiopic" format="2">
  <advance width="606"/>
  <unicode hex="1264"/>
  <note>
uni1264
</note>
  <anchor x="332" y="726" name="top"/>
  <outline>
    <contour>
      <point x="93" y="-2" type="curve"/>
      <point x="146" y="2" type="line"/>
      <point x="146" y="22" type="line"/>
      <point x="123" y="22"/>
      <point x="107" y="32"/>
      <point x="107" y="88" type="curve" smooth="yes"/>
      <point x="107" y="437" type="line" smooth="yes"/>
      <point x="107" y="613"/>
      <point x="160" y="702"/>
      <point x="252" y="702" type="curve" smooth="yes"/>
      <point x="324" y="702"/>
      <point x="359" y="648"/>
      <point x="359" y="532" type="curve" smooth="yes"/>
      <point x="359" y="456"/>
      <point x="357" y="222"/>
      <point x="357" y="107" type="curve" smooth="yes"/>
      <point x="357" y="44"/>
      <point x="384" y="12"/>
      <point x="430" y="0" type="curve"/>
      <point x="470" y="0" type="line" smooth="yes"/>
      <point x="545" y="0"/>
      <point x="586" y="52"/>
      <point x="586" y="122" type="curve" smooth="yes"/>
      <point x="586" y="185"/>
      <point x="554" y="230"/>
      <point x="481" y="230" type="curve" smooth="yes"/>
      <point x="385" y="230" type="line"/>
      <point x="385" y="280"/>
      <point x="387" y="458"/>
      <point x="387" y="534" type="curve" smooth="yes"/>
      <point x="387" y="670"/>
      <point x="344" y="726"/>
      <point x="253" y="726" type="curve" smooth="yes"/>
      <point x="138" y="726"/>
      <point x="79" y="610"/>
      <point x="79" y="443" type="curve" smooth="yes"/>
      <point x="79" y="86" type="line" smooth="yes"/>
      <point x="79" y="44"/>
      <point x="85" y="14"/>
    </contour>
    <contour>
      <point x="467" y="22" type="curve" smooth="yes"/>
      <point x="406" y="22"/>
      <point x="385" y="58"/>
      <point x="385" y="106" type="curve" smooth="yes"/>
      <point x="385" y="207" type="line"/>
      <point x="476" y="207" type="line" smooth="yes"/>
      <point x="535" y="207"/>
      <point x="558" y="172"/>
      <point x="558" y="122" type="curve" smooth="yes"/>
      <point x="558" y="68"/>
      <point x="532" y="22"/>
    </contour>
  </outline>
</glyph>
<glyph name="bo-ethiopic" format="2">
  <advance width="460"/>
  <unicode hex="1266"/>
  <note>
uni1266
</note>
  <anchor x="252" y="726" name="top"/>
  <outline>
    <contour>
      <point x="93" y="-2" type="curve"/>
      <point x="146" y="2" type="line"/>
      <point x="146" y="22" type="line"/>
      <point x="123" y="22"/>
      <point x="107" y="32"/>
      <point x="107" y="88" type="curve" smooth="yes"/>
      <point x="107" y="437" type="line" smooth="yes"/>
      <point x="107" y="613"/>
      <point x="160" y="702"/>
      <point x="252" y="702" type="curve" smooth="yes"/>
      <point x="324" y="702"/>
      <point x="359" y="648"/>
      <point x="359" y="532" type="curve" smooth="yes"/>
      <point x="359" y="468"/>
      <point x="358" y="408"/>
      <point x="358" y="326" type="curve" smooth="yes"/>
      <point x="358" y="278"/>
      <point x="363" y="254"/>
      <point x="372" y="238" type="curve"/>
      <point x="425" y="242" type="line"/>
      <point x="425" y="262" type="line"/>
      <point x="402" y="262"/>
      <point x="386" y="271"/>
      <point x="386" y="328" type="curve" smooth="yes"/>
      <point x="386" y="394"/>
      <point x="387" y="473"/>
      <point x="387" y="534" type="curve" smooth="yes"/>
      <point x="387" y="670"/>
      <point x="344" y="726"/>
      <point x="253" y="726" type="curve" smooth="yes"/>
      <point x="138" y="726"/>
      <point x="79" y="610"/>
      <point x="79" y="443" type="curve" smooth="yes"/>
      <point x="79" y="86" type="line" smooth="yes"/>
      <point x="79" y="44"/>
      <point x="85" y="14"/>
    </contour>
  </outline>
</glyph>
<glyph name="bwa-ethiopic" format="2">
  <advance width="547"/>
  <unicode hex="1267"/>
  <note>
uni1267
</note>
  <anchor x="277" y="726" name="top"/>
  <outline>
    <contour>
      <point x="344" y="7" type="line"/>
      <point x="372" y="7" type="line"/>
      <point x="372" y="534" type="line" smooth="yes"/>
      <point x="372" y="670"/>
      <point x="330" y="726"/>
      <point x="239" y="726" type="curve" smooth="yes"/>
      <point x="124" y="726"/>
      <point x="65" y="610"/>
      <point x="65" y="443" type="curve" smooth="yes"/>
      <point x="65" y="326" type="line" smooth="yes"/>
      <point x="65" y="284"/>
      <point x="71" y="254"/>
      <point x="79" y="238" type="curve"/>
      <point x="132" y="242" type="line"/>
      <point x="132" y="262" type="line"/>
      <point x="109" y="262"/>
      <point x="93" y="272"/>
      <point x="93" y="328" type="curve" smooth="yes"/>
      <point x="93" y="437" type="line" smooth="yes"/>
      <point x="93" y="613"/>
      <point x="146" y="702"/>
      <point x="238" y="702" type="curve" smooth="yes"/>
      <point x="310" y="702"/>
      <point x="344" y="648"/>
      <point x="344" y="532" type="curve" smooth="yes"/>
    </contour>
    <component base="footlong" xOffset="7"/>
  </outline>
</glyph>
<glyph name="vi-ethiopic" format="2">
  <advance width="583"/>
  <unicode hex="126A"/>
  <note>
uni126A
</note>
  <anchor x="321" y="793" name="top"/>
  <outline>
    <contour>
      <point x="93" y="-3" type="curve"/>
      <point x="146" y="2" type="line"/>
      <point x="146" y="21" type="line"/>
      <point x="123" y="21"/>
      <point x="107" y="31"/>
      <point x="107" y="87" type="curve" smooth="yes"/>
      <point x="107" y="298" type="line" smooth="yes"/>
      <point x="107" y="483"/>
      <point x="161" y="578"/>
      <point x="252" y="578" type="curve" smooth="yes"/>
      <point x="324" y="578"/>
      <point x="359" y="518"/>
      <point x="359" y="393" type="curve" smooth="yes"/>
      <point x="359" y="309"/>
      <point x="357" y="177"/>
      <point x="357" y="85" type="curve" smooth="yes"/>
      <point x="357" y="37"/>
      <point x="362" y="16"/>
      <point x="371" y="0" type="curve"/>
      <point x="424" y="0" type="line"/>
      <point x="424" y="25" type="line"/>
      <point x="401" y="25"/>
      <point x="385" y="33"/>
      <point x="385" y="87" type="curve" smooth="yes"/>
      <point x="385" y="163"/>
      <point x="387" y="324"/>
      <point x="387" y="395" type="curve" smooth="yes"/>
      <point x="387" y="540"/>
      <point x="344" y="602"/>
      <point x="253" y="602" type="curve" smooth="yes"/>
      <point x="138" y="602"/>
      <point x="79" y="480"/>
      <point x="79" y="304" type="curve" smooth="yes"/>
      <point x="79" y="85" type="line" smooth="yes"/>
      <point x="79" y="43"/>
      <point x="85" y="13"/>
    </contour>
    <component base="bone" xOffset="82" yOffset="-13"/>
    <component base="rightdoubleflag" xOffset="390"/>
  </outline>
</glyph>
<glyph name="vee-ethiopic" format="2">
  <advance width="606"/>
  <unicode hex="126C"/>
  <note>
uni126C
</note>
  <anchor x="332" y="793" name="top"/>
  <outline>
    <contour>
      <point x="93" y="-3" type="curve"/>
      <point x="146" y="2" type="line"/>
      <point x="146" y="21" type="line"/>
      <point x="123" y="21"/>
      <point x="107" y="31"/>
      <point x="107" y="87" type="curve" smooth="yes"/>
      <point x="107" y="298" type="line" smooth="yes"/>
      <point x="107" y="483"/>
      <point x="161" y="578"/>
      <point x="252" y="578" type="curve" smooth="yes"/>
      <point x="324" y="578"/>
      <point x="359" y="518"/>
      <point x="359" y="393" type="curve" smooth="yes"/>
      <point x="359" y="317"/>
      <point x="357" y="169"/>
      <point x="357" y="107" type="curve" smooth="yes"/>
      <point x="357" y="44"/>
      <point x="384" y="12"/>
      <point x="430" y="0" type="curve"/>
      <point x="470" y="0" type="line" smooth="yes"/>
      <point x="545" y="0"/>
      <point x="586" y="52"/>
      <point x="586" y="122" type="curve" smooth="yes"/>
      <point x="586" y="185"/>
      <point x="554" y="230"/>
      <point x="481" y="230" type="curve" smooth="yes"/>
      <point x="385" y="230" type="line"/>
      <point x="385" y="259"/>
      <point x="387" y="354"/>
      <point x="387" y="395" type="curve" smooth="yes"/>
      <point x="387" y="540"/>
      <point x="344" y="602"/>
      <point x="253" y="602" type="curve" smooth="yes"/>
      <point x="138" y="602"/>
      <point x="79" y="480"/>
      <point x="79" y="304" type="curve" smooth="yes"/>
      <point x="79" y="85" type="line" smooth="yes"/>
      <point x="79" y="43"/>
      <point x="85" y="13"/>
    </contour>
    <contour>
      <point x="467" y="22" type="curve" smooth="yes"/>
      <point x="406" y="22"/>
      <point x="385" y="58"/>
      <point x="385" y="106" type="curve" smooth="yes"/>
      <point x="385" y="207" type="line"/>
      <point x="476" y="207" type="line" smooth="yes"/>
      <point x="535" y="207"/>
      <point x="558" y="172"/>
      <point x="558" y="122" type="curve" smooth="yes"/>
      <point x="558" y="68"/>
      <point x="532" y="22"/>
    </contour>
    <component base="bone" xOffset="79" yOffset="-13"/>
  </outline>
</glyph>
<glyph name="vwa-ethiopic" format="2">
  <advance width="540"/>
  <unicode hex="126F"/>
  <note>
uni126F
</note>
  <anchor x="270" y="794" name="top"/>
  <outline>
    <contour>
      <point x="355" y="12" type="curve"/>
      <point x="383" y="12" type="line"/>
      <point x="383" y="89"/>
      <point x="385" y="324"/>
      <point x="385" y="395" type="curve" smooth="yes"/>
      <point x="385" y="540"/>
      <point x="342" y="602"/>
      <point x="251" y="602" type="curve" smooth="yes"/>
      <point x="136" y="602"/>
      <point x="77" y="480"/>
      <point x="77" y="344" type="curve" smooth="yes"/>
      <point x="77" y="326" type="line" smooth="yes"/>
      <point x="77" y="284"/>
      <point x="83" y="254"/>
      <point x="91" y="238" type="curve"/>
      <point x="144" y="242" type="line"/>
      <point x="144" y="262" type="line"/>
      <point x="121" y="262"/>
      <point x="105" y="272"/>
      <point x="105" y="328" type="curve" smooth="yes"/>
      <point x="105" y="338" type="line" smooth="yes"/>
      <point x="105" y="483"/>
      <point x="158" y="578"/>
      <point x="249" y="578" type="curve" smooth="yes"/>
      <point x="322" y="578"/>
      <point x="357" y="518"/>
      <point x="357" y="393" type="curve" smooth="yes"/>
      <point x="357" y="309"/>
      <point x="355" y="103"/>
    </contour>
    <component base="footlong"/>
    <component base="bonemiddle" xOffset="41" yOffset="-12"/>
  </outline>
</glyph>
<glyph name="ti-ethiopic" format="2">
  <advance width="435"/>
  <unicode hex="1272"/>
  <note>
uni1272
</note>
  <anchor x="212" y="716" name="top"/>
  <outline>
    <contour>
      <point x="397" y="-34" type="curve" smooth="yes"/>
      <point x="403" y="-34"/>
      <point x="407" y="-33"/>
      <point x="411" y="-31" type="curve"/>
      <point x="403" y="-21"/>
      <point x="399" y="-4"/>
      <point x="399" y="12" type="curve" smooth="yes"/>
      <point x="399" y="28"/>
      <point x="403" y="45"/>
      <point x="411" y="55" type="curve"/>
      <point x="407" y="57"/>
      <point x="403" y="58"/>
      <point x="397" y="58" type="curve" smooth="yes"/>
      <point x="378" y="58"/>
      <point x="366" y="44"/>
      <point x="363" y="25" type="curve"/>
      <point x="260" y="25" type="line" smooth="yes"/>
      <point x="236" y="25"/>
      <point x="225" y="34"/>
      <point x="225" y="75" type="curve" smooth="yes"/>
      <point x="225" y="649" type="line" smooth="yes"/>
      <point x="225" y="687"/>
      <point x="219" y="707"/>
      <point x="207" y="716" type="curve"/>
      <point x="162" y="712" type="line"/>
      <point x="162" y="692" type="line"/>
      <point x="186" y="692"/>
      <point x="197" y="682"/>
      <point x="197" y="640" type="curve" smooth="yes"/>
      <point x="197" y="64" type="line" smooth="yes"/>
      <point x="197" y="26"/>
      <point x="203" y="10"/>
      <point x="216" y="0" type="curve"/>
      <point x="363" y="0" type="line"/>
      <point x="366" y="-20"/>
      <point x="378" y="-34"/>
    </contour>
    <component base="footmiddle" xOffset="-10" yOffset="511"/>
  </outline>
</glyph>
<glyph name="tee-ethiopic" format="2">
  <advance width="443"/>
  <unicode hex="1274"/>
  <note>
uni1274
</note>
  <anchor x="216" y="716" name="top"/>
  <outline>
    <contour>
      <point x="284" y="0" type="curve"/>
      <point x="321" y="0" type="line" smooth="yes"/>
      <point x="382" y="0"/>
      <point x="423" y="37"/>
      <point x="423" y="98" type="curve" smooth="yes"/>
      <point x="423" y="148"/>
      <point x="394" y="186"/>
      <point x="325" y="186" type="curve" smooth="yes"/>
      <point x="232" y="186" type="line"/>
      <point x="232" y="649" type="line" smooth="yes"/>
      <point x="232" y="687"/>
      <point x="226" y="707"/>
      <point x="214" y="716" type="curve"/>
      <point x="169" y="712" type="line"/>
      <point x="169" y="692" type="line"/>
      <point x="193" y="692"/>
      <point x="204" y="682"/>
      <point x="204" y="640" type="curve" smooth="yes"/>
      <point x="204" y="95" type="line" smooth="yes"/>
      <point x="204" y="42"/>
      <point x="229" y="9"/>
    </contour>
    <contour>
      <point x="311" y="22" type="curve" smooth="yes"/>
      <point x="252" y="22"/>
      <point x="232" y="50"/>
      <point x="232" y="99" type="curve" smooth="yes"/>
      <point x="232" y="162" type="line"/>
      <point x="320" y="162" type="line" smooth="yes"/>
      <point x="375" y="162"/>
      <point x="395" y="133"/>
      <point x="395" y="97" type="curve" smooth="yes"/>
      <point x="395" y="52"/>
      <point x="369" y="22"/>
    </contour>
    <component base="footmiddle" xOffset="-10" yOffset="511"/>
  </outline>
</glyph>
<glyph name="te-ethiopic" format="2">
  <advance width="435"/>
  <unicode hex="1275"/>
  <note>
uni1275
</note>
  <anchor x="222" y="771" name="top"/>
  <outline>
    <contour>
      <point x="229" y="-3" type="curve"/>
      <point x="273" y="2" type="line"/>
      <point x="273" y="22" type="line"/>
      <point x="250" y="22"/>
      <point x="239" y="31"/>
      <point x="239" y="75" type="curve" smooth="yes"/>
      <point x="239" y="654" type="line" smooth="yes"/>
      <point x="239" y="686"/>
      <point x="230" y="706"/>
      <point x="218" y="714" type="curve"/>
      <point x="89" y="714" type="line"/>
      <point x="90" y="719"/>
      <point x="90" y="725"/>
      <point x="90" y="729" type="curve" smooth="yes"/>
      <point x="90" y="753"/>
      <point x="77" y="771"/>
      <point x="57" y="771" type="curve" smooth="yes"/>
      <point x="51" y="771"/>
      <point x="46" y="770"/>
      <point x="42" y="768" type="curve"/>
      <point x="50" y="758"/>
      <point x="54" y="740"/>
      <point x="54" y="724" type="curve" smooth="yes"/>
      <point x="54" y="708"/>
      <point x="52" y="698"/>
      <point x="49" y="689" type="curve"/>
      <point x="180" y="689" type="line" smooth="yes"/>
      <point x="202" y="689"/>
      <point x="211" y="677"/>
      <point x="211" y="639" type="curve" smooth="yes"/>
      <point x="211" y="64" type="line" smooth="yes"/>
      <point x="211" y="26"/>
      <point x="217" y="7"/>
    </contour>
    <component base="footmiddle" yOffset="420"/>
  </outline>
</glyph>
<glyph name="twa-ethiopic" format="2">
  <advance width="469"/>
  <unicode hex="1277"/>
  <note>
uni1277
</note>
  <anchor x="234" y="716" name="top"/>
  <outline>
    <contour>
      <point x="246" y="4" type="curve"/>
      <point x="290" y="4" type="line"/>
      <point x="290" y="25" type="line"/>
      <point x="266" y="25"/>
      <point x="255" y="34"/>
      <point x="255" y="75" type="curve" smooth="yes"/>
      <point x="255" y="649" type="line" smooth="yes"/>
      <point x="255" y="687"/>
      <point x="249" y="707"/>
      <point x="237" y="716" type="curve"/>
      <point x="192" y="712" type="line"/>
      <point x="192" y="692" type="line"/>
      <point x="216" y="692"/>
      <point x="227" y="682"/>
      <point x="227" y="640" type="curve" smooth="yes"/>
      <point x="227" y="64" type="line" smooth="yes"/>
      <point x="227" y="26"/>
      <point x="234" y="14"/>
    </contour>
    <component base="footmiddle" xOffset="14" yOffset="511"/>
    <component base="footmiddle" xOffset="10"/>
  </outline>
</glyph>
<glyph name="ca-ethiopic" format="2">
	<advance width="465"/>
	<unicode hex="1278"/>
	<anchor x="232" y="795" name="top"/>
	<note>
		uni1278
	</note>
	<outline>
		<contour>
			<point x="240" y="-3" type="curve"/>
			<point x="284" y="2" type="line"/>
			<point x="284" y="23" type="line"/>
			<point x="261" y="23"/>
			<point x="249" y="33"/>
			<point x="249" y="80" type="curve" smooth="yes"/>
			<point x="249" y="756" type="line"/>
			<point x="221" y="756" type="line"/>
			<point x="221" y="68" type="line" smooth="yes"/>
			<point x="221" y="28"/>
			<point x="228" y="7"/>
		</contour>
		<component base="bonemiddle" xOffset="34" yOffset="-11"/>
		<component base="footmiddle" xOffset="10" yOffset="494"/>
	</outline>
</glyph>
<glyph name="ci-ethiopic" format="2">
  <advance width="485"/>
  <unicode hex="127A"/>
  <note>
uni127A
</note>
  <anchor x="242" y="794" name="top"/>
  <outline>
    <contour>
      <point x="431" y="-34" type="curve" smooth="yes"/>
      <point x="437" y="-34"/>
      <point x="441" y="-33"/>
      <point x="445" y="-31" type="curve"/>
      <point x="437" y="-21"/>
      <point x="433" y="-4"/>
      <point x="433" y="12" type="curve" smooth="yes"/>
      <point x="433" y="28"/>
      <point x="437" y="45"/>
      <point x="445" y="55" type="curve"/>
      <point x="441" y="57"/>
      <point x="437" y="58"/>
      <point x="431" y="58" type="curve" smooth="yes"/>
      <point x="412" y="58"/>
      <point x="400" y="44"/>
      <point x="397" y="25" type="curve"/>
      <point x="294" y="25" type="line" smooth="yes"/>
      <point x="270" y="25"/>
      <point x="259" y="34"/>
      <point x="259" y="75" type="curve" smooth="yes"/>
      <point x="259" y="746" type="line"/>
      <point x="231" y="746" type="line"/>
      <point x="231" y="64" type="line" smooth="yes"/>
      <point x="231" y="26"/>
      <point x="237" y="10"/>
      <point x="250" y="0" type="curve"/>
      <point x="397" y="0" type="line"/>
      <point x="400" y="-20"/>
      <point x="412" y="-34"/>
    </contour>
    <component base="bonemiddle" xOffset="43" yOffset="-12"/>
    <component base="footmiddle" xOffset="20" yOffset="493"/>
  </outline>
</glyph>
<glyph name="caa-ethiopic" format="2">
  <advance width="499"/>
  <unicode hex="127B"/>
  <note>
uni127B
</note>
  <anchor x="259" y="794" name="top"/>
  <outline>
    <contour>
      <point x="55" y="-57" type="curve" smooth="yes"/>
      <point x="74" y="-57"/>
      <point x="86" y="-39"/>
      <point x="86" y="-15" type="curve" smooth="yes"/>
      <point x="86" y="-11"/>
      <point x="86" y="-5"/>
      <point x="86" y="0" type="curve"/>
      <point x="115" y="0" type="line" smooth="yes"/>
      <point x="245" y="0"/>
      <point x="295" y="101"/>
      <point x="295" y="250" type="curve" smooth="yes"/>
      <point x="295" y="750" type="line"/>
      <point x="267" y="750" type="line"/>
      <point x="267" y="254" type="line" smooth="yes"/>
      <point x="267" y="116"/>
      <point x="228" y="25"/>
      <point x="108" y="25" type="curve" smooth="yes"/>
      <point x="46" y="25" type="line"/>
      <point x="49" y="16"/>
      <point x="51" y="6"/>
      <point x="51" y="-10" type="curve" smooth="yes"/>
      <point x="51" y="-26"/>
      <point x="48" y="-44"/>
      <point x="40" y="-54" type="curve"/>
      <point x="44" y="-56"/>
      <point x="48" y="-57"/>
    </contour>
    <component base="footmiddle" xOffset="54" yOffset="491"/>
    <component base="bonemiddle" xOffset="79" yOffset="-12"/>
  </outline>
</glyph>
<glyph name="cee-ethiopic" format="2">
  <advance width="489"/>
  <unicode hex="127C"/>
  <note>
uni127C
</note>
  <anchor x="244" y="794" name="top"/>
  <outline>
    <contour>
      <point x="310" y="0" type="curve"/>
      <point x="347" y="0" type="line" smooth="yes"/>
      <point x="408" y="0"/>
      <point x="449" y="37"/>
      <point x="449" y="98" type="curve" smooth="yes"/>
      <point x="449" y="148"/>
      <point x="421" y="186"/>
      <point x="352" y="186" type="curve" smooth="yes"/>
      <point x="258" y="186" type="line"/>
      <point x="258" y="753" type="line"/>
      <point x="230" y="753" type="line"/>
      <point x="230" y="95" type="line" smooth="yes"/>
      <point x="230" y="42"/>
      <point x="256" y="9"/>
    </contour>
    <contour>
      <point x="337" y="22" type="curve" smooth="yes"/>
      <point x="279" y="22"/>
      <point x="258" y="50"/>
      <point x="258" y="99" type="curve" smooth="yes"/>
      <point x="258" y="162" type="line"/>
      <point x="346" y="162" type="line" smooth="yes"/>
      <point x="402" y="162"/>
      <point x="422" y="133"/>
      <point x="422" y="97" type="curve" smooth="yes"/>
      <point x="422" y="52"/>
      <point x="396" y="22"/>
    </contour>
    <component base="bonemiddle" xOffset="41" yOffset="-12"/>
    <component base="footmiddle" xOffset="20" yOffset="491"/>
  </outline>
</glyph>
<glyph name="ce-ethiopic" format="2">
  <advance width="498"/>
  <unicode hex="127D"/>
  <note>
uni127D
</note>
  <anchor x="234" y="794" name="top"/>
  <outline>
    <contour>
      <point x="250" y="-3" type="curve"/>
      <point x="294" y="2" type="line"/>
      <point x="294" y="22" type="line"/>
      <point x="270" y="22"/>
      <point x="259" y="31"/>
      <point x="259" y="75" type="curve" smooth="yes"/>
      <point x="259" y="149"/>
      <point x="307" y="394"/>
      <point x="307" y="486" type="curve" smooth="yes"/>
      <point x="307" y="523"/>
      <point x="292" y="556"/>
      <point x="245" y="556" type="curve" smooth="yes"/>
      <point x="183" y="556" type="line"/>
      <point x="183" y="760" type="line"/>
      <point x="155" y="760" type="line"/>
      <point x="155" y="531" type="line"/>
      <point x="232" y="531" type="line" smooth="yes"/>
      <point x="266" y="531"/>
      <point x="279" y="516"/>
      <point x="279" y="481" type="curve" smooth="yes"/>
      <point x="279" y="394"/>
      <point x="231" y="151"/>
      <point x="231" y="64" type="curve" smooth="yes"/>
      <point x="231" y="26"/>
      <point x="237" y="7"/>
    </contour>
    <component base="footmiddle" xOffset="53" yOffset="347"/>
    <component base="bone.alt" yOffset="-13"/>
  </outline>
</glyph>
<glyph name="co-ethiopic" format="2">
	<advance width="445"/>
	<unicode hex="127E"/>
	<anchor x="222" y="833" name="top"/>
	<note>
		uni127E
	</note>
	<outline>
		<contour>
			<point x="177" y="751" type="line"/>
			<point x="273" y="751" type="line"/>
			<point x="273" y="776" type="line"/>
			<point x="177" y="776" type="line"/>
		</contour>
		<contour>
			<point x="407" y="833" type="curve" smooth="yes"/>
			<point x="386" y="833"/>
			<point x="372" y="815"/>
			<point x="372" y="791" type="curve" smooth="yes"/>
			<point x="372" y="787"/>
			<point x="372" y="781"/>
			<point x="373" y="776" type="curve"/>
			<point x="219" y="776" type="line"/>
			<point x="219" y="751" type="line"/>
			<point x="415" y="751" type="line"/>
			<point x="412" y="760"/>
			<point x="409" y="770"/>
			<point x="409" y="786" type="curve" smooth="yes"/>
			<point x="409" y="802"/>
			<point x="413" y="820"/>
			<point x="422" y="830" type="curve"/>
			<point x="418" y="832"/>
			<point x="414" y="833"/>
		</contour>
		<component base="to-ethiopic"/>
		<component base="leftdoubleflag" xOffset="4" yOffset="751"/>
	</outline>
</glyph>
<glyph name="cwa-ethiopic" format="2">
  <advance width="489"/>
  <unicode hex="127F"/>
  <note>
uni127F
</note>
  <anchor x="244" y="794" name="top"/>
  <outline>
    <contour>
      <point x="243" y="2" type="curve"/>
      <point x="287" y="2" type="line"/>
      <point x="287" y="25" type="line"/>
      <point x="264" y="25"/>
      <point x="252" y="35"/>
      <point x="252" y="80" type="curve" smooth="yes"/>
      <point x="252" y="747" type="line"/>
      <point x="224" y="747" type="line"/>
      <point x="224" y="68" type="line" smooth="yes"/>
      <point x="224" y="28"/>
      <point x="231" y="12"/>
    </contour>
    <component base="bonemiddle" xOffset="35" yOffset="-12"/>
    <component base="footmiddle" xOffset="15" yOffset="511"/>
    <component base="footmiddle" xOffset="29"/>
  </outline>
</glyph>
<glyph name="xaa-ethiopic" format="2">
  <advance width="433"/>
  <unicode hex="1283"/>
  <note>
uni1283
</note>
  <anchor x="182" y="716" name="top"/>
  <outline>
    <contour>
      <point x="98" y="-57" type="curve" smooth="yes"/>
      <point x="117" y="-57"/>
      <point x="129" y="-39"/>
      <point x="129" y="-15" type="curve" smooth="yes"/>
      <point x="129" y="-11"/>
      <point x="129" y="-5"/>
      <point x="129" y="0" type="curve"/>
      <point x="158" y="0" type="line" smooth="yes"/>
      <point x="288" y="0"/>
      <point x="354" y="121"/>
      <point x="354" y="300" type="curve" smooth="yes"/>
      <point x="354" y="446" type="line" smooth="yes"/>
      <point x="354" y="483"/>
      <point x="339" y="516"/>
      <point x="292" y="516" type="curve" smooth="yes"/>
      <point x="230" y="516" type="line"/>
      <point x="230" y="663" type="line" smooth="yes"/>
      <point x="230" y="691"/>
      <point x="224" y="707"/>
      <point x="212" y="716" type="curve"/>
      <point x="167" y="712" type="line"/>
      <point x="167" y="692" type="line"/>
      <point x="191" y="692"/>
      <point x="202" y="683"/>
      <point x="202" y="654" type="curve" smooth="yes"/>
      <point x="202" y="491" type="line"/>
      <point x="279" y="491" type="line" smooth="yes"/>
      <point x="313" y="491"/>
      <point x="326" y="476"/>
      <point x="326" y="441" type="curve" smooth="yes"/>
      <point x="326" y="304" type="line" smooth="yes"/>
      <point x="326" y="136"/>
      <point x="271" y="25"/>
      <point x="151" y="25" type="curve" smooth="yes"/>
      <point x="89" y="25" type="line"/>
      <point x="92" y="16"/>
      <point x="94" y="6"/>
      <point x="94" y="-10" type="curve" smooth="yes"/>
      <point x="94" y="-26"/>
      <point x="91" y="-44"/>
      <point x="83" y="-54" type="curve"/>
      <point x="87" y="-56"/>
      <point x="91" y="-57"/>
    </contour>
    <component base="leftsingleflag" xOffset="-10" yOffset="230"/>
  </outline>
</glyph>
<glyph name="xe-ethiopic" format="2">
	<advance width="402"/>
	<unicode hex="1285"/>
	<anchor x="171" y="716" name="top"/>
	<note>
		uni1285
	</note>
	<outline>
		<contour>
			<point x="31" y="334" type="curve"/>
			<point x="79" y="339" type="line"/>
			<point x="79" y="359" type="line"/>
			<point x="54" y="359"/>
			<point x="43" y="368"/>
			<point x="43" y="412" type="curve" smooth="yes"/>
			<point x="43" y="551"/>
			<point x="124" y="610"/>
			<point x="192" y="631" type="curve"/>
			<point x="190" y="655" type="line"/>
			<point x="106" y="633"/>
			<point x="15" y="563"/>
			<point x="15" y="401" type="curve" smooth="yes"/>
			<point x="15" y="363"/>
			<point x="21" y="347"/>
		</contour>
		<component base="na-ethiopic" xOffset="117"/>
	</outline>
</glyph>
<glyph name="xwaa-ethiopic" format="2">
  <advance width="505"/>
  <unicode hex="128B"/>
  <note>
uni128B
</note>
  <anchor x="247" y="716" name="top"/>
  <outline>
    <contour>
      <point x="302" y="130" type="curve"/>
      <point x="347" y="134" type="line"/>
      <point x="347" y="154" type="line"/>
      <point x="323" y="154"/>
      <point x="311" y="163"/>
      <point x="311" y="207" type="curve" smooth="yes"/>
      <point x="311" y="255"/>
      <point x="339" y="387"/>
      <point x="339" y="446" type="curve" smooth="yes"/>
      <point x="339" y="483"/>
      <point x="324" y="516"/>
      <point x="277" y="516" type="curve" smooth="yes"/>
      <point x="215" y="516" type="line"/>
      <point x="215" y="663" type="line" smooth="yes"/>
      <point x="215" y="691"/>
      <point x="209" y="707"/>
      <point x="197" y="716" type="curve"/>
      <point x="152" y="712" type="line"/>
      <point x="152" y="692" type="line"/>
      <point x="176" y="692"/>
      <point x="187" y="683"/>
      <point x="187" y="654" type="curve" smooth="yes"/>
      <point x="187" y="491" type="line"/>
      <point x="264" y="491" type="line" smooth="yes"/>
      <point x="298" y="491"/>
      <point x="311" y="476"/>
      <point x="311" y="441" type="curve" smooth="yes"/>
      <point x="311" y="384"/>
      <point x="283" y="253"/>
      <point x="283" y="196" type="curve" smooth="yes"/>
      <point x="283" y="158"/>
      <point x="290" y="140"/>
    </contour>
    <contour>
      <point x="163" y="129" type="line"/>
      <point x="450" y="129" type="line"/>
      <point x="450" y="154" type="line"/>
      <point x="163" y="154" type="line"/>
    </contour>
    <contour>
      <point x="440" y="-3" type="curve"/>
      <point x="485" y="0" type="line"/>
      <point x="485" y="20" type="line"/>
      <point x="461" y="20"/>
      <point x="450" y="29"/>
      <point x="450" y="58" type="curve" smooth="yes"/>
      <point x="450" y="154" type="line"/>
      <point x="422" y="154" type="line"/>
      <point x="422" y="49" type="line" smooth="yes"/>
      <point x="422" y="21"/>
      <point x="428" y="6"/>
    </contour>
    <component base="leftsingleflag" xOffset="65" yOffset="-233"/>
    <component base="leftsingleflag" xOffset="-10" yOffset="228"/>
  </outline>
</glyph>
<glyph name="xwee-ethiopic" format="2">
	<advance width="496"/>
	<unicode hex="128C"/>
	<anchor x="243" y="716" name="top"/>
	<note>
		uni128C
	</note>
	<outline>
		<contour>
			<point x="209" y="0" type="line"/>
			<point x="360" y="0" type="line"/>
			<point x="324" y="25" type="line"/>
			<point x="209" y="25" type="line"/>
		</contour>
		<component base="xee-ethiopic"/>
		<component base="leftsingleflag" xOffset="89" yOffset="-362"/>
	</outline>
</glyph>
<glyph name="na-ethiopic" format="2">
  <advance width="285"/>
  <unicode hex="1290"/>
  <note>
uni1290
</note>
  <anchor x="116" y="716" name="top"/>
  <outline>
    <contour>
      <point x="153" y="-3" type="curve"/>
      <point x="197" y="2" type="line"/>
      <point x="197" y="22" type="line"/>
      <point x="173" y="22"/>
      <point x="162" y="31"/>
      <point x="162" y="75" type="curve" smooth="yes"/>
      <point x="162" y="149"/>
      <point x="210" y="354"/>
      <point x="210" y="446" type="curve" smooth="yes"/>
      <point x="210" y="483"/>
      <point x="195" y="516"/>
      <point x="148" y="516" type="curve" smooth="yes"/>
      <point x="86" y="516" type="line"/>
      <point x="86" y="663" type="line" smooth="yes"/>
      <point x="86" y="691"/>
      <point x="80" y="707"/>
      <point x="68" y="716" type="curve"/>
      <point x="23" y="712" type="line"/>
      <point x="23" y="692" type="line"/>
      <point x="47" y="692"/>
      <point x="58" y="683"/>
      <point x="58" y="654" type="curve" smooth="yes"/>
      <point x="58" y="491" type="line"/>
      <point x="135" y="491" type="line" smooth="yes"/>
      <point x="169" y="491"/>
      <point x="182" y="476"/>
      <point x="182" y="441" type="curve" smooth="yes"/>
      <point x="182" y="354"/>
      <point x="134" y="151"/>
      <point x="134" y="64" type="curve" smooth="yes"/>
      <point x="134" y="26"/>
      <point x="140" y="7"/>
    </contour>
  </outline>
</glyph>
<glyph name="ni-ethiopic" format="2">
  <advance width="352"/>
  <unicode hex="1292"/>
  <note>
uni1292
</note>
  <anchor x="177" y="716" name="top"/>
  <outline>
    <contour>
      <point x="150" y="0" type="curve"/>
      <point x="197" y="0" type="line"/>
      <point x="197" y="25" type="line"/>
      <point x="173" y="25"/>
      <point x="162" y="33"/>
      <point x="162" y="75" type="curve" smooth="yes"/>
      <point x="162" y="149"/>
      <point x="210" y="354"/>
      <point x="210" y="446" type="curve" smooth="yes"/>
      <point x="210" y="483"/>
      <point x="195" y="516"/>
      <point x="148" y="516" type="curve" smooth="yes"/>
      <point x="86" y="516" type="line"/>
      <point x="86" y="663" type="line" smooth="yes"/>
      <point x="86" y="691"/>
      <point x="80" y="707"/>
      <point x="68" y="716" type="curve"/>
      <point x="23" y="712" type="line"/>
      <point x="23" y="692" type="line"/>
      <point x="47" y="692"/>
      <point x="58" y="683"/>
      <point x="58" y="654" type="curve" smooth="yes"/>
      <point x="58" y="491" type="line"/>
      <point x="135" y="491" type="line" smooth="yes"/>
      <point x="169" y="491"/>
      <point x="182" y="476"/>
      <point x="182" y="441" type="curve" smooth="yes"/>
      <point x="182" y="354"/>
      <point x="134" y="151"/>
      <point x="134" y="64" type="curve" smooth="yes"/>
      <point x="134" y="26"/>
      <point x="141" y="11"/>
    </contour>
    <component base="rightdoubleflag" xOffset="159"/>
  </outline>
</glyph>
<glyph name="naa-ethiopic" format="2">
  <advance width="376"/>
  <unicode hex="1293"/>
  <note>
uni1293
</note>
  <anchor x="198" y="714" name="top"/>
  <outline>
    <contour>
      <point x="239" y="-2" type="curve"/>
      <point x="291" y="2" type="line"/>
      <point x="291" y="22" type="line"/>
      <point x="269" y="22"/>
      <point x="253" y="32"/>
      <point x="253" y="89" type="curve" smooth="yes"/>
      <point x="253" y="173" type="line" smooth="yes"/>
      <point x="253" y="297"/>
      <point x="208" y="319"/>
      <point x="132" y="319" type="curve" smooth="yes"/>
      <point x="67" y="319" type="line"/>
      <point x="68" y="557"/>
      <point x="135" y="689"/>
      <point x="286" y="689" type="curve" smooth="yes"/>
      <point x="307" y="689" type="line"/>
      <point x="306" y="684"/>
      <point x="306" y="678"/>
      <point x="306" y="674" type="curve" smooth="yes"/>
      <point x="306" y="650"/>
      <point x="321" y="632"/>
      <point x="340" y="632" type="curve" smooth="yes"/>
      <point x="347" y="632"/>
      <point x="352" y="633"/>
      <point x="356" y="635" type="curve"/>
      <point x="348" y="645"/>
      <point x="343" y="661"/>
      <point x="343" y="677" type="curve" smooth="yes"/>
      <point x="343" y="693"/>
      <point x="345" y="705"/>
      <point x="349" y="714" type="curve"/>
      <point x="291" y="714" type="line" smooth="yes"/>
      <point x="120" y="714"/>
      <point x="40" y="571"/>
      <point x="40" y="322" type="curve" smooth="yes"/>
      <point x="40" y="294" type="line"/>
      <point x="121" y="294" type="line" smooth="yes"/>
      <point x="191" y="294"/>
      <point x="225" y="272"/>
      <point x="225" y="166" type="curve" smooth="yes"/>
      <point x="225" y="87" type="line" smooth="yes"/>
      <point x="225" y="39"/>
      <point x="231" y="14"/>
    </contour>
  </outline>
</glyph>
<glyph name="nee-ethiopic" format="2">
  <advance width="353"/>
  <unicode hex="1294"/>
  <note>
uni1294
</note>
  <anchor x="178" y="716" name="top"/>
  <outline>
    <contour>
      <point x="204" y="0" type="curve" smooth="yes"/>
      <point x="218" y="0" type="line" smooth="yes"/>
      <point x="292" y="0"/>
      <point x="333" y="52"/>
      <point x="333" y="122" type="curve" smooth="yes"/>
      <point x="333" y="185"/>
      <point x="295" y="230"/>
      <point x="208" y="230" type="curve" smooth="yes"/>
      <point x="155" y="230" type="line"/>
      <point x="171" y="274" type="line" smooth="yes"/>
      <point x="193" y="334"/>
      <point x="215" y="385"/>
      <point x="215" y="438" type="curve" smooth="yes"/>
      <point x="215" y="478"/>
      <point x="194" y="516"/>
      <point x="143" y="516" type="curve" smooth="yes"/>
      <point x="86" y="516" type="line"/>
      <point x="86" y="663" type="line" smooth="yes"/>
      <point x="86" y="691"/>
      <point x="80" y="707"/>
      <point x="68" y="716" type="curve"/>
      <point x="23" y="712" type="line"/>
      <point x="23" y="692" type="line"/>
      <point x="47" y="692"/>
      <point x="58" y="683"/>
      <point x="58" y="654" type="curve" smooth="yes"/>
      <point x="58" y="491" type="line"/>
      <point x="131" y="491" type="line" smooth="yes"/>
      <point x="170" y="491"/>
      <point x="187" y="471"/>
      <point x="187" y="433" type="curve" smooth="yes"/>
      <point x="187" y="391"/>
      <point x="170" y="349"/>
      <point x="151" y="295" type="curve" smooth="yes"/>
      <point x="129" y="234" type="line" smooth="yes"/>
      <point x="112" y="187"/>
      <point x="102" y="148"/>
      <point x="102" y="114" type="curve" smooth="yes"/>
      <point x="102" y="36"/>
      <point x="145" y="0"/>
    </contour>
    <contour>
      <point x="214" y="22" type="curve" smooth="yes"/>
      <point x="161" y="22"/>
      <point x="128" y="52"/>
      <point x="128" y="115" type="curve" smooth="yes"/>
      <point x="128" y="151"/>
      <point x="139" y="184"/>
      <point x="147" y="207" type="curve"/>
      <point x="203" y="207" type="line" smooth="yes"/>
      <point x="276" y="207"/>
      <point x="306" y="172"/>
      <point x="306" y="122" type="curve" smooth="yes"/>
      <point x="306" y="68"/>
      <point x="280" y="22"/>
    </contour>
  </outline>
</glyph>
<glyph name="ne-ethiopic" format="2">
  <advance width="402"/>
  <unicode hex="1295"/>
  <note>
uni1295
</note>
  <anchor x="173" y="714" name="top"/>
  <outline>
    <contour>
      <point x="270" y="-3" type="curve"/>
      <point x="314" y="2" type="line"/>
      <point x="314" y="22" type="line"/>
      <point x="292" y="22"/>
      <point x="279" y="31"/>
      <point x="279" y="72" type="curve" smooth="yes"/>
      <point x="279" y="150"/>
      <point x="327" y="358"/>
      <point x="327" y="440" type="curve" smooth="yes"/>
      <point x="327" y="483"/>
      <point x="314" y="516"/>
      <point x="265" y="516" type="curve" smooth="yes"/>
      <point x="203" y="516" type="line"/>
      <point x="203" y="591" type="line" smooth="yes"/>
      <point x="203" y="677"/>
      <point x="167" y="714"/>
      <point x="108" y="714" type="curve" smooth="yes"/>
      <point x="27" y="714" type="line"/>
      <point x="30" y="705"/>
      <point x="32" y="695"/>
      <point x="32" y="680" type="curve" smooth="yes"/>
      <point x="32" y="663"/>
      <point x="28" y="645"/>
      <point x="20" y="635" type="curve"/>
      <point x="24" y="633"/>
      <point x="29" y="632"/>
      <point x="34" y="632" type="curve" smooth="yes"/>
      <point x="56" y="632"/>
      <point x="68" y="651"/>
      <point x="68" y="674" type="curve" smooth="yes"/>
      <point x="68" y="678"/>
      <point x="68" y="684"/>
      <point x="67" y="689" type="curve"/>
      <point x="99" y="689" type="line" smooth="yes"/>
      <point x="151" y="689"/>
      <point x="175" y="663"/>
      <point x="175" y="570" type="curve" smooth="yes"/>
      <point x="175" y="491" type="line"/>
      <point x="252" y="491" type="line" smooth="yes"/>
      <point x="287" y="491"/>
      <point x="299" y="476"/>
      <point x="299" y="437" type="curve" smooth="yes"/>
      <point x="299" y="357"/>
      <point x="251" y="152"/>
      <point x="251" y="60" type="curve" smooth="yes"/>
      <point x="251" y="27"/>
      <point x="258" y="7"/>
    </contour>
  </outline>
</glyph>
<glyph name="no-ethiopic" format="2">
  <advance width="449"/>
  <unicode hex="1296"/>
  <note>
uni1296
</note>
  <anchor x="234" y="714" name="top"/>
  <outline>
    <contour>
      <point x="239" y="-2" type="curve"/>
      <point x="291" y="2" type="line"/>
      <point x="291" y="22" type="line"/>
      <point x="268" y="22"/>
      <point x="252" y="32"/>
      <point x="252" y="89" type="curve" smooth="yes"/>
      <point x="252" y="147" type="line" smooth="yes"/>
      <point x="252" y="293"/>
      <point x="213" y="316"/>
      <point x="121" y="316" type="curve" smooth="yes"/>
      <point x="66" y="316" type="line"/>
      <point x="66" y="328" type="line" smooth="yes"/>
      <point x="66" y="601"/>
      <point x="153" y="689"/>
      <point x="279" y="689" type="curve" smooth="yes"/>
      <point x="297" y="689" type="line"/>
      <point x="344" y="714" type="line"/>
      <point x="288" y="714" type="line" smooth="yes"/>
      <point x="129" y="714"/>
      <point x="40" y="605"/>
      <point x="40" y="316" type="curve" smooth="yes"/>
      <point x="40" y="294" type="line"/>
      <point x="115" y="294" type="line" smooth="yes"/>
      <point x="195" y="294"/>
      <point x="225" y="271"/>
      <point x="225" y="145" type="curve" smooth="yes"/>
      <point x="225" y="87" type="line" smooth="yes"/>
      <point x="225" y="39"/>
      <point x="230" y="14"/>
    </contour>
    <component base="ballsmall" xOffset="214" yOffset="308"/>
  </outline>
</glyph>
<glyph name="nwa-ethiopic" format="2">
  <advance width="465"/>
  <unicode hex="1297"/>
  <note>
uni1297
</note>
  <anchor x="242" y="714" name="top"/>
  <outline>
    <contour>
      <point x="240" y="17" type="line"/>
      <point x="268" y="17" type="line"/>
      <point x="268" y="173" type="line" smooth="yes"/>
      <point x="268" y="297"/>
      <point x="224" y="319"/>
      <point x="151" y="319" type="curve" smooth="yes"/>
      <point x="82" y="319" type="line"/>
      <point x="83" y="557"/>
      <point x="150" y="689"/>
      <point x="301" y="689" type="curve" smooth="yes"/>
      <point x="322" y="689" type="line"/>
      <point x="321" y="684"/>
      <point x="321" y="678"/>
      <point x="321" y="674" type="curve" smooth="yes"/>
      <point x="321" y="650"/>
      <point x="336" y="632"/>
      <point x="355" y="632" type="curve" smooth="yes"/>
      <point x="362" y="632"/>
      <point x="367" y="633"/>
      <point x="371" y="635" type="curve"/>
      <point x="363" y="645"/>
      <point x="358" y="661"/>
      <point x="358" y="677" type="curve" smooth="yes"/>
      <point x="358" y="693"/>
      <point x="360" y="705"/>
      <point x="364" y="714" type="curve"/>
      <point x="306" y="714" type="line" smooth="yes"/>
      <point x="135" y="714"/>
      <point x="55" y="571"/>
      <point x="55" y="322" type="curve" smooth="yes"/>
      <point x="55" y="294" type="line"/>
      <point x="140" y="294" type="line" smooth="yes"/>
      <point x="208" y="294"/>
      <point x="240" y="272"/>
      <point x="240" y="166" type="curve" smooth="yes"/>
    </contour>
    <component base="footmiddle" xOffset="20"/>
  </outline>
</glyph>
<glyph name="nya-ethiopic" format="2">
  <advance width="419"/>
  <unicode hex="1298"/>
  <note>
uni1298
</note>
  <anchor x="199" y="748" name="top"/>
  <outline>
    <contour>
      <point x="282" y="-3" type="curve"/>
      <point x="326" y="2" type="line"/>
      <point x="326" y="22" type="line"/>
      <point x="302" y="22"/>
      <point x="291" y="31"/>
      <point x="291" y="75" type="curve" smooth="yes"/>
      <point x="291" y="149"/>
      <point x="339" y="354"/>
      <point x="339" y="446" type="curve" smooth="yes"/>
      <point x="339" y="483"/>
      <point x="324" y="516"/>
      <point x="277" y="516" type="curve" smooth="yes"/>
      <point x="215" y="516" type="line"/>
      <point x="215" y="700" type="line"/>
      <point x="187" y="700" type="line"/>
      <point x="187" y="491" type="line"/>
      <point x="264" y="491" type="line" smooth="yes"/>
      <point x="298" y="491"/>
      <point x="311" y="476"/>
      <point x="311" y="441" type="curve" smooth="yes"/>
      <point x="311" y="354"/>
      <point x="263" y="151"/>
      <point x="263" y="64" type="curve" smooth="yes"/>
      <point x="263" y="26"/>
      <point x="269" y="7"/>
    </contour>
    <component base="bonemiddle" yOffset="-58"/>
  </outline>
</glyph>
<glyph name="nyi-ethiopic" format="2">
	<advance width="486"/>
	<unicode hex="129A"/>
	<anchor x="243" y="748" name="top"/>
	<note>
		uni129A
	</note>
	<outline>
		<contour>
			<point x="282" y="0" type="curve"/>
			<point x="326" y="0" type="line"/>
			<point x="326" y="25" type="line"/>
			<point x="302" y="25"/>
			<point x="291" y="34"/>
			<point x="291" y="78" type="curve" smooth="yes"/>
			<point x="291" y="152"/>
			<point x="339" y="354"/>
			<point x="339" y="446" type="curve" smooth="yes"/>
			<point x="339" y="483"/>
			<point x="324" y="516"/>
			<point x="277" y="516" type="curve" smooth="yes"/>
			<point x="215" y="516" type="line"/>
			<point x="215" y="699" type="line"/>
			<point x="187" y="699" type="line"/>
			<point x="187" y="491" type="line"/>
			<point x="264" y="491" type="line" smooth="yes"/>
			<point x="298" y="491"/>
			<point x="311" y="476"/>
			<point x="311" y="441" type="curve" smooth="yes"/>
			<point x="311" y="354"/>
			<point x="263" y="154"/>
			<point x="263" y="67" type="curve" smooth="yes"/>
			<point x="263" y="29"/>
			<point x="269" y="10"/>
		</contour>
		<component base="rightdoubleflag" xOffset="293"/>
		<component base="bonemiddle" yOffset="-58"/>
	</outline>
</glyph>
<glyph name="nyaa-ethiopic" format="2">
  <advance width="419"/>
  <unicode hex="129B"/>
  <note>
uni129B
</note>
  <anchor x="219" y="748" name="top"/>
  <outline>
    <contour>
      <point x="239" y="-2" type="curve"/>
      <point x="291" y="2" type="line"/>
      <point x="291" y="22" type="line"/>
      <point x="268" y="22"/>
      <point x="252" y="32"/>
      <point x="252" y="89" type="curve" smooth="yes"/>
      <point x="252" y="116" type="line" smooth="yes"/>
      <point x="252" y="217"/>
      <point x="212" y="253"/>
      <point x="140" y="253" type="curve" smooth="yes"/>
      <point x="75" y="253" type="line"/>
      <point x="76" y="388"/>
      <point x="120" y="523"/>
      <point x="293" y="523" type="curve" smooth="yes"/>
      <point x="316" y="523" type="line"/>
      <point x="315" y="518"/>
      <point x="315" y="512"/>
      <point x="315" y="508" type="curve" smooth="yes"/>
      <point x="315" y="484"/>
      <point x="330" y="466"/>
      <point x="349" y="466" type="curve" smooth="yes"/>
      <point x="356" y="466"/>
      <point x="361" y="467"/>
      <point x="365" y="469" type="curve"/>
      <point x="356" y="479"/>
      <point x="352" y="497"/>
      <point x="352" y="513" type="curve" smooth="yes"/>
      <point x="352" y="529"/>
      <point x="355" y="539"/>
      <point x="358" y="548" type="curve"/>
      <point x="298" y="548" type="line" smooth="yes"/>
      <point x="135" y="548"/>
      <point x="48" y="455"/>
      <point x="48" y="259" type="curve" smooth="yes"/>
      <point x="48" y="231" type="line"/>
      <point x="135" y="231" type="line" smooth="yes"/>
      <point x="192" y="231"/>
      <point x="225" y="200"/>
      <point x="225" y="114" type="curve" smooth="yes"/>
      <point x="225" y="87" type="line" smooth="yes"/>
      <point x="225" y="39"/>
      <point x="230" y="14"/>
    </contour>
    <contour>
      <point x="206" y="526" type="line"/>
      <point x="232" y="526" type="line"/>
      <point x="232" y="708" type="line"/>
      <point x="206" y="708" type="line"/>
    </contour>
    <component base="bonemiddle" xOffset="20" yOffset="-58"/>
  </outline>
</glyph>
<glyph name="nyee-ethiopic" format="2">
  <advance width="481"/>
  <unicode hex="129C"/>
  <note>
uni129C
</note>
  <anchor x="240" y="748" name="top"/>
  <outline>
    <contour>
      <point x="332" y="0" type="curve" smooth="yes"/>
      <point x="345" y="0" type="line" smooth="yes"/>
      <point x="420" y="0"/>
      <point x="461" y="52"/>
      <point x="461" y="122" type="curve" smooth="yes"/>
      <point x="461" y="185"/>
      <point x="429" y="230"/>
      <point x="356" y="230" type="curve" smooth="yes"/>
      <point x="282" y="230" type="line"/>
      <point x="298" y="275" type="line" smooth="yes"/>
      <point x="319" y="335"/>
      <point x="337" y="385"/>
      <point x="337" y="438" type="curve" smooth="yes"/>
      <point x="337" y="478"/>
      <point x="331" y="516"/>
      <point x="269" y="516" type="curve" smooth="yes"/>
      <point x="213" y="516" type="line"/>
      <point x="213" y="702" type="line"/>
      <point x="185" y="701" type="line"/>
      <point x="185" y="491" type="line"/>
      <point x="261" y="491" type="line" smooth="yes"/>
      <point x="302" y="491"/>
      <point x="309" y="471"/>
      <point x="309" y="433" type="curve" smooth="yes"/>
      <point x="309" y="391"/>
      <point x="296" y="348"/>
      <point x="278" y="295" type="curve" smooth="yes"/>
      <point x="257" y="233" type="line" smooth="yes"/>
      <point x="241" y="186"/>
      <point x="233" y="154"/>
      <point x="233" y="120" type="curve" smooth="yes"/>
      <point x="233" y="42"/>
      <point x="273" y="0"/>
    </contour>
    <contour>
      <point x="341" y="22" type="curve" smooth="yes"/>
      <point x="288" y="22"/>
      <point x="259" y="62"/>
      <point x="259" y="121" type="curve" smooth="yes"/>
      <point x="259" y="157"/>
      <point x="266" y="184"/>
      <point x="274" y="207" type="curve"/>
      <point x="351" y="207" type="line" smooth="yes"/>
      <point x="410" y="207"/>
      <point x="433" y="172"/>
      <point x="433" y="122" type="curve" smooth="yes"/>
      <point x="433" y="68"/>
      <point x="407" y="22"/>
    </contour>
    <component base="bonemiddle" yOffset="-58"/>
  </outline>
</glyph>
<glyph name="nye-ethiopic" format="2">
  <advance width="415"/>
  <unicode hex="129D"/>
  <note>
uni129D
</note>
  <anchor x="180" y="771" name="top"/>
  <outline>
    <contour>
      <point x="293" y="-3" type="curve"/>
      <point x="338" y="2" type="line"/>
      <point x="338" y="22" type="line"/>
      <point x="315" y="22"/>
      <point x="302" y="31"/>
      <point x="302" y="72" type="curve" smooth="yes"/>
      <point x="302" y="120"/>
      <point x="340" y="269"/>
      <point x="340" y="331" type="curve" smooth="yes"/>
      <point x="340" y="374"/>
      <point x="327" y="407"/>
      <point x="278" y="407" type="curve" smooth="yes"/>
      <point x="216" y="407" type="line"/>
      <point x="216" y="427" type="line" smooth="yes"/>
      <point x="216" y="513"/>
      <point x="180" y="550"/>
      <point x="121" y="550" type="curve" smooth="yes"/>
      <point x="40" y="550" type="line"/>
      <point x="43" y="541"/>
      <point x="45" y="531"/>
      <point x="45" y="516" type="curve" smooth="yes"/>
      <point x="45" y="499"/>
      <point x="41" y="481"/>
      <point x="33" y="471" type="curve"/>
      <point x="37" y="469"/>
      <point x="42" y="468"/>
      <point x="47" y="468" type="curve" smooth="yes"/>
      <point x="69" y="468"/>
      <point x="81" y="487"/>
      <point x="81" y="510" type="curve" smooth="yes"/>
      <point x="81" y="514"/>
      <point x="81" y="520"/>
      <point x="80" y="525" type="curve"/>
      <point x="112" y="525" type="line" smooth="yes"/>
      <point x="164" y="525"/>
      <point x="188" y="499"/>
      <point x="188" y="406" type="curve" smooth="yes"/>
      <point x="188" y="382" type="line"/>
      <point x="265" y="382" type="line" smooth="yes"/>
      <point x="300" y="382"/>
      <point x="312" y="367"/>
      <point x="312" y="328" type="curve" smooth="yes"/>
      <point x="312" y="268"/>
      <point x="274" y="122"/>
      <point x="274" y="60" type="curve" smooth="yes"/>
      <point x="274" y="27"/>
      <point x="281" y="7"/>
    </contour>
    <contour>
      <point x="142" y="532" type="line"/>
      <point x="168" y="532" type="line"/>
      <point x="168" y="703" type="line"/>
      <point x="142" y="703" type="line"/>
    </contour>
    <contour>
      <point x="309" y="771" type="curve" smooth="yes"/>
      <point x="289" y="771"/>
      <point x="276" y="753"/>
      <point x="276" y="729" type="curve" smooth="yes"/>
      <point x="276" y="725"/>
      <point x="276" y="719"/>
      <point x="277" y="714" type="curve"/>
      <point x="67" y="714" type="line"/>
      <point x="68" y="719"/>
      <point x="68" y="725"/>
      <point x="68" y="729" type="curve" smooth="yes"/>
      <point x="68" y="753"/>
      <point x="56" y="771"/>
      <point x="36" y="771" type="curve" smooth="yes"/>
      <point x="29" y="771"/>
      <point x="24" y="770"/>
      <point x="20" y="768" type="curve"/>
      <point x="29" y="758"/>
      <point x="32" y="740"/>
      <point x="32" y="724" type="curve" smooth="yes"/>
      <point x="32" y="708"/>
      <point x="30" y="698"/>
      <point x="28" y="689" type="curve"/>
      <point x="317" y="689" type="line"/>
      <point x="314" y="698"/>
      <point x="312" y="708"/>
      <point x="312" y="724" type="curve" smooth="yes"/>
      <point x="312" y="740"/>
      <point x="316" y="758"/>
      <point x="324" y="768" type="curve"/>
      <point x="320" y="770"/>
      <point x="315" y="771"/>
    </contour>
  </outline>
</glyph>
<glyph name="nyo-ethiopic" format="2">
  <advance width="463"/>
  <unicode hex="129E"/>
  <note>
uni129E
</note>
  <anchor x="241" y="794" name="top"/>
  <outline>
    <contour>
      <point x="238" y="-3" type="curve"/>
      <point x="291" y="2" type="line"/>
      <point x="291" y="22" type="line"/>
      <point x="268" y="22"/>
      <point x="252" y="34"/>
      <point x="252" y="89" type="curve" smooth="yes"/>
      <point x="252" y="118" type="line" smooth="yes"/>
      <point x="252" y="214"/>
      <point x="215" y="236"/>
      <point x="145" y="236" type="curve" smooth="yes"/>
      <point x="66" y="236" type="line"/>
      <point x="66" y="424"/>
      <point x="152" y="514"/>
      <point x="295" y="514" type="curve"/>
      <point x="355" y="536" type="line"/>
      <point x="316" y="536" type="line" smooth="yes"/>
      <point x="121" y="536"/>
      <point x="40" y="435"/>
      <point x="40" y="237" type="curve" smooth="yes"/>
      <point x="40" y="214" type="line"/>
      <point x="138" y="214" type="line" smooth="yes"/>
      <point x="195" y="214"/>
      <point x="225" y="192"/>
      <point x="225" y="116" type="curve" smooth="yes"/>
      <point x="225" y="87" type="line" smooth="yes"/>
      <point x="225" y="36"/>
      <point x="229" y="13"/>
    </contour>
    <contour>
      <point x="218" y="517" type="line"/>
      <point x="244" y="517" type="line"/>
      <point x="244" y="744" type="line"/>
      <point x="218" y="744" type="line"/>
    </contour>
    <component base="bonemiddle" xOffset="31" yOffset="-12"/>
    <component base="ballsmall" xOffset="228" yOffset="130"/>
  </outline>
</glyph>
<glyph name="nywa-ethiopic" format="2">
  <advance width="465"/>
  <unicode hex="129F"/>
  <note>
uni129F
</note>
  <anchor x="242" y="794" name="top"/>
  <outline>
    <contour>
      <point x="246" y="5" type="curve"/>
      <point x="298" y="5" type="line"/>
      <point x="298" y="25" type="line"/>
      <point x="275" y="25"/>
      <point x="259" y="35"/>
      <point x="259" y="92" type="curve" smooth="yes"/>
      <point x="259" y="116" type="line" smooth="yes"/>
      <point x="259" y="217"/>
      <point x="219" y="253"/>
      <point x="147" y="253" type="curve" smooth="yes"/>
      <point x="82" y="253" type="line"/>
      <point x="83" y="388"/>
      <point x="127" y="523"/>
      <point x="300" y="523" type="curve" smooth="yes"/>
      <point x="325" y="523" type="line"/>
      <point x="324" y="518"/>
      <point x="324" y="512"/>
      <point x="324" y="508" type="curve" smooth="yes"/>
      <point x="324" y="484"/>
      <point x="336" y="466"/>
      <point x="355" y="466" type="curve" smooth="yes"/>
      <point x="362" y="466"/>
      <point x="366" y="467"/>
      <point x="370" y="469" type="curve"/>
      <point x="363" y="479"/>
      <point x="359" y="497"/>
      <point x="359" y="513" type="curve" smooth="yes"/>
      <point x="359" y="529"/>
      <point x="361" y="539"/>
      <point x="364" y="548" type="curve"/>
      <point x="305" y="548" type="line" smooth="yes"/>
      <point x="142" y="548"/>
      <point x="55" y="455"/>
      <point x="55" y="259" type="curve" smooth="yes"/>
      <point x="55" y="231" type="line"/>
      <point x="142" y="231" type="line" smooth="yes"/>
      <point x="199" y="231"/>
      <point x="232" y="200"/>
      <point x="232" y="114" type="curve" smooth="yes"/>
      <point x="232" y="90" type="line" smooth="yes"/>
      <point x="232" y="42"/>
      <point x="237" y="21"/>
    </contour>
    <contour>
      <point x="213" y="526" type="line"/>
      <point x="239" y="526" type="line"/>
      <point x="239" y="748" type="line"/>
      <point x="213" y="748" type="line"/>
    </contour>
    <component base="bonemiddle" xOffset="24" yOffset="-12"/>
    <component base="footmiddle" xOffset="20"/>
  </outline>
</glyph>
<glyph name="iGlottal-ethiopic" format="2">
  <advance width="537"/>
  <unicode hex="12A2"/>
  <note>
uni12A2
</note>
  <anchor x="277" y="716" name="top"/>
  <outline>
    <contour>
      <point x="85" y="-3" type="curve"/>
      <point x="126" y="2" type="line"/>
      <point x="126" y="22" type="line"/>
      <point x="103" y="22"/>
      <point x="94" y="35"/>
      <point x="94" y="69" type="curve" smooth="yes"/>
      <point x="94" y="95"/>
      <point x="104" y="134"/>
      <point x="120" y="184" type="curve" smooth="yes"/>
      <point x="167" y="329" type="line" smooth="yes"/>
      <point x="187" y="389"/>
      <point x="198" y="421"/>
      <point x="198" y="455" type="curve" smooth="yes"/>
      <point x="198" y="499"/>
      <point x="176" y="523"/>
      <point x="136" y="523" type="curve" smooth="yes"/>
      <point x="101" y="523" type="line"/>
      <point x="101" y="643" type="line" smooth="yes"/>
      <point x="101" y="678"/>
      <point x="98" y="701"/>
      <point x="87" y="716" type="curve"/>
      <point x="38" y="712" type="line"/>
      <point x="38" y="692" type="line"/>
      <point x="65" y="692"/>
      <point x="74" y="679"/>
      <point x="74" y="643" type="curve" smooth="yes"/>
      <point x="74" y="498" type="line"/>
      <point x="124" y="498" type="line" smooth="yes"/>
      <point x="155" y="498"/>
      <point x="169" y="482"/>
      <point x="169" y="449" type="curve" smooth="yes"/>
      <point x="169" y="423"/>
      <point x="158" y="387"/>
      <point x="143" y="340" type="curve" smooth="yes"/>
      <point x="98" y="202" type="line" smooth="yes"/>
      <point x="84" y="159"/>
      <point x="66" y="102"/>
      <point x="66" y="56" type="curve" smooth="yes"/>
      <point x="66" y="26"/>
      <point x="74" y="7"/>
    </contour>
    <contour>
      <point x="332" y="0" type="curve"/>
      <point x="376" y="0" type="line"/>
      <point x="376" y="25" type="line"/>
      <point x="351" y="25"/>
      <point x="340" y="35"/>
      <point x="332" y="103" type="curve" smooth="yes"/>
      <point x="309" y="307"/>
      <point x="269" y="342"/>
      <point x="174" y="370" type="curve"/>
      <point x="167" y="347" type="line"/>
      <point x="248" y="320"/>
      <point x="283" y="290"/>
      <point x="305" y="98" type="curve" smooth="yes"/>
      <point x="311" y="50"/>
      <point x="315" y="23"/>
    </contour>
    <component base="rightdoubleflag" xOffset="344"/>
  </outline>
</glyph>
<glyph name="aaGlottal-ethiopic" format="2">
  <advance width="393"/>
  <unicode hex="12A3"/>
  <note>
uni12A3
</note>
  <anchor x="203" y="716" name="top"/>
  <outline>
    <contour>
      <point x="90" y="155" type="curve"/>
      <point x="131" y="160" type="line"/>
      <point x="131" y="180" type="line"/>
      <point x="108" y="180"/>
      <point x="99" y="193"/>
      <point x="99" y="217" type="curve" smooth="yes"/>
      <point x="99" y="239"/>
      <point x="116" y="271"/>
      <point x="148" y="328" type="curve" smooth="yes"/>
      <point x="179" y="383"/>
      <point x="198" y="421"/>
      <point x="198" y="455" type="curve" smooth="yes"/>
      <point x="198" y="499"/>
      <point x="176" y="523"/>
      <point x="136" y="523" type="curve" smooth="yes"/>
      <point x="101" y="523" type="line"/>
      <point x="101" y="643" type="line" smooth="yes"/>
      <point x="101" y="678"/>
      <point x="98" y="701"/>
      <point x="87" y="716" type="curve"/>
      <point x="38" y="712" type="line"/>
      <point x="38" y="692" type="line"/>
      <point x="65" y="692"/>
      <point x="74" y="679"/>
      <point x="74" y="643" type="curve" smooth="yes"/>
      <point x="74" y="498" type="line"/>
      <point x="124" y="498" type="line" smooth="yes"/>
      <point x="155" y="498"/>
      <point x="169" y="482"/>
      <point x="169" y="449" type="curve" smooth="yes"/>
      <point x="169" y="420"/>
      <point x="153" y="389"/>
      <point x="128" y="346" type="curve" smooth="yes"/>
      <point x="94" y="287"/>
      <point x="70" y="245"/>
      <point x="70" y="207" type="curve" smooth="yes"/>
      <point x="70" y="177"/>
      <point x="79" y="165"/>
    </contour>
    <contour>
      <point x="326" y="-3" type="curve"/>
      <point x="368" y="2" type="line"/>
      <point x="368" y="23" type="line"/>
      <point x="343" y="23"/>
      <point x="333" y="35"/>
      <point x="325" y="103" type="curve" smooth="yes"/>
      <point x="302" y="307"/>
      <point x="261" y="342"/>
      <point x="166" y="370" type="curve"/>
      <point x="151" y="349" type="line"/>
      <point x="243" y="322"/>
      <point x="275" y="290"/>
      <point x="297" y="98" type="curve" smooth="yes"/>
      <point x="303" y="50"/>
      <point x="309" y="20"/>
    </contour>
  </outline>
</glyph>
<glyph name="eeGlottal-ethiopic" format="2">
  <advance width="546"/>
  <unicode hex="12A4"/>
  <note>
uni12A4
</note>
  <anchor x="282" y="716" name="top"/>
  <outline>
    <contour>
      <point x="85" y="-3" type="curve"/>
      <point x="126" y="2" type="line"/>
      <point x="126" y="22" type="line"/>
      <point x="103" y="22"/>
      <point x="94" y="35"/>
      <point x="94" y="69" type="curve" smooth="yes"/>
      <point x="94" y="95"/>
      <point x="104" y="134"/>
      <point x="120" y="184" type="curve" smooth="yes"/>
      <point x="173" y="345" type="line"/>
      <point x="250" y="318"/>
      <point x="281" y="281"/>
      <point x="306" y="97" type="curve" smooth="yes"/>
      <point x="314" y="40"/>
      <point x="336" y="9"/>
      <point x="371" y="0" type="curve"/>
      <point x="410" y="0" type="line" smooth="yes"/>
      <point x="485" y="0"/>
      <point x="526" y="52"/>
      <point x="526" y="122" type="curve" smooth="yes"/>
      <point x="526" y="185"/>
      <point x="494" y="230"/>
      <point x="422" y="230" type="curve" smooth="yes"/>
      <point x="310" y="230" type="line"/>
      <point x="285" y="321"/>
      <point x="247" y="347"/>
      <point x="181" y="368" type="curve"/>
      <point x="192" y="404"/>
      <point x="198" y="429"/>
      <point x="198" y="455" type="curve" smooth="yes"/>
      <point x="198" y="499"/>
      <point x="176" y="523"/>
      <point x="136" y="523" type="curve" smooth="yes"/>
      <point x="101" y="523" type="line"/>
      <point x="101" y="643" type="line" smooth="yes"/>
      <point x="101" y="678"/>
      <point x="98" y="701"/>
      <point x="87" y="716" type="curve"/>
      <point x="38" y="712" type="line"/>
      <point x="38" y="692" type="line"/>
      <point x="65" y="692"/>
      <point x="74" y="679"/>
      <point x="74" y="643" type="curve" smooth="yes"/>
      <point x="74" y="498" type="line"/>
      <point x="124" y="498" type="line" smooth="yes"/>
      <point x="155" y="498"/>
      <point x="169" y="482"/>
      <point x="169" y="449" type="curve" smooth="yes"/>
      <point x="169" y="423"/>
      <point x="159" y="389"/>
      <point x="143" y="341" type="curve" smooth="yes"/>
      <point x="98" y="202" type="line" smooth="yes"/>
      <point x="84" y="159"/>
      <point x="66" y="102"/>
      <point x="66" y="56" type="curve" smooth="yes"/>
      <point x="66" y="26"/>
      <point x="74" y="7"/>
    </contour>
    <contour>
      <point x="407" y="22" type="curve" smooth="yes"/>
      <point x="358" y="22"/>
      <point x="342" y="52"/>
      <point x="334" y="103" type="curve" smooth="yes"/>
      <point x="328" y="144"/>
      <point x="323" y="178"/>
      <point x="317" y="207" type="curve"/>
      <point x="416" y="207" type="line" smooth="yes"/>
      <point x="475" y="207"/>
      <point x="498" y="172"/>
      <point x="498" y="122" type="curve" smooth="yes"/>
      <point x="498" y="68"/>
      <point x="472" y="22"/>
    </contour>
  </outline>
</glyph>
<glyph name="eGlottal-ethiopic" format="2">
  <advance width="386"/>
  <unicode hex="12A5"/>
  <note>
uni12A5
</note>
  <anchor x="174" y="716" name="top"/>
  <outline>
    <contour>
      <point x="71" y="-3" type="curve"/>
      <point x="112" y="2" type="line"/>
      <point x="112" y="22" type="line"/>
      <point x="88" y="22"/>
      <point x="79" y="35"/>
      <point x="79" y="69" type="curve" smooth="yes"/>
      <point x="79" y="95"/>
      <point x="89" y="134"/>
      <point x="105" y="184" type="curve" smooth="yes"/>
      <point x="158" y="346" type="line"/>
      <point x="235" y="319"/>
      <point x="269" y="285"/>
      <point x="290" y="98" type="curve" smooth="yes"/>
      <point x="295" y="50"/>
      <point x="302" y="20"/>
      <point x="319" y="-3" type="curve"/>
      <point x="361" y="2" type="line"/>
      <point x="361" y="23" type="line"/>
      <point x="336" y="23"/>
      <point x="326" y="35"/>
      <point x="318" y="103" type="curve" smooth="yes"/>
      <point x="295" y="302"/>
      <point x="256" y="340"/>
      <point x="166" y="368" type="curve"/>
      <point x="208" y="491" type="line"/>
      <point x="208" y="515" type="line"/>
      <point x="143" y="515" type="line"/>
      <point x="164" y="581" type="line"/>
      <point x="164" y="606" type="line"/>
      <point x="101" y="606" type="line"/>
      <point x="113" y="643" type="line" smooth="yes"/>
      <point x="123" y="675"/>
      <point x="122" y="700"/>
      <point x="111" y="715" type="curve"/>
      <point x="64" y="711" type="line"/>
      <point x="64" y="691" type="line"/>
      <point x="89" y="691"/>
      <point x="94" y="677"/>
      <point x="84" y="643" type="curve" smooth="yes"/>
      <point x="65" y="581" type="line"/>
      <point x="137" y="581" type="line"/>
      <point x="107" y="491" type="line"/>
      <point x="178" y="491" type="line"/>
      <point x="83" y="202" type="line" smooth="yes"/>
      <point x="69" y="159"/>
      <point x="51" y="102"/>
      <point x="51" y="56" type="curve" smooth="yes"/>
      <point x="51" y="26"/>
      <point x="59" y="7"/>
    </contour>
  </outline>
</glyph>
<glyph name="oGlottal-ethiopic" format="2">
  <advance width="404"/>
  <unicode hex="12A6"/>
  <note>
uni12A6
</note>
  <anchor x="207" y="716" name="top"/>
  <outline>
    <contour>
      <point x="93" y="-3" type="curve"/>
      <point x="134" y="2" type="line"/>
      <point x="134" y="22" type="line"/>
      <point x="111" y="22"/>
      <point x="102" y="35"/>
      <point x="102" y="69" type="curve" smooth="yes"/>
      <point x="102" y="95"/>
      <point x="112" y="133"/>
      <point x="129" y="184" type="curve" smooth="yes"/>
      <point x="176" y="329" type="line" smooth="yes"/>
      <point x="195" y="389"/>
      <point x="206" y="421"/>
      <point x="206" y="455" type="curve" smooth="yes"/>
      <point x="206" y="499"/>
      <point x="184" y="523"/>
      <point x="144" y="523" type="curve" smooth="yes"/>
      <point x="109" y="523" type="line"/>
      <point x="109" y="643" type="line" smooth="yes"/>
      <point x="109" y="678"/>
      <point x="106" y="701"/>
      <point x="95" y="716" type="curve"/>
      <point x="46" y="712" type="line"/>
      <point x="46" y="692" type="line"/>
      <point x="73" y="692"/>
      <point x="82" y="679"/>
      <point x="82" y="643" type="curve" smooth="yes"/>
      <point x="82" y="498" type="line"/>
      <point x="132" y="498" type="line" smooth="yes"/>
      <point x="163" y="498"/>
      <point x="177" y="482"/>
      <point x="177" y="449" type="curve" smooth="yes"/>
      <point x="177" y="423"/>
      <point x="166" y="388"/>
      <point x="151" y="341" type="curve" smooth="yes"/>
      <point x="106" y="201" type="line" smooth="yes"/>
      <point x="92" y="158"/>
      <point x="74" y="102"/>
      <point x="74" y="56" type="curve" smooth="yes"/>
      <point x="74" y="26"/>
      <point x="82" y="7"/>
    </contour>
    <contour>
      <point x="328" y="155" type="curve"/>
      <point x="369" y="160" type="line"/>
      <point x="369" y="181" type="line"/>
      <point x="345" y="181"/>
      <point x="339" y="199"/>
      <point x="335" y="225" type="curve" smooth="yes"/>
      <point x="319" y="326"/>
      <point x="268" y="357"/>
      <point x="182" y="370" type="curve"/>
      <point x="175" y="347" type="line"/>
      <point x="256" y="335"/>
      <point x="295" y="303"/>
      <point x="308" y="216" type="curve" smooth="yes"/>
      <point x="312" y="187"/>
      <point x="316" y="166"/>
    </contour>
  </outline>
</glyph>
<glyph name="waGlottal-ethiopic" format="2">
  <advance width="483"/>
  <unicode hex="12A7"/>
  <note>
uni12A7
</note>
  <anchor x="239" y="750" name="top"/>
  <outline>
    <contour>
      <point x="168" y="-3" type="curve"/>
      <point x="209" y="2" type="line"/>
      <point x="209" y="22" type="line"/>
      <point x="185" y="22"/>
      <point x="176" y="35"/>
      <point x="176" y="69" type="curve" smooth="yes"/>
      <point x="176" y="95"/>
      <point x="186" y="134"/>
      <point x="203" y="184" type="curve" smooth="yes"/>
      <point x="251" y="328" type="line" smooth="yes"/>
      <point x="271" y="388"/>
      <point x="280" y="421"/>
      <point x="280" y="455" type="curve" smooth="yes"/>
      <point x="280" y="499"/>
      <point x="258" y="523"/>
      <point x="218" y="523" type="curve" smooth="yes"/>
      <point x="184" y="523" type="line"/>
      <point x="184" y="703" type="line"/>
      <point x="156" y="703" type="line"/>
      <point x="156" y="498" type="line"/>
      <point x="206" y="498" type="line" smooth="yes"/>
      <point x="237" y="498"/>
      <point x="252" y="482"/>
      <point x="252" y="449" type="curve" smooth="yes"/>
      <point x="252" y="423"/>
      <point x="241" y="388"/>
      <point x="226" y="341" type="curve" smooth="yes"/>
      <point x="181" y="202" type="line" smooth="yes"/>
      <point x="167" y="158"/>
      <point x="148" y="102"/>
      <point x="148" y="56" type="curve" smooth="yes"/>
      <point x="148" y="26"/>
      <point x="156" y="7"/>
    </contour>
    <contour>
      <point x="416" y="-3" type="curve"/>
      <point x="458" y="2" type="line"/>
      <point x="458" y="23" type="line"/>
      <point x="433" y="23"/>
      <point x="423" y="35"/>
      <point x="415" y="103" type="curve" smooth="yes"/>
      <point x="391" y="307"/>
      <point x="351" y="342"/>
      <point x="256" y="370" type="curve"/>
      <point x="249" y="347" type="line"/>
      <point x="331" y="320"/>
      <point x="366" y="290"/>
      <point x="388" y="98" type="curve" smooth="yes"/>
      <point x="393" y="50"/>
      <point x="399" y="20"/>
    </contour>
    <component base="bone" yOffset="-56"/>
  </outline>
</glyph>
<glyph name="ka-ethiopic" format="2">
  <advance width="505"/>
  <unicode hex="12A8"/>
  <note>
uni12A8
</note>
  <anchor x="245" y="766" name="top"/>
  <outline>
    <contour>
      <point x="127" y="515" type="curve" smooth="yes"/>
      <point x="144" y="515"/>
      <point x="149" y="516"/>
      <point x="165" y="519" type="curve"/>
      <point x="165" y="537" type="line"/>
      <point x="110" y="537"/>
      <point x="105" y="546"/>
      <point x="105" y="590" type="curve" smooth="yes"/>
      <point x="105" y="699" type="line" smooth="yes"/>
      <point x="105" y="736"/>
      <point x="99" y="757"/>
      <point x="88" y="766" type="curve"/>
      <point x="43" y="762" type="line"/>
      <point x="43" y="742" type="line"/>
      <point x="67" y="742"/>
      <point x="77" y="732"/>
      <point x="77" y="690" type="curve" smooth="yes"/>
      <point x="77" y="572" type="line" smooth="yes"/>
      <point x="77" y="534"/>
      <point x="94" y="515"/>
    </contour>
    <component base="shortnarch" xOffset="23"/>
  </outline>
</glyph>
